<svg xmlns="http://www.w3.org/2000/svg" width="51.819" height="34.29" viewBox="0 0 51.819 34.29"><defs><style>.a{opacity:0.5;mix-blend-mode:luminosity;isolation:isolate;}.b{fill:#6eb444;}.c{fill:#ffc313;stroke:#ffc313;stroke-miterlimit:10;stroke-width:2px;}.d{fill:#ec135f;}.e{fill:#fff;}.f{fill:#2395d2;}.g{fill:#6fb544;}.h{fill:#ffc116;}.i{fill:#f26f21;}</style></defs><g class="a" transform="translate(0)"><path class="b" d="M250.523,88.3c-.074.074-.148.13-.223.2,0,.074.019.167.019.241a2.024,2.024,0,0,0,.2.111c.093-.148.39-.26.278-.427C250.708,88.393,250.615,88.337,250.523,88.3Z" transform="translate(-204.363 -72.678)"/><path class="c" d="M175.9,74.566a.183.183,0,0,1,.148.019C175.993,74.585,175.956,74.566,175.9,74.566Z" transform="translate(-143.766 -61.486)"/><path class="c" d="M207.7,49.156c.111-.019.223-.037.3-.056a.388.388,0,0,1,.111.074A2.872,2.872,0,0,0,207.7,49.156Z" transform="translate(-169.666 -40.751)"/><path class="d" d="M266.561,131.364l-.594-.464c.2.3-.13.408-.26.575a.555.555,0,0,1-.148-.074c0,.056-.019.111-.019.167l-.056.167-.056.111a1.541,1.541,0,0,0-.074.278c-.019,0-.019,0-.037-.019,0-.056.019-.111.019-.2a2.39,2.39,0,0,1-1.447.779,2.178,2.178,0,0,1-.13.371.538.538,0,0,0-.111.464,4.479,4.479,0,0,1,.185.668.564.564,0,0,1-.019.39c-.148.241-.315.482-.464.742a.56.56,0,0,0,.056.649.3.3,0,0,1,.074.315.892.892,0,0,0,.26.686c.13.074.26.111.39.186a.343.343,0,0,0,.353,0,3.454,3.454,0,0,1,.408-.13c.111-.037.223-.056.278-.186.074-.2.167-.408.241-.631.056-.167.074-.334.13-.5.223-.631.445-1.262.649-1.874a1.275,1.275,0,0,0,.093-.445.487.487,0,0,1,.093-.352.3.3,0,0,0,.037-.352.255.255,0,0,1,.019-.334c.074.111.13.186.186.278a.112.112,0,0,0,.074-.019,2.823,2.823,0,0,0,.056-.39,3.08,3.08,0,0,0-.111-.39C266.6,131.624,266.58,131.494,266.561,131.364Z" transform="translate(-214.928 -107.375)"/><path class="e" d="M200.323,138.987a2.029,2.029,0,0,1,1.076-.761,1.376,1.376,0,0,0,.668-.445.492.492,0,0,0,.093-.111,2.264,2.264,0,0,0,.13-.315c-.074-.111-.111-.186-.2-.167a2.861,2.861,0,0,0-.353.148.57.57,0,0,1-.39-.037l-.334.186-.39.074c-.093.019-.167.037-.26.056-.093,0-.186.019-.3.019l-.39.074c-.093,0-.2-.019-.315-.019a2.831,2.831,0,0,1-.2.3l-.353.167c-.223.13-.538.037-.686.278l-.223.167a1.433,1.433,0,0,0-.278.037c-.148.093-.3.186-.445.26-.13.074-.3-.093-.445.241-.019,0-.019.019-.037.019h-.093c-.093-.056-.148-.186-.223-.074-.278.167-.557.334-.835.52-.093-.037-.186.056-.3.26h-.353a.547.547,0,0,1-.056-.074.15.15,0,0,0-.241.148,1.044,1.044,0,0,1,.074.223.487.487,0,0,0-.52.482,1.94,1.94,0,0,1-.315.074l-.445.167a.753.753,0,0,0-.705.445l-.019.019a3.224,3.224,0,0,0-.352.186c-.019-.037-.111-.074-.093-.056.019.074-.186.148-.167.241a2.193,2.193,0,0,1-.52.223,1.7,1.7,0,0,1,.13.241.565.565,0,0,0-.13.093l-.223.111c-.148-.111-.019-.315-.111-.13l-.334.186c-.111.074-.26.148-.353.2-.074.26-.315.056-.408.3a1.235,1.235,0,0,0,.39.668,1.731,1.731,0,0,1,.538.761c.13.3.334.575.482.872a1.211,1.211,0,0,1,.111.445c0,.037-.056.074-.111.093v.074c0,.019-.037.056-.056.074a.018.018,0,0,0,.019.019c.037.167.3.241.167.464-.019.019.019.093.019.111.056-.037.093-.074.13-.074.019,0,.056.056.074.074a.256.256,0,0,0,.074.056.459.459,0,0,1,.167.074c.186.167.278.167.5.056a.63.63,0,0,1,.353-.093.631.631,0,0,0,.482-.111.635.635,0,0,1,.334-.074,5.25,5.25,0,0,1,.538.037c-.037-.037-.074-.074-.13-.019-.13-.111-.074-.2-.093-.315.111-.037.186-.223.315-.111.056-.093.371-.019.167-.2-.464-.315.223-.3-.019-.594a1.1,1.1,0,0,0,.26-.39v-.26c.093-.019.167-.037.13-.26-.074.037-.167.074-.241.111-.39-.167.223-.278-.167-.5a.985.985,0,0,1,.427-.334,4.245,4.245,0,0,0,.575-.3l.13.186c-.111.2-.315,0-.427.148.223.241-.074.278-.037.612.223.445.557.111.742.482-.019.148-.353.13-.186.353-.2.037-.278.3-.148.538.148-.074.371-.037.445-.223a.9.9,0,0,1,.223.019c.019-.037.037-.056.056-.093.056-.093.093-.186.148-.3.019-.019.037-.019.056-.037.019,0,.019-.019.037-.019.13-.13.278-.26.39-.39-.037-.13.111-.111.056-.3-.111-.13-.3.148-.39-.3.019-.148.167-.223.278-.278-.167-.315.315-.241.315-.52.148-.148.3-.278.427-.427a.264.264,0,0,0,.111.037c.148.186.056.445.334.482l.223-.111c.019-.167-.037-.223-.019-.39l.223-.334a.327.327,0,0,0,.093.074c0-.019,0-.019.019-.037a1.1,1.1,0,0,1,.315-.278l-.019-.037a1.394,1.394,0,0,0,.445-.167c0,.019,0,.019.019.037.093-.037.2-.074.3-.111a.4.4,0,0,0,.148-.093c.019-.037.019-.056.037-.093,0-.019-.037-.056-.074-.111.019-.074.056-.2.074-.315a1.125,1.125,0,0,0,0-.352.139.139,0,0,0-.019-.093c-.167-.111-.148-.315-.186-.464a.325.325,0,0,0-.13-.26c-.093-.056-.056-.315.019-.371.019-.019.037-.037.056-.037.019-.056.037-.13.074-.148.13-.093.241-.2.353-.3l.223-.167C200.211,139.061,200.286,139.043,200.323,138.987Zm-4.879,1.058a.8.8,0,0,1,.074.13A1.057,1.057,0,0,0,195.443,140.045Zm1.855-.835a.367.367,0,0,1,.3-.019A1.5,1.5,0,0,0,197.3,139.21Zm.909-.186a1.12,1.12,0,0,0,.334-.167A.52.52,0,0,1,198.208,139.024Z" transform="translate(-155.332 -112.493)"/><path class="f" d="M194.837,93.109a1.962,1.962,0,0,0-.445.278c-.148.074-.315.13-.445.2a1.447,1.447,0,0,0-.408-.056,1.8,1.8,0,0,0-1.243.594l-.019.019a1.731,1.731,0,0,0-.909.427c-.037.019-.056.056-.074.056,0,0-.2.093-.278.13l-.52.148-.13.074a1.674,1.674,0,0,0-.353.074h-.223l-.742.5-.39.074-.167.186-.074.019-.2-.056-.482.519a1.892,1.892,0,0,0-.816.353l-.464.334-.3.148a1.778,1.778,0,0,0-.853.891l-.056.037a1.5,1.5,0,0,0-.946.557,1.447,1.447,0,0,0-.8.371,1.311,1.311,0,0,0-.464.668c-.074.074-.167.148-.26.241-.019,0-.056.019-.074.019l-.167-.278-.111.111-.371.186-.631.111c-.056.2-.093.39-.148.594a4.8,4.8,0,0,0-.148.482c-.037.2-.019.408-.037.612a.927.927,0,0,0,.186.575,5.825,5.825,0,0,1,.52.853,4.5,4.5,0,0,0,.482.816.537.537,0,0,1,.13.445,2.08,2.08,0,0,0,.056.668,2.945,2.945,0,0,0,.13.371c.019.093.019.186.037.278a4.927,4.927,0,0,0,1.039-.557c.186-.111.371-.037.519-.3.093-.074.167.056.223-.037a1.52,1.52,0,0,0,.167-.148l.3-.26.074-.26c.019-.037.056-.056.093-.093a2.67,2.67,0,0,0,.5-.631c.019-.019.056-.037.074-.074.056-.056.13-.111.167-.148l.612-.148.2-.557.111-.056a2.784,2.784,0,0,0,1.243-.928,1.93,1.93,0,0,0,.575-.445,3.245,3.245,0,0,0,.965-.575c.111-.074.26-.186.334-.241h.464l.278-.3a1.08,1.08,0,0,0,.278-.2c.056-.019.093-.037.148-.056l.334-.056a1.432,1.432,0,0,1,.278-.037l.3-.037.334-.2a1.443,1.443,0,0,0,.742-.39,1.64,1.64,0,0,0,.761-.538h.019a1.419,1.419,0,0,0,.742-.2l.186-.056a.6.6,0,0,1-.148-.26,2.572,2.572,0,0,1-.111-.353c-.019-.111-.019-.223-.037-.334,0-.056.037-.13,0-.167-.093-.111-.056-.186.019-.278s.074-.13-.037-.2c-.3-.2-.3-.3-.186-.631a7.115,7.115,0,0,1,.334-.649c.093-.2.167-.427.26-.649.019-.037.056-.093.093-.093a1.425,1.425,0,0,0,.612-.482c.3-.334.538-.686.835-1a3.917,3.917,0,0,1,.427-.353,2.972,2.972,0,0,1,.111-.557Z" transform="translate(-147.991 -75.855)"/><path class="g" d="M191.655,64.8a.341.341,0,0,0-.3.037c-.519.26-.668.111-.891-.186-.111-.148-.223-.278-.427-.26a1.094,1.094,0,0,1,.148-.074,1.348,1.348,0,0,0,.167-.148.444.444,0,0,0-.167-.037,1.1,1.1,0,0,1,.148-.074.706.706,0,0,0-.167-.241c-.093-.093-.2-.148-.3-.241a1,1,0,0,1-.167-.223l-.148-.148a5.144,5.144,0,0,0-.482.186c-.26.056-.5.13-.761.186-.167.056-.353.093-.52.148l-.557.111-.742.223c-.186.019-.371.056-.557.093-.148.13-.334.278-.5.427l-.705.334c-.464.241-.965.241-1.336.594-.148.093-.315.2-.464.3-.167.056-.334.111-.52.167-.3.167-.594.334-.872.519-.26.148-.482.019-.872.482-.019.019-.037.019-.074.037a.689.689,0,0,0-.167.037c-.13-.037-.186-.167-.353-.019-.557.334-1.095.686-1.633,1.02-.148-.019-.315.148-.612.482-.2.056-.39.111-.594.167a.545.545,0,0,1-.056-.074c-.13-.074-.464.13-.464.3a.92.92,0,0,1,.056.241,1.53,1.53,0,0,0-1.058.872c-.186.093-.167-.315-.353-.241-.278.148-.352-.093-.612.056-.074.037-.779.353-.853.371a6.8,6.8,0,0,0,.872,1.28,4.922,4.922,0,0,1,.612.779.908.908,0,0,1,.056.13,3.123,3.123,0,0,0,.111.445,1.882,1.882,0,0,0,.167.241c.056.13.111.241.167.371.3-.186.612-.371.909-.594l.111.186c-.26.315-.52.167-.779.427.167.13.037.26-.111.427,0,.037-.037.074-.074.111a.018.018,0,0,1-.019.019c.019.074.019.148-.056.186l.111.278c.278.074.724-.223.853.093-.093.223-.649.353-.482.575l-.111.056v.111a.72.72,0,0,1-.111.353l-.056.167a1.59,1.59,0,0,0,.631-.427c.13-.037.241-.056.371-.093a1.349,1.349,0,0,0,.148-.167c.13-.167.26-.315.371-.482a.786.786,0,0,0,.13-.093c.019-.019.037-.019.056-.037.278-.241.612-.5.835-.705-.019-.167.241-.223.241-.427-.13-.13-.557.352-.538-.186a1.9,1.9,0,0,1,.612-.519c-.13-.334.668-.482.779-.816.3-.26.612-.519.909-.779h.167c.167.167-.093.557.353.482.148-.093.278-.167.427-.26.093-.223.019-.26.148-.5.186-.167.352-.353.538-.519.111.074.26.037.26.167a3.8,3.8,0,0,0,.445-.093l.742-.408c.019-.278-.334.019-.482,0a1.2,1.2,0,0,1-.148-.167,3.5,3.5,0,0,0,.835-.408c0,.464.668-.167,1-.26a1.657,1.657,0,0,0,.167-.3c.223.074.594-.223.761-.26.111-.037.223-.074.353-.111.13-.056.26-.13.39-.186.167-.093.334-.2.5-.3a.775.775,0,0,0,.427-.3l.371-.056a.958.958,0,0,1,.2-.037,1.128,1.128,0,0,1,.186-.13c.111-.019.241-.037.371-.056a.268.268,0,0,1,.037.13c.223.167.464-.26.761-.2,0-.111.019-.241.019-.352.223-.111.557-.13.612-.427.056-.019.093-.037.148-.056a.664.664,0,0,0,.575-.334,3.227,3.227,0,0,0,.223-.26c.13-.13.3-.241.278-.334a1.058,1.058,0,0,0,.019-.241l.13-.13a1.254,1.254,0,0,0,.705-.5C191.952,64.777,191.822,64.87,191.655,64.8Zm-13.581,3.766a.388.388,0,0,0,.074.111A1.1,1.1,0,0,1,178.074,68.562Z" transform="translate(-142.137 -52.235)"/><path class="h" d="M165.846,22.864a.264.264,0,0,1-.037-.111l-.056-.612a1.058,1.058,0,0,0-.019-.241.268.268,0,0,1-.037-.13.547.547,0,0,1-.093-.241.6.6,0,0,0-.3-.26c-.019,0-.056-.037-.074-.056l-.037-.019c-.019-.019-.037-.019-.056-.037s-.037-.037-.037-.019a.344.344,0,0,1-.037-.13h0c-.019-.019-.037-.037-.037-.056a2.87,2.87,0,0,1-.111-.427h.056c-.056-.056-.111-.093-.13-.148-.093-.167-.186-.353-.26-.519s-.167-.334-.241-.5v-.019c-.074-.13-.148-.278-.223-.408a2.574,2.574,0,0,0-.334-.575,2.391,2.391,0,0,1-.352-.594.577.577,0,0,1,.074-.111c.093.13.2.278.3.427a.057.057,0,0,0,.019.037c.037.315.3.427.538.612a3,3,0,0,0,.278-.909,1.335,1.335,0,0,0-.074-.353c0-.019,0-.019-.019-.037a1.135,1.135,0,0,1-.093-.223h0c-.019-.056-.056-.111-.074-.167l-.167.019c-.056,0-.111.019-.148.019a.639.639,0,0,1-.167.019.659.659,0,0,0-.278.019c-.111.019-.13.019-.13,0l-.13-.093H163.3l-.019.019V17.02c-.019,0-.019-.019-.037-.019l-.185-.037c-.056-.019-.111-.019-.186-.037a.314.314,0,0,0-.278.037h-.148c0,.019-.019.019-.019.037-.037.056-.167.074-.26.093l-.037.037a.068.068,0,0,0-.056.019l-.093.019-.037.019a3.227,3.227,0,0,1-.334.2,3.138,3.138,0,0,0-1,.816,1.051,1.051,0,0,1-.427.223.908.908,0,0,0-.612.408c-.334.2-.668.427-.983.631-.167.111-.334.2-.5.3-.13.074-.241.148-.371.223a.788.788,0,0,1-.334.148,1.121,1.121,0,0,0-.5.2l-.056.037-.019.074c0,.019-.019.019-.037.037a.522.522,0,0,0-.148.353c-.019,0-.019.019-.037.019a.609.609,0,0,0-.427.427c-.612.464-1.187.909-1.744,1.336a1.368,1.368,0,0,0-.928.575c-.093.111-.2.223-.3.315l-.334.26c-.241.186-.482.39-.705.575l-.557.353A2.509,2.509,0,0,0,150.5,26l-.278.278-.853.742c-.223.241-.464.482-.705.705l-.037.056a1.7,1.7,0,0,1-.186.241,1.247,1.247,0,0,0-.353.575c-.148.186-.3.353-.427.519-.167.167-.315.315-.464.482.019-.019.056-.019.074-.037.13-.056.26-.074.371-.13a.98.98,0,0,1,.594-.186.2.2,0,0,0,.111-.037c.074-.186.26-.186.408-.2.278-.037.575-.056.853-.074a.663.663,0,0,1,.742.39c.056.111.093.2.148.315a.39.39,0,0,0,.482.3l.853-.111c.037,0,.074-.056.093-.056.074.037.148.056.241.093.056.2.13.278.334.26a.2.2,0,0,0,.037.148c.2.167.093.371.093.557a.868.868,0,0,1-.167.519c-.037.037-.074.093.019.148.037.019.037.093.037.148l.056.037c.186-.186.353-.334.5-.464l.13-.111-.074-.167-.056-.111h0l.557-.705a1.535,1.535,0,0,0,.872-.761.84.84,0,0,1,.39-.223l.13.148.167-.148a3.314,3.314,0,0,0,.575-.668,2.891,2.891,0,0,1,.3-.371.836.836,0,0,0,.111.167c.241.167.612-.056.872-.334l.056-.074v-.334c.223-.186.315-.167.427-.148a.65.65,0,0,0,.371-.019,2.158,2.158,0,0,0,.946-.8,2.356,2.356,0,0,1,.186-.223.741.741,0,0,0,.353-.037c.056-.019.111-.019.186-.037a2.225,2.225,0,0,0,.983-.445,4.371,4.371,0,0,1,.742-.408l.093-.037.037-.093a.608.608,0,0,1,.5-.39,1.533,1.533,0,0,0,.872-.519c.019-.019.037-.019.056-.037a.683.683,0,0,1-.315.278l-.315.186.186.13c-.037.019-.056.037-.093.056a1.064,1.064,0,0,0-.371.39c-.037.093-.074.2-.111.315-.111.13-.2.241-.315.371l-.037.037-.019.056a2.138,2.138,0,0,1-.148.278c-.148.241-.315.482-.2.705a.477.477,0,0,0,.408.223h.074l.074-.056c.148-.093.3-.2.445-.3l.223-.148.019-.093c.019-.056.019-.111.037-.167.019-.093.037-.167.056-.26V26c.111-.037.241-.093.427-.148l.3-.186-.13-.223c.167-.148.353-.3.52-.445a4.293,4.293,0,0,0,1.243-1.317A2.871,2.871,0,0,0,165.846,22.864Z" transform="translate(-120.391 -14.534)"/><path class="i" d="M140.5,7.96a2.108,2.108,0,0,0-1.132-.371c-.26,0-.39-.148-.427-.408a.171.171,0,0,0-.186-.167.593.593,0,0,1-.26-.056,1.137,1.137,0,0,0-.816-.13.5.5,0,0,1-.278-.056,1.406,1.406,0,0,0-.3-.111c-.2,0-.223-.148-.278-.278-.037-.093-.074-.111-.13-.056-.13.111-.2.093-.3-.037s.019-.186.111-.223a.871.871,0,0,0,.167-.111h0l-.408-.557-.5.909-.334.241-.037.037c-.186.186-.353.371-.52.557-.148.148-.3.3-.445.464l-.3.334c-.056.056-.093.111-.148.167-.111.111-.223.241-.334.371l-.8.928-.278.3a1.667,1.667,0,0,0-.5.779l-.482.649.093.26c0,.019-.019.037-.019.056l-.167.334.223.3a.1.1,0,0,1,.037.074,1.052,1.052,0,0,0,.148.241l.26.39a.9.9,0,0,0-.13.334l-.056.074-.464.705-.148.241c-.519.037-.705.538-.835.872-.019.074-.056.13-.074.2l-.093.241a1.324,1.324,0,0,0-.52.668c-.037.093-.093.2-.13.278l-.241.371c-.074.074-.13.167-.2.241a1.966,1.966,0,0,1-.167.2l-.037.037-.037.056c-.056.093-.111.167-.167.26a1.7,1.7,0,0,0-.315.334c0,.019-.019.019-.019.037l-.093.056-.074.13c-.13.241-.241.464-.353.686l-.223.241-.037.148-.019.037a.627.627,0,0,1-.148.186l-.037.056-.037.056a.994.994,0,0,0-.093.2l-.074.037-.148.482h0a1.7,1.7,0,0,0,.315.167.628.628,0,0,0,.649,0,2.605,2.605,0,0,1,.761-.241,1.326,1.326,0,0,1,.371-.037,2.507,2.507,0,0,1,1.113.167c.093-.13.186-.26.26-.39h-.148l.649-.668.223-.408c.186-.13.464-.315.5-.538V18.22a1.368,1.368,0,0,0,.464-.835l.037-.13h0a1.157,1.157,0,0,0,.2-.315h.019a1.049,1.049,0,0,0,.5-.482.065.065,0,0,1,.019-.037l.742-.983h-.13a1.038,1.038,0,0,0,.315-.686v-.037a.018.018,0,0,1,.019-.019.256.256,0,0,0,.056-.074.4.4,0,0,1,.074-.093l.148-.019.167-.186a.878.878,0,0,0,.278-.594.821.821,0,0,0,.241-.445l.019-.056v-.093c.037,0,.074.019.13.019a.978.978,0,0,0,.8-.575c.019-.019.037-.056.056-.074l.093-.056.093-.167a1.5,1.5,0,0,1,.3-.315,2.026,2.026,0,0,0,.686-.983l.13-.074.037-.037a1.624,1.624,0,0,0,.353-.39l.167-.223a1.2,1.2,0,0,0,.464-.5l.037-.074h.111a1.17,1.17,0,0,0,.835-.594l.056.019.278-.2a1.076,1.076,0,0,0,.334-.427.224.224,0,0,0,.093-.093l.445-.408A.092.092,0,0,1,140.5,7.96Z" transform="translate(-104.101 -5.159)"/><path class="d" d="M116.267,4.1a.931.931,0,0,0-.223.037c-.186.037-.39-.019-.557.111h-.056c-.408.037-.853,0-1.15.353,0,.019-.037.037-.056.037-.13-.093-.241.056-.371.037a.209.209,0,0,0-.148.093.668.668,0,0,1-.816.13c-.334-.037-.631.111-.928-.019a1.4,1.4,0,0,1-.3-.278c-.241-.037-.278.167-.334.334a1.108,1.108,0,0,1-.835.8.65.65,0,0,0-.315.167,1.949,1.949,0,0,0-.037.241c-.056.074-.093.148-.148.223-.019.056-.093.26-.111.315a2.721,2.721,0,0,1-.186.241.228.228,0,0,1-.037.241l-.019.019c.074.093.037.186-.019.278a1.567,1.567,0,0,1-.278.334c-.13.111-.278.186-.39.3a1,1,0,0,1-.649.3.167.167,0,0,0-.093.019c-.074.093-.167.2-.241.315-.037.056-.093.111-.13.167a.424.424,0,0,1-.13.186c-.167.223-.315.427-.482.631-.019.019-.019.037-.037.056a.8.8,0,0,1-.019.093.7.7,0,0,1-.13.223c-.093.13-.223.241-.315.353-.2.223-.186.594-.482.779-.037.019-.056.093-.074.13-.019.074-.019.148-.037.223h.019a.313.313,0,0,0,.037-.093c.093.074.167.148.26.223.093.093.13.334.056.39l-.019.019c.037.111.037.223-.019.26l-.019.019a.892.892,0,0,1,.13.742,1.808,1.808,0,0,1-.093.519,1.054,1.054,0,0,0-.13.408.733.733,0,0,1-.26.575,2,2,0,0,1,.223.482.3.3,0,0,0-.056.148c.019.037.019.074.037.111-.019.037-.037.093-.056.13a.274.274,0,0,0,.2.3v.037c.019.13.13.13.223.13.056,0,.093-.019.148-.019a.783.783,0,0,0,.056.223.977.977,0,0,0,.223.26c.037.019.111-.019.148.056a1.734,1.734,0,0,0,.3.334.8.8,0,0,1,.39.575c0,.26.2.371.241.575a.23.23,0,0,1-.056.037c.148.056.3.111.408.167a3.277,3.277,0,0,1,.315.223c.13.093.278.186.427.278a1.943,1.943,0,0,1,.2.148c.111.111.223.2.353.315.037-.093-.13-.278-.093-.519a5.486,5.486,0,0,0,.371-1.41,3.225,3.225,0,0,0,.334-1.187c.093-.631-.241-1.3.019-1.948.148-.371.538-.724.705-1.076.093-.167-.056-.334.037-.5s.427-.315.538-.482c.148-.223.965-1.225,1.243-1.058.223.13,1-1.466.872-1.67a2.667,2.667,0,0,1,.334-1.354c.148-.186.148-.464.241-.686.093-.241.2-.464.315-.705.2-.315.5-.538.742-.872.056-.111.13-.2.186-.315.056-.093.111-.2.167-.3.111-.2.186-.39.278-.575A3.854,3.854,0,0,1,116.267,4.1Z" transform="translate(-86.916 -4.1)"/><path class="e" d="M10.8,114.6c.019-.019.019-.056.019-.13s0-.111-.019-.13a.144.144,0,0,0-.019-.056c-.019-.019-.019-.037-.037-.056a1.107,1.107,0,0,1-.13-.334,1.8,1.8,0,0,1-.019-.334.14.14,0,0,0-.074.019c-.037,0-.056,0-.056-.037V113.4a.185.185,0,0,0-.019-.074c-.019-.037-.019-.056-.037-.074v-.074c0-.037-.019-.074-.019-.111s-.019-.074-.019-.111v-.074a.333.333,0,0,0-.093-.13.333.333,0,0,1-.093-.13,1.9,1.9,0,0,0-.074-.26c-.037-.093-.056-.186-.093-.3-.037-.093-.056-.186-.093-.278s-.074-.167-.111-.241c0-.019-.019-.037-.056-.037H9.683a3.821,3.821,0,0,1-.946.056,5.382,5.382,0,0,0-.965.037.6.6,0,0,0-.148.019c-.074.019-.148.019-.241.037s-.167.019-.241.037a.6.6,0,0,1-.148.019c-.037,0-.093.019-.167.019-.093,0-.186.019-.3.019a1.5,1.5,0,0,0-.3.019,1.025,1.025,0,0,0-.167.019c-.074.019-.148.037-.241.056a.536.536,0,0,0-.186.111,2.427,2.427,0,0,0-.13.241c-.056.111-.093.223-.148.334a2.478,2.478,0,0,0-.13.334,1.075,1.075,0,0,0-.074.241c-.037.148-.093.315-.148.482a1.706,1.706,0,0,0-.13.482v.148c-.019.019-.019.037-.037.074a.14.14,0,0,0-.019.074v.111a.729.729,0,0,1-.39.241,1.757,1.757,0,0,1-.482.074.916.916,0,0,1-.278-.056,1.6,1.6,0,0,1-.315-.13,1.832,1.832,0,0,1-.278-.167.9.9,0,0,1-.186-.148v-.037L2.8,113.9v-.074c.037-.13.074-.278.13-.445s.111-.353.167-.519c.056-.186.111-.353.167-.52a2.591,2.591,0,0,0,.111-.445.326.326,0,0,1,.019-.111.185.185,0,0,0,.019-.074c0-.019.037-.019.056-.037a.081.081,0,0,0,.056-.019c-.037,0-.037-.019-.056-.037v-.056c0-.056.019-.093.037-.093.037,0,.056,0,.074-.019a.224.224,0,0,0,.074-.223A.319.319,0,0,1,3.691,111l.056-.056c.037-.037.056-.037.056-.056s.019-.037.037-.093a.248.248,0,0,0,.019-.093c-.037,0-.056-.019-.056-.037,0-.037.037-.074.093-.111a.267.267,0,0,0,.13-.111,3.925,3.925,0,0,0,.2-.538,3.3,3.3,0,0,1,.223-.538l.093-.093.093-.093v-.111q-.028-.083,0-.111a.572.572,0,0,1,.13-.26,2.1,2.1,0,0,0,.186-.241.96.96,0,0,0,.13-.3.5.5,0,0,1,.148-.3.23.23,0,0,1,.056-.037.23.23,0,0,0,.056-.037,3.283,3.283,0,0,0,.3-.408c.074-.148.167-.278.241-.408a.712.712,0,0,1,.2-.2.242.242,0,0,0,.13-.223l-.037-.037-.037-.037a.408.408,0,0,1,.111-.223,1.908,1.908,0,0,1,.278-.26,3.765,3.765,0,0,1,.334-.241,2.7,2.7,0,0,1,.3-.167.918.918,0,0,1,.241-.074c.093-.019.167-.019.241-.037a2.092,2.092,0,0,1,.26-.037,1.3,1.3,0,0,0,.241-.037h.093a1.443,1.443,0,0,1,.3.037,2.869,2.869,0,0,0,.278.074.94.94,0,0,0,.241.037c.093.019.167.037.241.056a1.891,1.891,0,0,1,.278.148,1.965,1.965,0,0,1,.223.186c.093.074.186.167.278.241a1.718,1.718,0,0,1,.26.26,1.838,1.838,0,0,1,.2.315c.074.13.13.241.167.315.019.019.019.056.056.13a1.135,1.135,0,0,0,.093.223,2.177,2.177,0,0,0,.093.2.286.286,0,0,0,.056.13c0,.019.037.056.056.111a.287.287,0,0,1,.056.111c.019.056.037.111.074.2s.056.167.093.26a1.723,1.723,0,0,1,.074.241c.019.074.037.111.037.13s.019.074.037.167.056.186.074.278a1.545,1.545,0,0,1,.074.278c.019.093.037.13.037.148a.327.327,0,0,0,.019.111c.019.056.019.093.037.111a.2.2,0,0,0,.019.093.9.9,0,0,1,.056.13l.056.111a.144.144,0,0,1,.019.056v.148a.287.287,0,0,0,.056.111,1.924,1.924,0,0,1,.074.186.775.775,0,0,1,.074.186.3.3,0,0,0,.056.111v.037c0,.019-.019.037-.037.056a.04.04,0,0,0-.037.037.1.1,0,0,0,.074.093.541.541,0,0,0,.167.037l-.074.2a.359.359,0,0,1,.093.167l.056.223c.019.074.019.148.037.223s.019.13.037.186a.391.391,0,0,0,.093.241.575.575,0,0,1,.111.241c.056.167.093.352.13.5.037.167.093.334.13.5,0,.019,0,.037.037.093.019.056.037.093.056.148s.037.093.056.148.037.074.037.093v.111c0,.019-.019.037-.037.056l-.074.074a.492.492,0,0,0-.093.111l-.037.019-.037.019a.108.108,0,0,1-.074.019c-.056,0-.093.019-.148.019a.362.362,0,0,0-.148.019.108.108,0,0,0-.074.019l-.056.037a.816.816,0,0,0-.167.019.816.816,0,0,1-.167.019c-.019,0-.019.019-.056.037-.019.019-.037.037-.056.037h-.093c-.056,0-.093,0-.111-.019a.167.167,0,0,0-.093-.019h-.037a.378.378,0,0,1-.093.019.248.248,0,0,1-.093.019c-.019,0-.019-.019-.019-.037.019-.019,0-.037-.019-.056a.17.17,0,0,1-.093-.056.17.17,0,0,0-.093-.056h-.111a.8.8,0,0,0-.093-.019C10.833,114.6,10.815,114.6,10.8,114.6Zm-2.635-7.458a2.173,2.173,0,0,0-.278.3c-.093.13-.167.26-.26.408s-.167.278-.241.408-.13.241-.186.334c-.13.223-.26.427-.408.649a4.4,4.4,0,0,0-.353.649l-.111.223a.494.494,0,0,0-.056.223h.111c.056,0,.093,0,.111-.019a2.124,2.124,0,0,0,.278-.019c.148-.019.3-.019.464-.037s.334-.019.482-.037a2.124,2.124,0,0,1,.278-.019,1.571,1.571,0,0,0,.241-.019c.13-.019.26-.037.408-.056a3.4,3.4,0,0,1,.39-.037,1.633,1.633,0,0,1,.26-.019.313.313,0,0,1,.186-.056.2.2,0,0,1-.093-.074c-.019-.037-.019-.056-.037-.093,0-.037-.019-.056-.019-.093a.389.389,0,0,0-.074-.111H9.238a.018.018,0,0,1-.019.019v-.074l.037-.019.037-.019v-.074c-.019,0-.019-.019-.037-.037a.057.057,0,0,1-.019-.037c-.019-.019-.019-.056-.037-.111a.73.73,0,0,1-.037-.111v.148c-.019-.019-.019-.037-.037-.074s-.037-.056-.037-.074v-.037l.056-.037.019-.019a.018.018,0,0,0-.019-.019c0-.019-.019-.037-.056-.074s-.056-.056-.056-.074c-.019-.019-.019-.037,0-.093v-.093c-.019,0-.019-.019-.037-.037l-.037-.037-.056-.037v-.223l-.093-.186c-.037-.056-.056-.093-.093-.148s-.056-.074-.056-.093a.628.628,0,0,1-.056-.148,45857.879,45857.879,0,0,0-.074-.408c-.019-.056-.019-.093-.037-.111-.019-.037-.056-.074-.093-.13a.2.2,0,0,0-.167-.093H8.2C8.18,107.144,8.162,107.144,8.162,107.144Z" transform="translate(-2.781 -86.606)"/><path class="e" d="M57.995,112.376v-.167c0-.074.019-.148.019-.241v-.519c0-.037-.019-.056-.019-.074a.068.068,0,0,1-.019-.056.8.8,0,0,1,.019-.093.1.1,0,0,0-.056-.074,2.261,2.261,0,0,0,0-.5,2.1,2.1,0,0,1,0-.482.142.142,0,0,1,.037-.093c.019-.037.037-.056.037-.093l.019-.019-.037-.019a.018.018,0,0,1-.019-.019v-.019a.111.111,0,0,1,.019-.074.112.112,0,0,0,.019-.074.068.068,0,0,1,.019-.056c-.019-.315-.037-.631-.037-.965,0-.315,0-.649.019-.965v-.13c0-.056.019-.111.019-.148,0-.056.019-.111.019-.186a.183.183,0,0,1,.037-.111.73.73,0,0,0,.037-.111,2.491,2.491,0,0,0,.019-.39.766.766,0,0,1,.074-.408.112.112,0,0,1-.111-.056c-.019-.037-.037-.056-.037-.093a.1.1,0,0,1,.056-.074.388.388,0,0,1,.111-.074.4.4,0,0,0,.093-.074c.037-.019.037-.037.037-.056a.23.23,0,0,0-.056-.037c-.037-.019-.056-.019-.056-.037v-.037c.019-.019.037-.056.074-.093a.549.549,0,0,1,.056-.074.3.3,0,0,1,.13-.074.542.542,0,0,1,.167-.037.631.631,0,0,1,.186-.019.3.3,0,0,0,.167-.056l.612.037a.142.142,0,0,1,.093.037,1.179,1.179,0,0,1,.575.464,1.1,1.1,0,0,1,.111.631v.167a.144.144,0,0,1-.019.056c-.019.037-.037.056-.037.093-.019.037-.037.056-.037.093-.019.037-.019.037-.019.056v.2c0,.056-.019.093-.019.148a.409.409,0,0,0-.019.148v.093a1.064,1.064,0,0,0-.019.223c0,.056-.019.111-.019.167v1.02c0,.148-.019.334-.019.519s-.019.353-.019.52v.557a1.248,1.248,0,0,1,.019.334v1.447a.326.326,0,0,1-.019.111q-.028.083,0,.111a.593.593,0,0,0,.019.13,1.432,1.432,0,0,1,.037.278,1.849,1.849,0,0,1,.037.3,1.044,1.044,0,0,0,.037.186q.028.028,0,.111c0,.056-.019.093-.019.148s-.019.111-.019.148a.326.326,0,0,0-.019.111c-.019.111-.019.2-.037.26a.7.7,0,0,1-.167.241c0,.019-.019.037-.056.037a.14.14,0,0,0-.074.019c-.037.019-.093.019-.13.037a1.182,1.182,0,0,0-.13.037.185.185,0,0,1-.074.019c-.093.019-.167.056-.241.074a1.123,1.123,0,0,1-.278.037h-.223c-.019,0-.037-.019-.074-.056s-.056-.056-.074-.056c-.019-.019-.056-.019-.111-.037s-.093-.019-.093-.037c-.019,0-.019-.019-.037-.056s-.019-.074-.037-.111a1.182,1.182,0,0,1-.037-.167h-.111c-.074-.019-.111-.037-.13-.093s-.037-.093-.056-.148a1.674,1.674,0,0,1-.074-.353,3.006,3.006,0,0,1-.019-.408v-.761Z" transform="translate(-47.679 -86.606)"/><path class="e" d="M75.079,114.469c-.019,0-.037-.019-.074-.037a1.278,1.278,0,0,0-.148-.056,1.278,1.278,0,0,1-.148-.056c-.056-.019-.074-.019-.093-.037a.169.169,0,0,1-.093-.056.321.321,0,0,0-.074-.056c-.019-.019-.037-.019-.111-.037-.056-.019-.093-.019-.111-.037-.019,0-.019-.019,0-.037v-.037l-.056-.037a.068.068,0,0,1-.056-.019.144.144,0,0,0-.056-.019.2.2,0,0,1-.056-.093c-.037-.056-.037-.074-.037-.093a.256.256,0,0,1-.056-.074.256.256,0,0,0-.056-.074c-.019,0-.037-.019-.056-.037a.229.229,0,0,1-.056-.037v-.186c0-.019-.019-.037-.074-.074a.508.508,0,0,1-.093-.074c-.019-.019-.019-.037,0-.074v-.074c-.019,0-.037-.019-.056-.019a.081.081,0,0,1-.056-.019v-.037h.056a.247.247,0,0,0-.056-.148.247.247,0,0,1-.056-.148.415.415,0,0,1,.186.056v-.037c-.019,0-.019-.037-.037-.074a.14.14,0,0,1-.019-.074.326.326,0,0,0-.019-.111c-.019-.074-.019-.111-.037-.13v0a.065.065,0,0,0,.037.019.018.018,0,0,1,.019.019c0,.019.037.056.111.13a1.11,1.11,0,0,0,.111.13.139.139,0,0,1,.056.056c.037.019.056.056.093.074s.056.056.093.074.037.037.037.056c.019,0,.019.019.037.037s.019.019.019.037v-.223a.065.065,0,0,0,.037.019.018.018,0,0,1,.019.019.3.3,0,0,1,.056.111.3.3,0,0,0,.056.111c.019,0,.019.019.037.019h.037a.151.151,0,0,0,.148-.074.193.193,0,0,0,.148.111v-.148h0v.074c0,.019.019.037.074.056a1.272,1.272,0,0,0,.148.056c.074.037.111.037.111.056h.167c.019,0,.056.037.111.074a1.1,1.1,0,0,1,.111.074.248.248,0,0,0,.093-.019.362.362,0,0,1,.13-.019c.019,0,.074-.019.148-.037.093-.019.148-.037.167-.037a.057.057,0,0,0,.037-.019l.056-.019h.26a.068.068,0,0,0,.056-.019.068.068,0,0,1,.056-.019,1.1,1.1,0,0,1,.111-.074c.056-.037.093-.056.093-.074a5.987,5.987,0,0,1,.631-.278,2.305,2.305,0,0,0,.575-.334.6.6,0,0,0,.074-.13l.111-.223a1.956,1.956,0,0,1,.13-.2c.037-.056.074-.093.111-.093h.037c.019,0,.019-.037.037-.093s.019-.093.037-.093c.037,0,.037-.019.056-.056v-.093l-.223-.111c-.074-.019-.148-.037-.241-.056s-.167-.019-.26-.037-.167-.037-.26-.056c-.5-.019-.983-.056-1.429-.111s-.928-.111-1.41-.186a.279.279,0,0,0-.148-.074,1.187,1.187,0,0,1-.167-.037c-.13-.037-.241-.093-.371-.13-.13-.056-.241-.093-.353-.148s-.223-.111-.315-.167a1.425,1.425,0,0,1-.241-.223.143.143,0,0,0-.019-.056c-.019-.037-.019-.056-.037-.056-.019-.019-.019-.056-.056-.093a.406.406,0,0,0-.056-.093c-.019-.019-.019-.074-.019-.148q.028-.111,0-.111H72.7c-.019-.019-.037-.037-.037-.056-.019-.019-.037-.037-.037-.056s-.019-.037-.019-.056a.791.791,0,0,1-.111-.334v-.334a.435.435,0,0,1,.037-.2,1.287,1.287,0,0,1,.093-.241c.037-.093.074-.167.111-.241a.726.726,0,0,1,.148-.186.967.967,0,0,0,.093-.056.549.549,0,0,0,.074-.056q.028,0,0-.056v-.056l.111-.111a1.672,1.672,0,0,1,.186-.167,1.674,1.674,0,0,0,.186-.167c.056-.056.111-.093.13-.111.037-.037.111-.093.2-.167s.186-.167.3-.26l.334-.278c.111-.093.223-.167.3-.223a.057.057,0,0,1,.019-.037v-.019a.406.406,0,0,1,.093-.056.405.405,0,0,0,.093-.056l.148.074a.167.167,0,0,0,.093-.019.405.405,0,0,0,.093-.074l.074-.074c.019-.019.037-.037.056-.037l.186-.111c0-.019.019-.037.037-.056.037-.019.056-.037.074-.037l.093-.037c.019,0,.019,0,.037-.019,0-.019.019-.019.037-.019a.943.943,0,0,0,.167-.037c.093-.019.13-.019.148-.037h.167a.065.065,0,0,1,.037-.019l.056-.019a.092.092,0,0,1,.056.019.144.144,0,0,0,.056.019h.111v-.019c0-.019,0-.019.019-.037l.037-.037c.019-.019.056-.019.111-.037s.093-.019.111-.037l.093.037h.186c.019,0,.019,0,.037-.019.019,0,.019-.019.037-.037l.037-.037h.2a.229.229,0,0,1,.056-.037c.019-.019.037-.037.056-.037h.13a.7.7,0,0,1,.2.019.761.761,0,0,0,.2.019c.037,0,.056,0,.074-.019a.068.068,0,0,1,.056-.019h.037l.037.019.037.019h.2a.853.853,0,0,1,.186.019.694.694,0,0,0,.148.019.412.412,0,0,1,.2.093,1.8,1.8,0,0,1,.167.13.729.729,0,0,1,.111.037c.056.019.093.019.111.037a.337.337,0,0,1,.186.278,2.065,2.065,0,0,1,.037.315v.186c-.037.037-.056.074-.093.111l-.093.093c-.037.019-.056.056-.074.074l-.037.019c-.019,0-.019.019-.037.019h-.167c-.019,0-.074.019-.167.037s-.148.037-.167.037a.14.14,0,0,1-.074-.019.185.185,0,0,0-.074-.019H78.7c-.093-.019-.148-.037-.223-.056l-.167-.056c-.056-.019-.111-.037-.186-.056a1.062,1.062,0,0,0-.26-.019,2.492,2.492,0,0,0-.39.019,1.657,1.657,0,0,0-.371.111c-.019,0-.037.019-.093.056a.753.753,0,0,0-.167.093,1.633,1.633,0,0,0-.186.111,1.711,1.711,0,0,1-.148.093c-.019,0-.037.019-.056.037-.037.019-.037.037-.037.037a4.075,4.075,0,0,0-.334.26c-.13.093-.241.2-.371.3-.13.111-.241.2-.371.3a2.239,2.239,0,0,0-.3.3c-.019.019-.019.037-.056.074a.256.256,0,0,1-.056.074c-.056.074-.093.13-.13.186s-.074.093-.111.148a.659.659,0,0,0-.074.167.667.667,0,0,0-.037.2v.093a.112.112,0,0,0,.019.074,1.14,1.14,0,0,1,.093.111,1.211,1.211,0,0,0,.13.148c0,.019.019.037.056.037a1.845,1.845,0,0,0,.2.074.989.989,0,0,1,.2.074.932.932,0,0,0,.223.037c.074.019.148.019.223.037a1.389,1.389,0,0,1,.3.074.769.769,0,0,0,.3.056.2.2,0,0,0,.111-.019.139.139,0,0,1,.093-.019c.019,0,.056.019.148.037s.13.037.148.037h.408a.068.068,0,0,1,.056.019.068.068,0,0,0,.056.019h.631c.019,0,.056.019.13.037s.111.037.13.037h.26a.092.092,0,0,1,.056.019.144.144,0,0,0,.056.019.816.816,0,0,1,.167.019.816.816,0,0,0,.167.019c.019,0,.037.019.056.019a.144.144,0,0,0,.056.019,1.2,1.2,0,0,1,.186.056.837.837,0,0,0,.241.056,2.645,2.645,0,0,1,.3.093c.111.056.241.093.353.148a1.762,1.762,0,0,1,.315.186.583.583,0,0,1,.186.186.326.326,0,0,0,.019.111c.019.056.019.093.037.111a.143.143,0,0,0,.019.056c.019.037.019.037.019.056.019.019.019.037.037.074a.14.14,0,0,1,.019.074v.019a.765.765,0,0,1-.074.278l-.167.39c-.074.13-.13.26-.2.39s-.111.2-.148.26a1.547,1.547,0,0,1-.353.427c-.148.13-.3.241-.464.371-.019,0-.037.037-.074.074s-.074.056-.093.074a.405.405,0,0,1-.093.056c-.056.037-.093.056-.148.093s-.093.056-.148.093-.074.037-.093.056a.73.73,0,0,0-.111.037c-.056.019-.093.019-.111.037-.019,0-.037.019-.093.056a.287.287,0,0,1-.111.056h-.111a1.133,1.133,0,0,0-.26.13,1.7,1.7,0,0,1-.26.13.14.14,0,0,0-.074.019.185.185,0,0,1-.074.019,1.186,1.186,0,0,1-.13.037l-.167.056a.573.573,0,0,1-.148.037.248.248,0,0,1-.093.019l-.037.037c-.2.037-.408.056-.631.074s-.427.037-.631.037a1.061,1.061,0,0,1-.26-.019A.546.546,0,0,0,75.079,114.469Z" transform="translate(-59.55 -86.361)"/><path class="e" d="M123.415,114.6a.658.658,0,0,0,.019-.13c0-.074,0-.111-.019-.13a.144.144,0,0,0-.019-.056c-.019-.019-.019-.037-.037-.056a1.107,1.107,0,0,1-.13-.334,1.8,1.8,0,0,1-.019-.334.14.14,0,0,0-.074.019c-.037,0-.056,0-.056-.037V113.4a.185.185,0,0,0-.019-.074c-.019-.037-.019-.056-.037-.074v-.074c0-.037-.019-.074-.019-.111s-.019-.074-.019-.111v-.074a.333.333,0,0,0-.093-.13.333.333,0,0,1-.093-.13,1.905,1.905,0,0,0-.074-.26c-.037-.093-.056-.186-.093-.3-.037-.093-.056-.186-.093-.278s-.074-.167-.111-.241c0-.019-.019-.037-.056-.037h-.037a3.821,3.821,0,0,1-.946.056,5.382,5.382,0,0,0-.965.037.6.6,0,0,0-.148.019c-.074.019-.148.019-.241.037s-.167.019-.241.037a.6.6,0,0,1-.148.019c-.037,0-.093.019-.167.019-.093,0-.186.019-.3.019a1.5,1.5,0,0,0-.3.019,1.025,1.025,0,0,0-.167.019c-.074.019-.148.037-.241.056a.536.536,0,0,0-.186.111,2.431,2.431,0,0,0-.13.241c-.056.111-.093.223-.148.334a2.48,2.48,0,0,0-.13.334,1.076,1.076,0,0,0-.074.241c-.037.148-.093.315-.148.482a1.705,1.705,0,0,0-.13.482v.148c-.019.019-.019.037-.037.074a.14.14,0,0,0-.019.074v.111a.729.729,0,0,1-.39.241,2.368,2.368,0,0,1-.538.037.916.916,0,0,1-.278-.056,1.6,1.6,0,0,1-.315-.13,1.832,1.832,0,0,1-.278-.167.9.9,0,0,1-.186-.148v-.037l-.093-.353h0v-.037c.037-.13.074-.278.13-.445s.111-.353.167-.519c.056-.186.111-.353.167-.52a2.591,2.591,0,0,0,.111-.445.326.326,0,0,1,.019-.111.185.185,0,0,0,.019-.074c0-.019.037-.019.056-.037a.081.081,0,0,0,.056-.019c-.037,0-.037-.019-.056-.037v-.056c0-.056.019-.093.037-.093.037,0,.056,0,.074-.019a.224.224,0,0,0,.074-.223.319.319,0,0,1,.037-.223l.056-.056c.037-.037.056-.037.056-.056s.019-.037.037-.093a.248.248,0,0,0,.019-.093c-.037,0-.056-.019-.056-.037,0-.037.037-.074.093-.111a.267.267,0,0,0,.13-.111,3.925,3.925,0,0,0,.2-.538,3.3,3.3,0,0,1,.223-.538l.093-.093.093-.093v-.111q-.028-.083,0-.111a.572.572,0,0,1,.13-.26,2.1,2.1,0,0,0,.186-.241.96.96,0,0,0,.13-.3.5.5,0,0,1,.148-.3.23.23,0,0,1,.056-.037.23.23,0,0,0,.056-.037,3.283,3.283,0,0,0,.3-.408c.074-.148.167-.278.241-.408a.712.712,0,0,1,.2-.2.242.242,0,0,0,.13-.223l-.037-.037-.037-.037a.408.408,0,0,1,.111-.223,1.908,1.908,0,0,1,.278-.26,3.767,3.767,0,0,1,.334-.241,2.7,2.7,0,0,1,.3-.167.918.918,0,0,1,.241-.074c.093-.019.167-.019.241-.037a2.093,2.093,0,0,1,.26-.037,1.3,1.3,0,0,0,.241-.037h.093a1.443,1.443,0,0,1,.3.037,2.868,2.868,0,0,0,.278.074.94.94,0,0,0,.241.037c.093.019.167.037.241.056a1.89,1.89,0,0,1,.278.148,1.965,1.965,0,0,1,.223.186c.093.074.186.167.278.241a1.718,1.718,0,0,1,.26.26,1.838,1.838,0,0,1,.2.315c.074.13.13.241.167.315a.483.483,0,0,0,.056.13,1.135,1.135,0,0,0,.093.223,2.172,2.172,0,0,0,.093.2.286.286,0,0,0,.056.13.3.3,0,0,1,.056.111.287.287,0,0,1,.056.111c.019.056.037.111.074.2s.056.167.093.26a1.724,1.724,0,0,1,.074.241c.019.074.037.111.037.13s.019.074.037.167.056.186.074.278a1.545,1.545,0,0,1,.074.278c.019.093.037.13.037.148a.327.327,0,0,0,.019.111c.019.056.019.093.037.111a.2.2,0,0,0,.019.093.9.9,0,0,1,.056.13l.056.111a.144.144,0,0,1,.019.056v.148a.287.287,0,0,0,.056.111,1.913,1.913,0,0,1,.074.186.773.773,0,0,1,.074.186.3.3,0,0,0,.056.111v.037c0,.019-.019.037-.037.056a.04.04,0,0,0-.037.037.1.1,0,0,0,.074.093.541.541,0,0,0,.167.037l-.074.2a.359.359,0,0,1,.093.167l.056.223c.019.074.019.148.037.223s.019.13.037.186a.391.391,0,0,0,.093.241.575.575,0,0,1,.111.241c.056.167.093.352.13.5.037.167.093.334.13.5,0,.019,0,.037.037.093.019.056.037.093.056.148s.037.093.056.148.037.074.037.093v.111c0,.019-.019.037-.037.056l-.074.074a.492.492,0,0,0-.093.111l-.037.019-.037.019a.108.108,0,0,1-.074.019c-.056,0-.093.019-.148.019a.362.362,0,0,0-.148.019.108.108,0,0,0-.074.019l-.056.037a.816.816,0,0,0-.167.019.816.816,0,0,1-.167.019c-.019,0-.019.019-.056.037-.019.019-.037.037-.056.037h-.093c-.056,0-.093,0-.111-.019a.139.139,0,0,0-.093-.019h-.074a.377.377,0,0,1-.093.019.248.248,0,0,1-.093.019c-.019,0-.019-.019-.019-.037a.068.068,0,0,0-.019-.056.169.169,0,0,1-.093-.056.17.17,0,0,0-.093-.056h-.093a.8.8,0,0,0-.093-.019C123.452,114.6,123.433,114.6,123.415,114.6Zm-2.635-7.458a2.173,2.173,0,0,0-.278.3c-.093.13-.167.26-.26.408s-.167.278-.241.408-.13.241-.186.334c-.13.223-.26.427-.408.649a4.4,4.4,0,0,0-.353.649l-.111.223a.494.494,0,0,0-.056.223H119c.056,0,.093,0,.111-.019a2.124,2.124,0,0,0,.278-.019c.148-.019.3-.019.464-.037s.334-.019.482-.037a2.124,2.124,0,0,1,.278-.019,1.57,1.57,0,0,0,.241-.019c.13-.019.26-.037.408-.056a3.4,3.4,0,0,1,.39-.037,1.633,1.633,0,0,1,.26-.019.313.313,0,0,1,.186-.056.2.2,0,0,1-.093-.074c-.019-.037-.019-.056-.037-.093,0-.037-.019-.056-.019-.093a.388.388,0,0,0-.074-.111h-.019a.018.018,0,0,1-.019.019v-.074l.037-.019.037-.019v-.074c-.019,0-.019-.019-.037-.037a.057.057,0,0,1-.019-.037c-.019-.019-.019-.056-.037-.111a.729.729,0,0,1-.037-.111v.148c-.019-.019-.019-.037-.037-.074s-.037-.056-.037-.074v-.037l.056-.037.019-.019a.018.018,0,0,0-.019-.019c0-.019-.019-.037-.056-.074s-.056-.056-.056-.074c-.019-.019-.019-.037,0-.093v-.093c-.019,0-.019-.019-.037-.037l-.037-.037-.056-.037v-.223l-.093-.186c-.037-.056-.056-.093-.093-.148s-.056-.074-.056-.093a.628.628,0,0,1-.056-.148.788.788,0,0,1-.037-.2.788.788,0,0,1-.037-.2c-.019-.056-.019-.093-.037-.111-.019-.037-.056-.074-.093-.13a.2.2,0,0,0-.167-.093h-.037C120.8,107.144,120.78,107.144,120.78,107.144Z" transform="translate(-94.491 -86.606)"/><path class="e" d="M3.015,165.862l-.2.575a.14.14,0,0,1-.019.074H2.7c.019-.037.019-.056.037-.074l.631-1.781a.068.068,0,0,1,.019-.056h.167a.068.068,0,0,0,.019.056l.649,1.781c0,.019.019.037.037.074H4.036a.112.112,0,0,0-.019-.074l-.2-.575Zm.037-.074h.724l-.371-1Z" transform="translate(-2.7 -134.822)"/><path class="e" d="M11.6,168.291l.037-.148a.524.524,0,0,0,.2.13.667.667,0,0,0,.2.037.367.367,0,0,0,.26-.093.3.3,0,0,0,.093-.2.181.181,0,0,0-.074-.167,1.733,1.733,0,0,0-.278-.148.544.544,0,0,1-.3-.186.324.324,0,0,1-.074-.223.344.344,0,0,1,.186-.315.447.447,0,0,1,.278-.074,1.17,1.17,0,0,1,.408.093l-.037.13a.593.593,0,0,0-.353-.13.3.3,0,0,0-.223.074.258.258,0,0,0-.093.186.211.211,0,0,0,.056.148,1.276,1.276,0,0,0,.241.13,1.923,1.923,0,0,1,.353.186.307.307,0,0,1,.093.223.421.421,0,0,1-.167.334.529.529,0,0,1-.353.093A.64.64,0,0,1,11.6,168.291Z" transform="translate(-9.949 -136.696)"/><path class="e" d="M17.5,168.291l.037-.148a.524.524,0,0,0,.2.13.667.667,0,0,0,.2.037.367.367,0,0,0,.26-.093.3.3,0,0,0,.093-.2.181.181,0,0,0-.074-.167,1.733,1.733,0,0,0-.278-.148.544.544,0,0,1-.3-.186.324.324,0,0,1-.074-.223.344.344,0,0,1,.186-.315.447.447,0,0,1,.278-.074,1.17,1.17,0,0,1,.408.093l-.037.13a.593.593,0,0,0-.353-.13.3.3,0,0,0-.223.074.258.258,0,0,0-.093.186.211.211,0,0,0,.056.148,1.275,1.275,0,0,0,.241.13,1.923,1.923,0,0,1,.353.186.307.307,0,0,1,.093.223.421.421,0,0,1-.167.334.529.529,0,0,1-.353.093A.673.673,0,0,1,17.5,168.291Z" transform="translate(-14.754 -136.696)"/><path class="e" d="M24.431,167a.6.6,0,0,1,.5.241.864.864,0,0,1,.148.519.812.812,0,0,1-.167.538.6.6,0,0,1-.464.2.71.71,0,0,1-.353-.093.688.688,0,0,1-.241-.315,1.08,1.08,0,0,1-.056-.353.743.743,0,0,1,.167-.5A.494.494,0,0,1,24.431,167Zm0,.056a.421.421,0,0,0-.334.167.844.844,0,0,0-.148.5.864.864,0,0,0,.148.519.417.417,0,0,0,.668,0,.983.983,0,0,0,0-1.039A.465.465,0,0,0,24.431,167.056Z" transform="translate(-19.885 -136.777)"/><path class="e" d="M33.1,168.373a1,1,0,0,1-.2.093.7.7,0,0,1-.2.019.5.5,0,0,1-.445-.186.754.754,0,0,1-.148-.519.772.772,0,0,1,.223-.612.617.617,0,0,1,.464-.167,1.05,1.05,0,0,1,.334.056v.148a.7.7,0,0,0-.186-.111.542.542,0,0,0-.167-.037.4.4,0,0,0-.353.186.84.84,0,0,0-.13.5.967.967,0,0,0,.093.427.382.382,0,0,0,.353.223.55.55,0,0,0,.186-.037.859.859,0,0,0,.186-.13Z" transform="translate(-26.645 -136.777)"/><path class="e" d="M39.03,165a.129.129,0,0,1,.13.111.1.1,0,0,1-.037.074.131.131,0,0,1-.223-.074.1.1,0,0,1,.037-.074A.142.142,0,0,1,39.03,165Zm-.093.39H39.1v1.447h-.167V165.39Z" transform="translate(-32.184 -135.148)"/><path class="e" d="M42.509,168.143a.861.861,0,0,1-.186.186.625.625,0,0,1-.315.093.456.456,0,0,1-.278-.093.382.382,0,0,1-.13-.315.428.428,0,0,1,.2-.371,1.091,1.091,0,0,1,.148-.074c.037-.019.167-.056.353-.111a.355.355,0,0,0,.148-.074.156.156,0,0,0,.037-.13.181.181,0,0,0-.074-.167.4.4,0,0,0-.223-.074.549.549,0,0,0-.186.037.906.906,0,0,0-.2.13l-.037-.13a1.277,1.277,0,0,1,.241-.111.8.8,0,0,1,.223-.037.531.531,0,0,1,.315.074.264.264,0,0,1,.111.223v.928c0,.093.037.148.093.148a.287.287,0,0,0,.111-.056v.111a.3.3,0,0,1-.167.056.151.151,0,0,1-.148-.074A.267.267,0,0,1,42.509,168.143Zm0-.686a1.419,1.419,0,0,1-.39.148.645.645,0,0,0-.278.148.324.324,0,0,0-.074.223.3.3,0,0,0,.074.223.307.307,0,0,0,.223.093.382.382,0,0,0,.353-.186.408.408,0,0,0,.074-.241v-.408Z" transform="translate(-34.383 -136.696)"/><path class="e" d="M48.841,165.627H48.6v-.074h.241v-.334l.148-.019v.353h.26v.074h-.26v1.132c0,.093.037.148.111.148a.573.573,0,0,0,.148-.037v.093a.374.374,0,0,1-.2.056.181.181,0,0,1-.167-.074.141.141,0,0,1-.037-.074v-1.243Z" transform="translate(-40.084 -135.311)"/><path class="e" d="M53.83,165a.129.129,0,0,1,.13.111.1.1,0,0,1-.037.074.131.131,0,0,1-.223-.074.1.1,0,0,1,.037-.074A.142.142,0,0,1,53.83,165Zm-.093.39H53.9v1.447h-.167V165.39Z" transform="translate(-44.238 -135.148)"/><path class="e" d="M57.431,167a.6.6,0,0,1,.5.241.864.864,0,0,1,.148.519.812.812,0,0,1-.167.538.6.6,0,0,1-.464.2.71.71,0,0,1-.353-.093.688.688,0,0,1-.241-.315,1.08,1.08,0,0,1-.056-.353.743.743,0,0,1,.167-.5A.494.494,0,0,1,57.431,167Zm0,.056a.421.421,0,0,0-.334.167.844.844,0,0,0-.148.5.864.864,0,0,0,.148.519.417.417,0,0,0,.668,0,.983.983,0,0,0,0-1.039A.465.465,0,0,0,57.431,167.056Z" transform="translate(-46.763 -136.777)"/><path class="e" d="M65.4,167.019h.167v.241a.4.4,0,0,1,.13-.167.506.506,0,0,1,.334-.093.518.518,0,0,1,.408.167.418.418,0,0,1,.093.278v1.039h-.167v-1.039a.307.307,0,0,0-.093-.223.363.363,0,0,0-.26-.074.408.408,0,0,0-.315.111.436.436,0,0,0-.111.315v.928h-.167v-1.354A.418.418,0,0,1,65.4,167.019Z" transform="translate(-53.767 -136.777)"/><path class="e" d="M77.731,167a.6.6,0,0,1,.5.241.864.864,0,0,1,.148.519.812.812,0,0,1-.167.538.6.6,0,0,1-.464.2.711.711,0,0,1-.353-.093.688.688,0,0,1-.241-.315,1.08,1.08,0,0,1-.056-.353.743.743,0,0,1,.167-.5A.476.476,0,0,1,77.731,167Zm0,.056a.421.421,0,0,0-.334.167.844.844,0,0,0-.148.5.864.864,0,0,0,.148.519.417.417,0,0,0,.668,0,.983.983,0,0,0,0-1.039A.465.465,0,0,0,77.731,167.056Z" transform="translate(-63.297 -136.777)"/><path class="e" d="M85.186,164.324H85v-.074h.186v-.315a.32.32,0,0,1,.093-.241.472.472,0,0,1,.3-.093,1.138,1.138,0,0,1,.3.056l-.037.13a.623.623,0,0,0-.278-.074.2.2,0,0,0-.223.223v.315h.482v.074h-.482V165.7h-.167v-1.373Z" transform="translate(-69.731 -134.008)"/><path class="e" d="M94.5,164.6h.2a.8.8,0,0,0-.019.093v1.725a.139.139,0,0,0,.019.093h-.2c0-.037.019-.056.019-.093v-1.725C94.519,164.656,94.5,164.637,94.5,164.6Z" transform="translate(-77.468 -134.822)"/><path class="e" d="M98,167.019h.167v.241a.4.4,0,0,1,.13-.167.506.506,0,0,1,.334-.093.518.518,0,0,1,.408.167.417.417,0,0,1,.093.278v1.039h-.167v-1.039a.307.307,0,0,0-.093-.223.363.363,0,0,0-.26-.074.408.408,0,0,0-.315.111.436.436,0,0,0-.111.315v.928H98v-1.484Z" transform="translate(-80.319 -136.777)"/><path class="e" d="M105.541,165.627H105.3v-.074h.241v-.334l.148-.019v.353h.26v.074h-.26v1.132c0,.093.037.148.111.148a.573.573,0,0,0,.148-.037v.093a.374.374,0,0,1-.2.056.181.181,0,0,1-.167-.074.141.141,0,0,1-.037-.074v-1.243Z" transform="translate(-86.265 -135.311)"/><path class="e" d="M110.95,168.291a1.064,1.064,0,0,1-.464.111.636.636,0,0,1-.538-.223.754.754,0,0,1-.148-.52.826.826,0,0,1,.186-.575.55.55,0,0,1,.445-.186.518.518,0,0,1,.334.111.67.67,0,0,1,.26.557h-1.076a1.236,1.236,0,0,0,.019.3.635.635,0,0,0,.167.315.535.535,0,0,0,.353.111.743.743,0,0,0,.427-.148Zm-1-.8h.909c-.019-.074-.019-.148-.037-.2a.507.507,0,0,0-.167-.223.4.4,0,0,0-.223-.074.455.455,0,0,0-.3.111A.644.644,0,0,0,109.948,167.494Z" transform="translate(-89.93 -136.696)"/><path class="e" d="M118,167.019h.167v.223a.367.367,0,0,1,.13-.186.421.421,0,0,1,.241-.056v.148a.384.384,0,0,0-.278.093.436.436,0,0,0-.093.3v.946H118V167.13A.117.117,0,0,0,118,167.019Z" transform="translate(-96.608 -136.777)"/><path class="e" d="M122.4,167.019h.167v.241a.4.4,0,0,1,.13-.167.506.506,0,0,1,.334-.093.518.518,0,0,1,.408.167.418.418,0,0,1,.093.278v1.039h-.167v-1.039a.307.307,0,0,0-.093-.223.363.363,0,0,0-.26-.074.408.408,0,0,0-.315.111.436.436,0,0,0-.111.315v.928h-.167v-1.354A.418.418,0,0,1,122.4,167.019Z" transform="translate(-100.192 -136.777)"/><path class="e" d="M130.809,168.143a.86.86,0,0,1-.186.186.626.626,0,0,1-.315.093.456.456,0,0,1-.278-.093.382.382,0,0,1-.13-.315.428.428,0,0,1,.2-.371,1.09,1.09,0,0,1,.148-.074c.037-.019.167-.056.353-.111a.356.356,0,0,0,.148-.074.157.157,0,0,0,.037-.13.181.181,0,0,0-.074-.167.4.4,0,0,0-.223-.074.549.549,0,0,0-.186.037.906.906,0,0,0-.2.13l-.037-.13a1.277,1.277,0,0,1,.241-.111.8.8,0,0,1,.223-.037.531.531,0,0,1,.315.074.264.264,0,0,1,.111.223v.928c0,.093.037.148.093.148a.287.287,0,0,0,.111-.056v.111a.3.3,0,0,1-.167.056.151.151,0,0,1-.148-.074A.267.267,0,0,1,130.809,168.143Zm0-.686a1.419,1.419,0,0,1-.39.148.645.645,0,0,0-.278.148.324.324,0,0,0-.074.223.3.3,0,0,0,.074.223.307.307,0,0,0,.223.093.382.382,0,0,0,.352-.186.408.408,0,0,0,.074-.241v-.408Z" transform="translate(-106.3 -136.696)"/><path class="e" d="M137.241,165.627H137v-.074h.241v-.334l.148-.019v.353h.26v.074h-.26v1.132c0,.093.037.148.111.148a.573.573,0,0,0,.148-.037v.093a.374.374,0,0,1-.2.056.181.181,0,0,1-.167-.074.141.141,0,0,1-.037-.074v-1.243Z" transform="translate(-112.083 -135.311)"/><path class="e" d="M142.13,165a.129.129,0,0,1,.13.111.1.1,0,0,1-.037.074.131.131,0,0,1-.223-.074.1.1,0,0,1,.037-.074A.142.142,0,0,1,142.13,165Zm-.093.39h.167v1.447h-.167v-1.354C142.056,165.445,142.037,165.427,142.037,165.39Z" transform="translate(-116.156 -135.148)"/><path class="e" d="M145.731,167a.6.6,0,0,1,.5.241.864.864,0,0,1,.148.519.812.812,0,0,1-.167.538.6.6,0,0,1-.464.2.71.71,0,0,1-.353-.093.688.688,0,0,1-.241-.315,1.08,1.08,0,0,1-.056-.353.743.743,0,0,1,.167-.5A.494.494,0,0,1,145.731,167Zm0,.056a.422.422,0,0,0-.334.167.844.844,0,0,0-.148.5.864.864,0,0,0,.148.519.417.417,0,0,0,.668,0,.983.983,0,0,0,0-1.039A.464.464,0,0,0,145.731,167.056Z" transform="translate(-118.68 -136.777)"/><path class="e" d="M153.7,167.019h.167v.241a.4.4,0,0,1,.13-.167.506.506,0,0,1,.334-.093.518.518,0,0,1,.408.167.418.418,0,0,1,.093.278v1.039h-.167v-1.039a.307.307,0,0,0-.093-.223.363.363,0,0,0-.26-.074.408.408,0,0,0-.315.111.437.437,0,0,0-.111.315v.928h-.167v-1.354A.239.239,0,0,0,153.7,167.019Z" transform="translate(-125.685 -136.777)"/><path class="e" d="M162.209,168.143a.86.86,0,0,1-.186.186.625.625,0,0,1-.315.093.456.456,0,0,1-.278-.093.382.382,0,0,1-.13-.315.428.428,0,0,1,.2-.371,1.091,1.091,0,0,1,.148-.074c.037-.019.167-.056.353-.111a.355.355,0,0,0,.148-.074.157.157,0,0,0,.037-.13.181.181,0,0,0-.074-.167.4.4,0,0,0-.223-.074.549.549,0,0,0-.186.037.906.906,0,0,0-.2.13l-.037-.13a1.277,1.277,0,0,1,.241-.111.8.8,0,0,1,.223-.037.531.531,0,0,1,.315.074.264.264,0,0,1,.111.223v.928c0,.093.037.148.093.148a.287.287,0,0,0,.111-.056v.111a.3.3,0,0,1-.167.056.151.151,0,0,1-.148-.074A.267.267,0,0,1,162.209,168.143Zm0-.686a1.419,1.419,0,0,1-.39.148.644.644,0,0,0-.278.148.324.324,0,0,0-.074.223.3.3,0,0,0,.074.223.307.307,0,0,0,.223.093.382.382,0,0,0,.353-.186.408.408,0,0,0,.074-.241v-.408Z" transform="translate(-131.875 -136.696)"/><path class="e" d="M169.467,163.8v2.059H169.3V163.8Z" transform="translate(-138.391 -134.171)"/><path class="e" d="M70.019,179.918l.056-.148a.492.492,0,0,0,.111.093.486.486,0,0,0,.315.093.382.382,0,0,0,.315-.13.347.347,0,0,0,.093-.26.36.36,0,0,0-.148-.3,1.137,1.137,0,0,0-.3-.167,1.3,1.3,0,0,1-.334-.223.478.478,0,0,1-.13-.3.426.426,0,0,1,.074-.26.551.551,0,0,1,.482-.223,1.17,1.17,0,0,1,.408.093l-.056.13a.643.643,0,0,0-.371-.13.326.326,0,0,0-.278.111.314.314,0,0,0,0,.445,1.317,1.317,0,0,0,.315.2,1,1,0,0,1,.223.13c.037.037.093.056.13.093a.447.447,0,0,1,.13.334.524.524,0,0,1-.074.278.58.58,0,0,1-.519.26A.72.72,0,0,1,70.019,179.918Z" transform="translate(-57.514 -145.818)"/><path class="e" d="M78.1,181.973a.993.993,0,0,1-.2.093.7.7,0,0,1-.2.019.5.5,0,0,1-.445-.186.754.754,0,0,1-.148-.519.772.772,0,0,1,.223-.612.617.617,0,0,1,.464-.167,1.051,1.051,0,0,1,.334.056v.148a.7.7,0,0,0-.186-.111.542.542,0,0,0-.167-.037.4.4,0,0,0-.353.186.84.84,0,0,0-.13.5.967.967,0,0,0,.093.427.382.382,0,0,0,.352.223.55.55,0,0,0,.186-.037.858.858,0,0,0,.186-.13Z" transform="translate(-63.297 -147.854)"/><path class="e" d="M84,179.459V177.4h.167v.835a1.015,1.015,0,0,1,.186-.2.62.62,0,0,1,.278-.056.5.5,0,0,1,.353.111.382.382,0,0,1,.13.315v1.039h-.167v-.965a.412.412,0,0,0-.019-.167.388.388,0,0,0-.074-.111.384.384,0,0,0-.278-.093.453.453,0,0,0-.334.111.468.468,0,0,0-.111.315v.928Z" transform="translate(-68.916 -145.247)"/><path class="e" d="M92.531,180.6a.6.6,0,0,1,.5.241.864.864,0,0,1,.148.52.812.812,0,0,1-.167.538.6.6,0,0,1-.464.2.711.711,0,0,1-.352-.093.688.688,0,0,1-.241-.315,1.08,1.08,0,0,1-.056-.353.743.743,0,0,1,.167-.5A.476.476,0,0,1,92.531,180.6Zm0,.074a.421.421,0,0,0-.334.167.844.844,0,0,0-.148.5.864.864,0,0,0,.148.519.417.417,0,0,0,.668,0,.983.983,0,0,0,0-1.039A.465.465,0,0,0,92.531,180.674Z" transform="translate(-75.351 -147.854)"/><path class="e" d="M100.831,180.6a.6.6,0,0,1,.5.241.864.864,0,0,1,.148.52.811.811,0,0,1-.167.538.6.6,0,0,1-.464.2.711.711,0,0,1-.353-.093.688.688,0,0,1-.241-.315,1.08,1.08,0,0,1-.056-.353.743.743,0,0,1,.167-.5A.494.494,0,0,1,100.831,180.6Zm0,.074a.421.421,0,0,0-.334.167.844.844,0,0,0-.148.5.864.864,0,0,0,.148.519.417.417,0,0,0,.668,0,.983.983,0,0,0,0-1.039A.465.465,0,0,0,100.831,180.674Z" transform="translate(-82.111 -147.854)"/><path class="e" d="M108.967,177.5v2.059H108.8V177.5Z" transform="translate(-89.115 -145.329)"/><path class="e" d="M111.2,181.891l.037-.148a.524.524,0,0,0,.2.13.667.667,0,0,0,.2.037.367.367,0,0,0,.26-.093.3.3,0,0,0,.093-.2.181.181,0,0,0-.074-.167,1.739,1.739,0,0,0-.278-.148.544.544,0,0,1-.3-.186.324.324,0,0,1-.074-.223.344.344,0,0,1,.186-.315.447.447,0,0,1,.278-.074,1.171,1.171,0,0,1,.408.093l-.037.13a.593.593,0,0,0-.353-.13.3.3,0,0,0-.223.074.258.258,0,0,0-.093.186.211.211,0,0,0,.056.148,1.28,1.28,0,0,0,.241.13,1.919,1.919,0,0,1,.353.186.307.307,0,0,1,.093.223.421.421,0,0,1-.167.334.529.529,0,0,1-.353.093A.52.52,0,0,1,111.2,181.891Z" transform="translate(-91.07 -147.772)"/><path class="e" d="M121.63,178.7a.129.129,0,0,1,.13.111.1.1,0,0,1-.037.074.131.131,0,0,1-.223-.074.1.1,0,0,1,.037-.074C121.556,178.7,121.593,178.7,121.63,178.7Zm-.093.39h.167v1.447h-.167V179.09Z" transform="translate(-99.459 -146.306)"/><path class="e" d="M124.9,180.719h.167v.241a.4.4,0,0,1,.13-.167.506.506,0,0,1,.334-.093.518.518,0,0,1,.408.167.418.418,0,0,1,.093.278v1.039h-.186v-1.039a.307.307,0,0,0-.093-.223.363.363,0,0,0-.26-.074.408.408,0,0,0-.315.111.437.437,0,0,0-.111.315v.928H124.9v-1.484Z" transform="translate(-102.228 -147.935)"/><path class="e" d="M136.134,179.462l-.2.575a.14.14,0,0,1-.019.074H135.8c.019-.037.019-.056.037-.074l.631-1.781a.068.068,0,0,1,.019-.056h.167a.068.068,0,0,0,.019.056l.649,1.781c0,.019.019.037.037.074h-.223a.111.111,0,0,0-.019-.074l-.2-.575Zm.037-.074h.724l-.371-1Z" transform="translate(-111.106 -145.899)"/><path class="e" d="M144.786,178.024H144.6v-.074h.186v-.315a.321.321,0,0,1,.093-.241.472.472,0,0,1,.3-.093,1.138,1.138,0,0,1,.3.056l-.037.13a.623.623,0,0,0-.278-.074.2.2,0,0,0-.223.223v.315h.482v.074h-.482V179.4h-.167v-1.373Z" transform="translate(-118.273 -145.166)"/><path class="e" d="M149.9,180.719h.167v.223a.367.367,0,0,1,.13-.186.421.421,0,0,1,.241-.056v.148a.384.384,0,0,0-.278.093.436.436,0,0,0-.093.3v.946H149.9V180.83A.213.213,0,0,0,149.9,180.719Z" transform="translate(-122.59 -147.935)"/><path class="e" d="M154.23,178.7a.129.129,0,0,1,.13.111.1.1,0,0,1-.037.074.131.131,0,0,1-.223-.074.1.1,0,0,1,.037-.074C154.156,178.7,154.193,178.7,154.23,178.7Zm-.093.39h.167v1.447h-.167v-1.354C154.156,179.145,154.137,179.108,154.137,179.09Z" transform="translate(-126.011 -146.306)"/><path class="e" d="M158.2,181.973a.993.993,0,0,1-.2.093.7.7,0,0,1-.2.019.5.5,0,0,1-.445-.186.755.755,0,0,1-.148-.519.772.772,0,0,1,.223-.612.617.617,0,0,1,.464-.167,1.051,1.051,0,0,1,.334.056v.148a.7.7,0,0,0-.186-.111.542.542,0,0,0-.167-.037.4.4,0,0,0-.353.186.84.84,0,0,0-.13.5.967.967,0,0,0,.093.427.382.382,0,0,0,.353.223.79.79,0,0,0,.2-.037.858.858,0,0,0,.186-.13v.148Z" transform="translate(-128.536 -147.854)"/><path class="e" d="M164.309,181.743a.861.861,0,0,1-.186.186.626.626,0,0,1-.315.093.456.456,0,0,1-.278-.093.382.382,0,0,1-.13-.315.428.428,0,0,1,.2-.371,1.1,1.1,0,0,1,.148-.074c.037-.019.167-.056.353-.111a.355.355,0,0,0,.148-.074.157.157,0,0,0,.037-.13.181.181,0,0,0-.074-.167.4.4,0,0,0-.223-.074.549.549,0,0,0-.186.037.905.905,0,0,0-.2.13l-.037-.13a1.272,1.272,0,0,1,.241-.111.8.8,0,0,1,.223-.037.531.531,0,0,1,.315.074.264.264,0,0,1,.111.223v.928c0,.093.037.148.093.148a.286.286,0,0,0,.111-.056v.111a.3.3,0,0,1-.167.056.151.151,0,0,1-.148-.074C164.328,181.91,164.309,181.836,164.309,181.743Zm0-.668a1.419,1.419,0,0,1-.39.148.644.644,0,0,0-.278.148.324.324,0,0,0-.074.223.3.3,0,0,0,.074.223.307.307,0,0,0,.223.093.382.382,0,0,0,.352-.186.408.408,0,0,0,.074-.241v-.408Z" transform="translate(-133.585 -147.772)"/></g></svg>