<svg xmlns="http://www.w3.org/2000/svg" width="81.361" height="45.06" viewBox="0 0 81.361 45.06"><defs><style>.a{fill:#3b4e81;}.b{isolation:isolate;}</style></defs><g transform="translate(0)"><g transform="translate(0 34.355)"><path class="a" d="M4.088,71.1H3.6L.973,79.032H0v.292H2.336v-.292H1.314l.876-2.676H4.477L5.3,79.032H4.331v.292H7.348v-.292H6.521ZM2.336,76.015l1.071-3.26h0l.973,3.26Z" transform="translate(0 -70.857)"/><path class="a" d="M18.4,70.6a6.425,6.425,0,0,1-1.363.1H16.5v.292h.925v7.737H16.5v.292h2.822v-.292H18.4Z" transform="translate(-8.471 -70.6)"/><path class="a" d="M25.3,70.6a6.425,6.425,0,0,1-1.363.1H23.4v.292h.925v7.737H23.4v.292h2.822v-.292H25.3Z" transform="translate(-12.013 -70.6)"/><path class="a" d="M32.584,72.817a.613.613,0,0,0,.633-.633.676.676,0,0,0-.633-.584.592.592,0,0,0-.584.584A.6.6,0,0,0,32.584,72.817Z" transform="translate(-16.429 -71.113)"/><path class="a" d="M32.352,77.9a6.426,6.426,0,0,1-1.363.1H30.6v.292h.827v4.233H30.6v.292h2.482v-.292h-.73Z" transform="translate(-15.71 -74.348)"/><path class="a" d="M40.933,82.474c-.243,0-.243-.195-.243-.535V79.068c0-.487,0-1.168-1.654-1.168-1.46,0-1.946.73-1.946,1.168,0,.341.195.584.487.584a.46.46,0,0,0,.487-.487c0-.389-.341-.438-.341-.535,0-.341.876-.438,1.119-.438.438,0,.876.146.876.73V80.09c-1.849,0-2.968.633-3.017,1.752,0,.876.633,1.168,1.411,1.168a2.009,2.009,0,0,0,1.606-.73c.1.438.341.73.779.73a1.053,1.053,0,0,0,1.022-.973h-.195C41.323,82.133,41.177,82.474,40.933,82.474Zm-1.168-1.119a.866.866,0,0,1-.243.73,1.284,1.284,0,0,1-.925.341.882.882,0,0,1-.925-.973c0-1.119,1.363-1.265,2.141-1.265l-.049,1.168Z" transform="translate(-18.841 -74.348)"/><path class="a" d="M52.369,79.017c0-1.119-1.022-1.217-1.46-1.217a1.827,1.827,0,0,0-1.7,1.265h0V77.849a2.872,2.872,0,0,1-.681.1,2.992,2.992,0,0,1-.681.049H47.6v.292h.681V82.52H47.6v.292h2.238V82.52h-.633V80.282c0-.925.633-2.044,1.46-2.044.487,0,.779.146.779,1.022v3.26h-.633v.292H53.05V82.52h-.633l-.049-3.5Z" transform="translate(-24.437 -74.296)"/><path class="a" d="M61.83,82.617a1.213,1.213,0,0,1-1.168-.681,4.682,4.682,0,0,1-.243-1.46c0-1.557.292-2.433,1.46-2.433.243,0,1.022.146,1.022.438,0,.146-.389.195-.389.681a.562.562,0,1,0,1.119-.049c0-.925-1.119-1.314-1.9-1.314A2.521,2.521,0,0,0,59.3,80.476a2.367,2.367,0,0,0,2.433,2.384,1.971,1.971,0,0,0,2-1.654h-.243A1.77,1.77,0,0,1,61.83,82.617Z" transform="translate(-30.444 -74.296)"/><path class="a" d="M72.228,82.669c-1.314,0-1.46-.973-1.46-2.141v-.487h3.406a2.056,2.056,0,0,0-2.19-2.141A2.535,2.535,0,0,0,69.6,80.625a2.388,2.388,0,0,0,2.433,2.336,2.015,2.015,0,0,0,2.141-1.654h-.243A1.859,1.859,0,0,1,72.228,82.669Zm-1.314-3.8a1.157,1.157,0,0,1,1.071-.779A1.035,1.035,0,0,1,73.1,79.262v.389H70.817A2.017,2.017,0,0,1,70.914,78.873Z" transform="translate(-35.732 -74.348)"/></g><g transform="translate(39.172 34.695)"><path class="a" d="M80.5,79.378v-.292h.973V71.592H80.5V71.3h5.888l.1,2.141h-.195c-.389-1.46-.584-1.849-2.092-1.849H82.69v3.5c1.071,0,1.557-.049,1.654-1.265h.292V76.8h-.243c-.1-1.217-.584-1.411-1.7-1.411v3.7h1.022v.292Z" transform="translate(-80.5 -71.3)"/></g><g transform="translate(44.622 37.907)"><path class="a" d="M93.452,79.019h0A1.692,1.692,0,0,1,94.814,77.9a.651.651,0,0,1,.73.681c0,.292-.292.438-.584.438a.567.567,0,0,1-.487-.487,2.106,2.106,0,0,1,.049-.243c0-.049-.049-.049-.1-.049a1.269,1.269,0,0,0-.681.73,3.486,3.486,0,0,0-.292,1.314v2.287h.925v.292H91.7v-.292h.827V78.338H91.7v-.292h.389a6.426,6.426,0,0,0,1.363-.1v1.071Z" transform="translate(-91.7 -77.9)"/></g><g transform="translate(48.71 37.907)"><path class="a" d="M103.166,81.355a.866.866,0,0,1-.243.73,1.285,1.285,0,0,1-.925.341.882.882,0,0,1-.925-.973c0-1.119,1.362-1.265,2.141-1.265v1.168Zm1.606.584c-.049.195-.195.535-.438.535s-.243-.195-.243-.535V79.068c0-.487,0-1.168-1.654-1.168-1.46,0-1.946.73-1.946,1.168a.517.517,0,0,0,.487.584.46.46,0,0,0,.487-.487c0-.389-.341-.438-.341-.535,0-.341.876-.438,1.119-.438.438,0,.876.146.876.73V80.09c-1.849,0-2.968.633-3.017,1.752,0,.876.633,1.168,1.411,1.168a2.009,2.009,0,0,0,1.606-.73c.1.438.341.73.779.73a1.053,1.053,0,0,0,1.022-.973h-.146v-.1Z" transform="translate(-100.1 -77.9)"/></g><g transform="translate(53.819 37.858)"><path class="a" d="M111.379,78.238H110.7v-.292h.243a3.214,3.214,0,0,0,.681-.049,3.285,3.285,0,0,0,.681-.1v1.265h0a1.766,1.766,0,0,1,1.7-1.265c.438,0,1.411.1,1.411,1.217v3.406h.633v.292h-2.238v-.292h.633v-3.26c0-.876-.292-1.022-.779-1.022-.827,0-1.46,1.119-1.46,2.044v2.238h.633v.292H110.6v-.292h.681V78.238Z" transform="translate(-110.6 -77.8)"/></g><g transform="translate(59.464 37.858)"><path class="a" d="M124.633,82.861a1.971,1.971,0,0,0,2-1.654h-.243a1.875,1.875,0,0,1-1.654,1.411,1.213,1.213,0,0,1-1.168-.681,4.681,4.681,0,0,1-.243-1.46c0-1.557.292-2.433,1.46-2.433.243,0,1.022.146,1.022.438,0,.146-.389.195-.389.681a.562.562,0,1,0,1.119-.049c0-.925-1.119-1.314-1.9-1.314a2.521,2.521,0,0,0-2.433,2.676,2.352,2.352,0,0,0,1.946,2.336l-.438.973.195.049a.95.95,0,0,1,.341-.049.442.442,0,0,1,.487.438c0,.341-.389.438-.681.438a2.972,2.972,0,0,1-.633-.146l-.146.341a2.755,2.755,0,0,0,.876.146c.584,0,1.314-.195,1.314-.925a.777.777,0,0,0-.779-.73c-.146,0-.292.049-.389.049l.243-.535h.1" transform="translate(-122.2 -77.8)"/></g><g transform="translate(64.33 37.907)"><path class="a" d="M135.266,81.355a.866.866,0,0,1-.243.73,1.285,1.285,0,0,1-.925.341.882.882,0,0,1-.925-.973c0-1.119,1.363-1.265,2.141-1.265v1.168Zm1.606.584c-.049.195-.195.535-.438.535s-.243-.195-.243-.535V79.068c0-.487,0-1.168-1.654-1.168-1.411,0-1.946.73-1.946,1.168,0,.341.195.584.487.584a.46.46,0,0,0,.487-.487c0-.389-.341-.438-.341-.535,0-.341.876-.438,1.119-.438.438,0,.876.146.876.73V80.09c-1.849,0-2.968.633-3.017,1.752,0,.876.633,1.168,1.411,1.168a2.009,2.009,0,0,0,1.606-.73c.1.438.341.73.779.73a1.053,1.053,0,0,0,1.022-.973h-.146v-.1Z" transform="translate(-132.2 -77.9)"/></g><g transform="translate(69.488 34.841)"><path class="a" d="M142.8,79.532V79.24h.827V75.006H142.8v-.292h.389a6.426,6.426,0,0,0,1.362-.1V79.24h.73v.292Zm1.265-7.932a.635.635,0,0,1,.633.584.588.588,0,0,1-.633.633.6.6,0,0,1-.584-.633.592.592,0,0,1,.584-.584" transform="translate(-142.8 -71.6)"/></g><g transform="translate(72.651 37.955)"><path class="a" d="M152.414,78.049v1.363h-.243c-.195-.681-.584-1.217-1.314-1.217a.989.989,0,0,0-1.119.876c0,.341.1.535,1.946.925.925.195,1.265.633,1.265,1.362a1.636,1.636,0,0,1-1.752,1.654,2.032,2.032,0,0,1-1.411-.584l-.243.438H149.3V81.26h.292a1.8,1.8,0,0,0,1.7,1.508,1.124,1.124,0,0,0,1.168-1.022c0-.487-.681-.681-1.654-.925-.779-.195-1.508-.292-1.508-1.363A1.453,1.453,0,0,1,150.906,78a1.814,1.814,0,0,1,1.119.438l.195-.341h.195Z" transform="translate(-149.3 -78)"/></g><g transform="translate(76.787 37.907)"><path class="a" d="M158.968,79.7a3.387,3.387,0,0,1,.1-.779,1.158,1.158,0,0,1,1.071-.779,1.035,1.035,0,0,1,1.119,1.168V79.7Zm3.114,1.557a1.852,1.852,0,0,1-1.654,1.411c-1.314,0-1.46-.973-1.46-2.141v-.487h3.406a2.056,2.056,0,0,0-2.19-2.141,2.567,2.567,0,0,0-2.384,2.725,2.388,2.388,0,0,0,2.433,2.336,2.015,2.015,0,0,0,2.141-1.654l-.292-.049Z" transform="translate(-157.8 -77.9)"/></g><g class="b" transform="translate(26.958)"><path class="a" d="M79.536,0C78.125,0,76.811.73,75.2,2.336a18.287,18.287,0,0,0-4.136,8.126H68.344v.1l-.146.487-.049.146h2.774c-.681,2.53-1.557,6.521-1.8,7.883-.049.243-.1.438-.1.487a1.835,1.835,0,0,1-1.557,1.411c-.584,0-.827-.389-.827-1.265V11.387a3.268,3.268,0,0,0-1.752-2.822,7.147,7.147,0,0,0-3.552-.925,5.55,5.55,0,0,0-3.65,1.119,3.027,3.027,0,0,0-1.265,2.384c0,1.168.584,1.849,1.508,1.849a1.48,1.48,0,0,0,1.557-1.411,1.321,1.321,0,0,0-.681-1.314c-.195-.146-.341-.243-.341-.487,0-1.022,2.044-1.363,2.968-1.363,2.044,0,2.482.925,2.482,1.7v3.747h-.487a14.134,14.134,0,0,0-5.207.876c-1.849.779-2.822,2-2.822,3.6,0,2.19,1.508,3.455,4.039,3.455a5.315,5.315,0,0,0,4.574-1.9,2.806,2.806,0,0,0,2.822,1.9,3.094,3.094,0,0,0,2-.681c-.584,2.676-1.071,4.623-1.508,5.985a5.952,5.952,0,0,1-1.411,2.482,1.739,1.739,0,0,1-1.119.535c-.243,0-.389-.049-.389-.195,0-.1.049-.146.195-.292a1.262,1.262,0,0,0,.438-1.022A1.408,1.408,0,0,0,63.526,27.2a1.38,1.38,0,0,0-1.071.487,1.728,1.728,0,0,0-.487,1.217,1.815,1.815,0,0,0,.584,1.314,2,2,0,0,0,1.411.633c1.946,0,3.26-.779,5.45-5.255a59.521,59.521,0,0,0,2.968-9.246c.438-1.654.925-3.358,1.46-5.158h3.309v-.1l.1-.487v-.146H73.94l.925-3.455C75.4,4.963,77.1.73,78.757.73c.243,0,.341.049.341.146a.445.445,0,0,1-.146.243,1.586,1.586,0,0,0-.389,1.071,1.526,1.526,0,0,0,1.606,1.46,1.549,1.549,0,0,0,1.606-1.557A2.114,2.114,0,0,0,79.536,0M63.77,14.55v3.99a3.163,3.163,0,0,1-3.309,2.287c-1.849,0-2.19-1.071-2.19-2.968a2.779,2.779,0,0,1,1.654-2.871,9.131,9.131,0,0,1,3.406-.438Z" transform="translate(-55.4)"/></g></g></svg>