<svg xmlns="http://www.w3.org/2000/svg" width="159.705" height="33.214" viewBox="0 0 159.705 33.214"><defs><style>.a,.b{fill:none;stroke-miterlimit:10;stroke-width:0.24px;}.a{stroke:#fd0;}.a,.b,.c,.d,.e,.f,.g{opacity:0.5;mix-blend-mode:luminosity;isolation:isolate;}.b{stroke:#000;}.c{fill:#131108;}.d{fill:#fff;}.e{fill:#e63329;}.f{fill:#fd0;}.h{fill:#3b4e81;}</style></defs><g transform="translate(0 0.395)"><path class="a" d="M74.168,66.6a15.637,15.637,0,0,1-.648,4,9.487,9.487,0,0,1-5.184,5.944c-.085.056-.676.338-3.437,1.718V66.6h9.268" transform="translate(-47.18 -48.683)"/><path class="a" d="M15.968,66.6V78.263c-2.789-1.38-3.352-1.69-3.437-1.718a10.49,10.49,0,0,1-3.662-2.93A10.105,10.105,0,0,1,7.348,70.6a15.432,15.432,0,0,1-.648-4h9.268" transform="translate(-5.376 -48.683)"/><path class="b" d="M74.1,7.6H64.8v9.522h9.3Z" transform="translate(-47.108 -6.304)"/><path class="b" d="M15.9,7.6H6.6v9.522h9.3Z" transform="translate(-5.304 -6.304)"/><path class="c" d="M16.142,35.82l-.282-.141c-.423-.2-6.958-3.465-7.353-3.662C6.395,30.862,2,28.467,2,20.072V3H30.284V20.072c0,8.4-4.395,10.79-6.508,11.945-.394.225-6.958,3.465-7.353,3.662Z" transform="translate(-2 -3)"/><path class="d" d="M20.6,16.074V5.2H14.849V16.074H4.2v5.578h0v.169H14.849V35.259c1.549.761,2.874,1.437,2.874,1.437h0L20.6,35.259V21.821H31.245V16.074Z" transform="translate(-3.58 -4.58)"/><rect class="e" width="10.649" height="10.874" transform="translate(0.62 0.62)"/><rect class="e" width="10.649" height="10.874" transform="translate(17.016 0.62)"/><path class="e" d="M14.849,64.2H4.2c.056,7.8,4.057,10.057,6.2,11.212l4.451,2.226Z" transform="translate(-3.58 -46.959)"/><path class="e" d="M62.4,64.2V77.638l4.451-2.226c2.141-1.155,6.141-3.409,6.2-11.212Z" transform="translate(-45.384 -46.959)"/><path class="c" d="M73.389,52.792l.225-.254-.282-.338-.282.338.225.254c0,.141,0,1.3-.676,1.69a1.152,1.152,0,0,0,.535-.028,3.532,3.532,0,0,0,.2.648,3.533,3.533,0,0,0,.2-.648,1.949,1.949,0,0,0,.535.028C73.389,54.059,73.389,52.9,73.389,52.792Z" transform="translate(-52.711 -38.34)"/><path class="c" d="M79.589,45.792l.225-.254-.282-.338-.282.338.225.254c0,.141,0,1.3-.676,1.69a1.152,1.152,0,0,0,.535-.028,3.532,3.532,0,0,0,.2.648,3.533,3.533,0,0,0,.2-.648,1.95,1.95,0,0,0,.535.028C79.561,47.088,79.589,45.932,79.589,45.792Z" transform="translate(-57.164 -33.312)"/><path class="c" d="M85.689,52.792l.225-.254-.282-.338-.282.338.225.254c0,.141,0,1.3-.676,1.69a1.152,1.152,0,0,0,.535-.028,3.533,3.533,0,0,0,.2.648,3.535,3.535,0,0,0,.2-.648,1.949,1.949,0,0,0,.535.028C85.689,54.059,85.689,52.9,85.689,52.792Z" transform="translate(-61.546 -38.34)"/><path class="c" d="M91.889,45.792l.225-.254-.282-.338-.282.338.225.254c0,.141,0,1.3-.676,1.69a1.152,1.152,0,0,0,.535-.028,3.534,3.534,0,0,0,.2.648,3.533,3.533,0,0,0,.2-.648,1.95,1.95,0,0,0,.535.028C91.861,47.088,91.889,45.932,91.889,45.792Z" transform="translate(-65.999 -33.312)"/><path class="c" d="M67.189,45.792l.225-.254-.282-.338-.282.338.225.254c0,.141,0,1.3-.676,1.69a1.152,1.152,0,0,0,.535-.028,3.533,3.533,0,0,0,.2.648,3.533,3.533,0,0,0,.2-.648,1.95,1.95,0,0,0,.535.028C67.189,47.088,67.189,45.932,67.189,45.792Z" transform="translate(-48.257 -33.312)"/><path class="c" d="M15.089,52.792l.225-.254-.282-.338-.282.338.225.254c0,.141,0,1.3-.676,1.69a1.152,1.152,0,0,0,.535-.028,3.533,3.533,0,0,0,.2.648,3.533,3.533,0,0,0,.2-.648,1.949,1.949,0,0,0,.535.028C15.089,54.059,15.089,52.9,15.089,52.792Z" transform="translate(-10.835 -38.34)"/><path class="c" d="M21.289,45.792l.225-.254-.282-.338-.282.338.225.254c0,.141,0,1.3-.676,1.69a1.152,1.152,0,0,0,.535-.028,3.533,3.533,0,0,0,.2.648,3.533,3.533,0,0,0,.2-.648,1.95,1.95,0,0,0,.535.028C21.261,47.088,21.261,45.932,21.289,45.792Z" transform="translate(-15.288 -33.312)"/><path class="c" d="M27.389,52.792l.225-.254-.282-.338-.282.338.225.254c0,.141,0,1.3-.676,1.69a1.152,1.152,0,0,0,.535-.028,3.533,3.533,0,0,0,.2.648,3.533,3.533,0,0,0,.2-.648,1.949,1.949,0,0,0,.535.028C27.389,54.059,27.389,52.9,27.389,52.792Z" transform="translate(-19.67 -38.34)"/><path class="c" d="M33.589,45.792l.225-.254-.282-.338-.282.338.225.254c0,.141,0,1.3-.676,1.69a1.152,1.152,0,0,0,.535-.028,3.533,3.533,0,0,0,.2.648,3.533,3.533,0,0,0,.2-.648,1.95,1.95,0,0,0,.535.028C33.561,47.088,33.589,45.932,33.589,45.792Z" transform="translate(-24.123 -33.312)"/><path class="c" d="M8.889,45.792l.225-.254L8.832,45.2l-.282.338.225.254c0,.141,0,1.3-.676,1.69a1.152,1.152,0,0,0,.535-.028,3.533,3.533,0,0,0,.2.648,3.533,3.533,0,0,0,.2-.648,1.95,1.95,0,0,0,.535.028C8.889,47.088,8.889,45.932,8.889,45.792Z" transform="translate(-6.382 -33.312)"/><path class="c" d="M50.489,68.392l.225-.254-.282-.338-.282.338.225.254c0,.141,0,1.3-.676,1.69a1.152,1.152,0,0,0,.535-.028,3.533,3.533,0,0,0,.2.648,3.533,3.533,0,0,0,.2-.648,1.949,1.949,0,0,0,.535.028C50.461,69.687,50.461,68.532,50.489,68.392Z" transform="translate(-36.262 -49.545)"/><path class="c" d="M50.489,89.392l.225-.254-.282-.338-.282.338.225.254c0,.141,0,1.3-.676,1.69a1.152,1.152,0,0,0,.535-.028,3.532,3.532,0,0,0,.2.648,3.532,3.532,0,0,0,.2-.648,1.95,1.95,0,0,0,.535.028A1.969,1.969,0,0,1,50.489,89.392Z" transform="translate(-36.262 -64.629)"/><path class="c" d="M56.189,78.892l.225-.254-.282-.338-.282.338.225.254c0,.141,0,1.3-.676,1.69a1.152,1.152,0,0,0,.535-.028,3.532,3.532,0,0,0,.2.648,3.533,3.533,0,0,0,.2-.648,1.949,1.949,0,0,0,.535.028C56.161,80.188,56.189,79.032,56.189,78.892Z" transform="translate(-40.356 -57.087)"/><path class="c" d="M44.689,78.892l.225-.254-.282-.338-.282.338.225.254c0,.141,0,1.3-.676,1.69a1.152,1.152,0,0,0,.535-.028,3.532,3.532,0,0,0,.2.648,3.532,3.532,0,0,0,.2-.648,1.949,1.949,0,0,0,.535.028C44.661,80.188,44.689,79.032,44.689,78.892Z" transform="translate(-32.096 -57.087)"/><path class="c" d="M56.189,99.792l.225-.254-.282-.338-.282.338.225.254c0,.141,0,1.3-.676,1.69a1.152,1.152,0,0,0,.535-.028,3.533,3.533,0,0,0,.2.648,3.533,3.533,0,0,0,.2-.648,1.949,1.949,0,0,0,.535.028C56.161,101.088,56.189,99.932,56.189,99.792Z" transform="translate(-40.356 -72.099)"/><path class="c" d="M44.689,99.792l.225-.254-.282-.338-.282.338.225.254c0,.141,0,1.3-.676,1.69a1.152,1.152,0,0,0,.535-.028,3.532,3.532,0,0,0,.2.648,3.532,3.532,0,0,0,.2-.648,1.949,1.949,0,0,0,.535.028C44.661,101.088,44.689,99.932,44.689,99.792Z" transform="translate(-32.096 -72.099)"/><path class="c" d="M50.489,20.792l.225-.254-.282-.338-.282.338.225.254c0,.141,0,1.3-.676,1.69a1.152,1.152,0,0,0,.535-.028,3.534,3.534,0,0,0,.2.648,3.532,3.532,0,0,0,.2-.648,1.949,1.949,0,0,0,.535.028C50.461,22.087,50.461,20.932,50.489,20.792Z" transform="translate(-36.262 -15.355)"/><path class="c" d="M56.189,10.392l.225-.254L56.132,9.8l-.282.338.225.254c0,.141,0,1.3-.676,1.69a1.152,1.152,0,0,0,.535-.028,3.533,3.533,0,0,0,.2.648,3.534,3.534,0,0,0,.2-.648,1.95,1.95,0,0,0,.535.028C56.161,11.659,56.189,10.5,56.189,10.392Z" transform="translate(-40.356 -7.884)"/><path class="c" d="M44.689,10.392l.225-.254L44.632,9.8l-.282.338.225.254c0,.141,0,1.3-.676,1.69a1.152,1.152,0,0,0,.535-.028,3.533,3.533,0,0,0,.2.648,3.533,3.533,0,0,0,.2-.648,1.949,1.949,0,0,0,.535.028C44.661,11.659,44.689,10.5,44.689,10.392Z" transform="translate(-32.096 -7.884)"/><path class="c" d="M56.189,31.292l.225-.254-.282-.338-.282.338.225.254c0,.141,0,1.3-.676,1.69a1.152,1.152,0,0,0,.535-.028,3.533,3.533,0,0,0,.2.648,3.534,3.534,0,0,0,.2-.648,1.95,1.95,0,0,0,.535.028C56.161,32.559,56.189,31.432,56.189,31.292Z" transform="translate(-40.356 -22.897)"/><path class="c" d="M44.689,31.292l.225-.254-.282-.338-.282.338.225.254c0,.141,0,1.3-.676,1.69a1.152,1.152,0,0,0,.535-.028,3.533,3.533,0,0,0,.2.648,3.533,3.533,0,0,0,.2-.648,1.95,1.95,0,0,0,.535.028C44.661,32.559,44.689,31.432,44.689,31.292Z" transform="translate(-32.096 -22.897)"/><path class="c" d="M13.113,11.055l.028.141a1.75,1.75,0,0,0,.085.282c.113.507.2.648.451.648a.347.347,0,0,0,.31-.2l.056-.169c0-.028.056-.056.085-.056.085,0,.141.113.141.338,0,.056.028.225.056.451a1.994,1.994,0,0,1,.028.394.507.507,0,0,1-.056.282,4.226,4.226,0,0,1,.056.563.947.947,0,0,1-.113.535,1.409,1.409,0,0,1,.056.338,1.262,1.262,0,0,1-.028.31c-.028.225-.056.282-.056.31a.169.169,0,0,0,.028.113.214.214,0,0,1,.028.113c0,.028,0,.056-.028.056l-.169-.085-.2-.113a.476.476,0,0,1-.2-.169c-.169.169-.225.169-.676.31a.673.673,0,0,0-.2.085l-.113.056c-.085,0-.113-.113-.113-.394a2.535,2.535,0,0,1,.056-.507,1.023,1.023,0,0,0-.31-.085.493.493,0,0,0-.141.028h-.028c-.028,0-.056-.028-.056-.085a1.149,1.149,0,0,1,.056-.2l.085-.225a.611.611,0,0,1,.225-.254.707.707,0,0,1,.225-.141l.338-.056c.2-.028.31-.141.31-.282s-.085-.225-.282-.282l-.394-.141A1.375,1.375,0,0,1,12.3,12.8c-.225-.141-.254-.141-.31-.141s-.113.056-.113.169a.259.259,0,0,0,.254.282.1.1,0,0,0,.085-.028.217.217,0,0,1,.085-.028.062.062,0,0,1,.056.056v.028l-.028.141a1.634,1.634,0,0,1-.282.535l-.085.113a1.271,1.271,0,0,1-.479.7.389.389,0,0,0-.113.085.487.487,0,0,1-.085.113c-.028.028-.085.113-.169.225a1.409,1.409,0,0,1-.225.2q-.169.127-.169.169l-.085.141c-.028.028-.056.056-.085.056-.085,0-.141-.085-.2-.225s-.056-.141-.141-.141a.5.5,0,0,0-.169.028l-.113.028H9.592a2.372,2.372,0,0,0-.507.085A.138.138,0,0,1,9,15.422c-.028,0-.028,0-.056-.056a.1.1,0,0,1-.028-.085,1.606,1.606,0,0,1,.282-.732.845.845,0,0,1,.254-.282.414.414,0,0,0-.254-.31L9.057,13.9c-.028,0-.028-.028-.028-.056s.085-.113.2-.169a1.256,1.256,0,0,1,.507-.141.7.7,0,0,1,.451.2c.254.2.31.225.423.225a.372.372,0,0,0,.366-.366.845.845,0,0,0-.225-.479,1.178,1.178,0,0,1-.338-.732.933.933,0,0,1,.113-.423l.085-.141a.1.1,0,0,0,.028-.085c0-.056-.056-.113-.169-.113a1.972,1.972,0,0,0-.648.225.282.282,0,0,0-.169.2.1.1,0,0,0,.028.056l.113.056.028.028a.1.1,0,0,0-.028.056l-.169.225a2.341,2.341,0,0,1-.366.394.211.211,0,0,0-.085.085,1.465,1.465,0,0,1-.085.141,1.3,1.3,0,0,1-.394.394c-.056.056-.113.085-.113.113s-.028.056-.085.113a1.617,1.617,0,0,1-.113.2,1.372,1.372,0,0,1-.225.282l-.254.254A1.5,1.5,0,0,0,7.648,15c-.056.2-.113.31-.141.31s-.028-.028-.085-.056c-.169-.2-.338-.338-.423-.338-.028,0-.056.028-.113.056a.535.535,0,0,1-.254.085l-.338.056a.758.758,0,0,0-.507.282c-.028.028-.056.056-.085.056s-.056-.056-.056-.113v-.085L5.7,15a4.012,4.012,0,0,1,.169-.592l.141-.282a.476.476,0,0,0,.056-.141.513.513,0,0,0-.479-.423c-.056,0-.085-.028-.085-.056a.739.739,0,0,1,.169-.225,1.034,1.034,0,0,1,.563-.225.944.944,0,0,1,.394.113l.2.085a.716.716,0,0,0,.2.056c.2,0,.423-.2.676-.62a1,1,0,0,0,.169-.451c0-.225-.113-.366-.282-.366a.563.563,0,0,0-.394.169.448.448,0,0,0-.141.282v.141c0,.085-.028.141-.085.141s-.2-.113-.563-.563a1.163,1.163,0,0,1-.338-.789c-.31-.394-.394-.563-.394-.845v-.2a.823.823,0,0,1-.282-.62.338.338,0,0,1,.056-.225.927.927,0,0,1-.169-.338l-.056-.2a.941.941,0,0,0-.141-.338C5,8.379,5,8.351,5,8.323c0-.113.085-.141.394-.225a1.589,1.589,0,0,0-.028-.2.792.792,0,0,1,.028-.225l.056-.338a1.293,1.293,0,0,0,.028-.282.755.755,0,0,0-.056-.282.434.434,0,0,0-.085-.2l-.056-.113a.062.062,0,0,1,.056-.056,1.409,1.409,0,0,1,.563.338,1.48,1.48,0,0,1,.7,1.127.42.42,0,0,0,.028.169A.752.752,0,0,1,7,8.689a1.183,1.183,0,0,1-.169.592l-.169.282a.563.563,0,0,0-.085.31,1.073,1.073,0,0,0,.169.535c.141.254.254.338.394.338.225,0,.451-.423.451-.873V9.647a1.383,1.383,0,0,1,.028-.31,1.239,1.239,0,0,0,.028-.254V8.717a.242.242,0,0,0-.085-.169l-.2-.225a1.5,1.5,0,0,1-.451-.817.454.454,0,0,1,.451-.479.563.563,0,0,1,.2.028V7c0-.394.085-.7.2-.7h.056l.169.141.2.113L8.24,6.6c0-.113,0-.113.113-.254a1.668,1.668,0,0,0,.113-.169.256.256,0,0,0,.085-.141c.028-.028.028-.056.056-.085S8.662,5.9,8.69,5.9s.056.028.085.141c.028.056.028.085.2.225l.113.113c.028.028.028.085.085.169,0,.028.028.028.028.085a.955.955,0,0,1,.169-.169l.141-.085c.056-.028.085-.056.113-.056l.056.056c.028.028.028.085.085.141a.941.941,0,0,1,.141.338v.2c.31.085.394.254.394.563a1.127,1.127,0,0,1-.366.761c-.169.2-.169.225-.169.338,0,.676.479,1.042,1.3,1.071h.592a2.9,2.9,0,0,1,.986.169,2.307,2.307,0,0,0,.676.169.169.169,0,0,0,.113-.028c.028-.028.056-.056.056-.085,0-.113-.225-.225-.958-.423-1.493-.423-2.113-1.014-2.113-2a1.38,1.38,0,0,1,1.465-1.352,3.175,3.175,0,0,1,.9.141l.366.141a.479.479,0,0,0,.2.028c.113,0,.2-.113.2-.31,0-.113.028-.141.113-.141s.254.141.423.338a1.287,1.287,0,0,1,.254.592.53.53,0,0,1-.31.479.876.876,0,0,1-.789.451,2.815,2.815,0,0,1-1.24-.507c-.225-.113-.31-.169-.423-.169-.169,0-.254.085-.254.225s.113.225.366.31a1.344,1.344,0,0,1,.648.366,2.273,2.273,0,0,1,.958.366,1.617,1.617,0,0,1,1.3,1.409A.978.978,0,0,1,13.592,11a.476.476,0,0,1-.479.056" transform="translate(-4.155 -5.083)"/><path class="f" d="M16.526,16.321A.792.792,0,0,1,16.5,16.1v-.085l.028-.141v-.113a.707.707,0,0,0-.056-.282l-.113-.141-.085-.169c0-.028-.028-.056-.028-.085a.062.062,0,0,1,.056-.056c.028,0,.028,0,.113.056a.1.1,0,0,0,.085.028q.085,0,.085-.254a.563.563,0,0,0-.056-.31l-.141-.141-.113-.113c-.028-.028-.056-.056-.056-.085s.028-.056.085-.056a.716.716,0,0,1,.2.056h.028c.028,0,.056-.028.056-.085v-.028l-.028-.2-.056-.2c-.028-.056-.028-.085-.056-.085h-.028l-.225.056H16.16a.78.78,0,0,1-.7-.563l-.169-.592a1.409,1.409,0,0,0-.423-.563.437.437,0,0,0-.169-.085l-.169-.028a.062.062,0,0,1-.056-.056c0-.028.028-.056.113-.056l.31.028a2.234,2.234,0,0,1,.479.113,2.3,2.3,0,0,0,.62.141.648.648,0,0,0,.732-.648,1.1,1.1,0,0,0-.366-.789.845.845,0,0,0-.31-.2.062.062,0,0,0-.056.056v.113h0c0,.056-.028.085-.056.085s-.085-.056-.169-.169a.845.845,0,0,0-.732-.563c-.056,0-.085.028-.085.056s.028.056.056.141l.085.169a.217.217,0,0,1,.028.085l-.028.028a.192.192,0,0,1-.141-.085l-.141-.141L14.7,9.982a.823.823,0,0,0-.366-.31,1.533,1.533,0,0,0-.225-.113.169.169,0,0,0-.113-.028.062.062,0,0,0-.056.056.1.1,0,0,0,.028.085c.056.113.085.141.085.169a.062.062,0,0,1-.056.056c-.056,0-.225-.141-.338-.338a.91.91,0,0,1-.169-.507.651.651,0,0,1,.676-.676,1.375,1.375,0,0,1,.676.225l.423.254a1.2,1.2,0,0,0,.507.169,1.045,1.045,0,0,0,.254-.056.214.214,0,0,0,.113-.056c.028-.028.056-.028.056-.056s0-.028-.028-.028L16.1,8.8l-.2-.028a.648.648,0,0,1-.254-.085L15.2,8.461c-.141-.085-.254-.141-.31-.169s-.113-.056-.113-.085,0-.028.028-.028a.1.1,0,0,1,.085.028.67.67,0,0,0,.338.113l.394.141a3.023,3.023,0,0,0,.592.113.313.313,0,0,0,.31-.31.67.67,0,0,0-.169-.394L16.3,7.813c-.028,0-.056.028-.056.085v.085l.028.113a.189.189,0,0,1-.169.2.307.307,0,0,1-.141-.028l-.592-.2a2.679,2.679,0,0,0-.958-.2A1.158,1.158,0,0,0,13.174,9c0,.7.507,1.183,1.747,1.606s1.409.535,1.409.845a.4.4,0,0,1-.394.338.563.563,0,0,1-.225-.028c-.028,0-.254-.056-.62-.141a4.744,4.744,0,0,0-1.127-.141,2.391,2.391,0,0,0-1.8.563c-.113.113-.141.113-.254.113h-.2a.282.282,0,0,0-.254.169,1.279,1.279,0,0,0-.141.254.146.146,0,0,1-.113.056c-.085,0-.141-.056-.225-.282a1.011,1.011,0,0,0-.2-.282L10.61,11.9l-.056-.056a.1.1,0,0,1,.028-.085,1.254,1.254,0,0,0,.141-.225c.028-.113.028-.113.085-.113s.085.056.085.254a.648.648,0,0,0,.085.254l.113.225c0,.028.056.056.085.056.085,0,.225-.225.254-.451s.056-.254.085-.254.028,0,.028.028l.085.169a.5.5,0,0,0,.113.141c.056.028.085.056.113.056h0c.085,0,.085-.056.113-.225v-.085l-.028-.141v-.085c0-.056.028-.085.056-.085s.056,0,.056.028l.085.085a.242.242,0,0,0,.169.085c.085,0,.113-.028.113-.085s-.028-.085-.085-.2l-.056-.113c-.085-.141-.141-.2-.2-.2h-.085l-.113.056c-.028,0-.056.028-.085.028a.028.028,0,0,1-.028-.028,1.02,1.02,0,0,1,.141-.366,1.668,1.668,0,0,0,.141-.7c.028-.479.085-.789.169-.789s.056.028.056.141v.2a.341.341,0,0,0,.028.141c.085,0,.169-.113.254-.31a.716.716,0,0,0,.056-.2V9.024l-.169-.338-.169-.056a.1.1,0,0,1-.056-.028V8.376l-.028-.141-.028-.085L12.1,8.038a1.028,1.028,0,0,0-.366.282c-.085.085-.113.141-.141.141A.062.062,0,0,1,11.54,8.4a.307.307,0,0,1,.028-.141V8.207a.594.594,0,0,0-.31-.507l-.056.085-.056.085-.113.141a.938.938,0,0,0-.085.169c0,.028-.028.085-.028.113v.056c0,.085,0,.085-.028.085h-.028l-.056-.085-.113-.113-.141-.113-.085-.056a.1.1,0,0,0-.028.085.476.476,0,0,0-.056.141V8.6c0,.085-.028.113-.056.113s-.056-.028-.113-.056a.211.211,0,0,0-.141-.028c-.141,0-.225.085-.225.254a.873.873,0,0,0,.141.479L10.1,9.5c.028.028.085.085.085.056l.028-.2-.028-.141V9.165c0-.056.028-.085.056-.085s.085.056.113.2l.085.338.085.423a2.617,2.617,0,0,0,.113.366c.085.169.113.282.141.31.113.141.113.141.113.169a.028.028,0,0,1-.028.028.1.1,0,0,1-.085-.028c-.028-.028-.056-.028-.113-.028h-.085c-.141,0-.169.113-.169.732a3.916,3.916,0,0,0,.169,1.1l.2.479a.662.662,0,0,1,.056.225A3.3,3.3,0,0,1,9,15.56a.727.727,0,0,0-.507.732v.113a.524.524,0,0,1,.31-.113c.282-.056.31-.113.366-.225l.028-.113c0-.056.028-.056.254-.169a.3.3,0,0,0,.141-.113c.056-.085.085-.113.113-.113s.028,0,.028.028v.028l-.085.254v.056a.513.513,0,0,0,.31.451.8.8,0,0,1,.113-.366l.169-.254a.682.682,0,0,0,.085-.394.868.868,0,0,0-.028-.282V15c0-.056.028-.085.056-.085s.056,0,.056.028l.028.169c0,.028.056.056.085.056.085,0,.2-.113.31-.31a.377.377,0,0,0,.056-.225v-.113l-.028-.141v-.028c0-.056.028-.113.085-.113s.028,0,.028.028l.056.2c.028.056.056.113.113.113s.169-.113.225-.225a.78.78,0,0,0,.085-.366c0-.2.028-.254.085-.254s.028,0,.056.028l.028.113c0,.056.028.085.056.085a.538.538,0,0,0,.2-.225.1.1,0,0,0,.028-.085.152.152,0,0,0-.085-.113c-.085-.085-.113-.085-.113-.2a.524.524,0,0,1,.113-.31.845.845,0,0,0,.113-.225c.113-.225.141-.282.2-.282s.056.028.056.085a.1.1,0,0,1-.028.085.214.214,0,0,0-.028.113.062.062,0,0,0,.056.056,1.107,1.107,0,0,0,.169-.056,1.163,1.163,0,0,1,.254-.113l.31-.113a.521.521,0,0,1,.338,0,.744.744,0,0,0,.2.028.132.132,0,0,0,.141-.141.637.637,0,0,0-.141-.282c-.028-.028-.056-.056-.056-.085v-.028c0-.028.028-.028.056-.028a1.042,1.042,0,0,1,.338.366c.789,1.211,1.042,1.521,1.578,1.69s.676.282.676.592a1.206,1.206,0,0,1-.282.648c-.394.563-.479.761-.479,1.127v.056c.056-.028.085-.028.113-.056.085-.028.113-.056.141-.056l.225-.056c.056,0,.141-.113.141-.2v-.028l-.028-.2V15.9a.3.3,0,0,1,.085-.2c.028,0,.028-.028.056-.028s.056.028.085.056l.141.31c.028.113.085.2.282.282" transform="translate(-6.666 -6.376)"/><path class="f" d="M10.769,15c-.056,0-.113.056-.113.169l-.028.169a1.057,1.057,0,0,0-.028.225c0,.141.028.225.085.225s.141-.113.2-.225a.563.563,0,0,0,.028-.2c0-.056-.028-.141-.028-.2-.028-.113-.085-.169-.113-.169" transform="translate(-8.177 -11.619)"/><path class="f" d="M7.063,10.3l.113.113a1.437,1.437,0,0,1,.31,1.042,4.194,4.194,0,0,1-.028.479c0,.141-.028.282-.028.366,0,1.127.366,1.972.845,1.972.141,0,.254-.085.394-.282.028-.028.056-.056.085-.056s.056.028.056.085l.028.2.028.169.028.2.028.169v.028c0,.056-.028.085-.056.085l-.169.028A.507.507,0,0,0,8.444,15c-.141.085-.225.141-.225.169l-.113.2a.062.062,0,0,1-.056.056c-.056,0-.141-.085-.225-.254a1.175,1.175,0,0,1-.141-.282c0-.028.028-.028.085-.028h.31a.062.062,0,0,0,.056-.056.1.1,0,0,0-.028-.056l-.394-.169a.814.814,0,0,1-.31-.31,1.465,1.465,0,0,1-.169-.394.076.076,0,0,1,.085-.085c.028,0,.028,0,.056.028a.169.169,0,0,0,.113.028.062.062,0,0,0,.056-.056q0-.042-.085-.085a1.127,1.127,0,0,1-.535-.761c0-.056.028-.113.056-.113h.056l.113.028h0c.056,0,.085-.028.085-.056s-.028-.056-.085-.085a1.465,1.465,0,0,0-.141-.085.282.282,0,0,1-.113-.141,2.288,2.288,0,0,1-.141-.282l-.113-.254a1.465,1.465,0,0,1-.085-.141.349.349,0,0,1-.056-.085.544.544,0,0,1,.282-.085c.113,0,.2.085.282.31.056.141.113.225.141.225s.028-.028.028-.113a1.056,1.056,0,0,0-.028-.282.563.563,0,0,1-.028-.2l-.028-.113-.113-.056c-.028,0-.056-.056-.085-.085a.375.375,0,0,1-.085-.2.42.42,0,0,1,.028-.169,2.71,2.71,0,0,0,.113-.592V10.3Z" transform="translate(-5.232 -8.244)"/><path class="f" d="M9.427,32.925a1.794,1.794,0,0,1-.254-.056A.437.437,0,0,1,9,32.785a.975.975,0,0,0-.338-.085.594.594,0,0,0-.366.141l.085.056.169.113.169.141c.056.028.085.056.141.056a.761.761,0,0,0,.563-.282" transform="translate(-6.525 -24.333)"/><path class="f" d="M21.54,29.89a.679.679,0,0,1,.169-.225c.254-.225.366-.366.366-.507v-.2c0-.113.028-.141.085-.141s.056,0,.056.028l.056.113c0,.028.028.028.085.028s.085-.028.141-.113l.085-.113a.206.206,0,0,0,.056-.169.214.214,0,0,0-.028-.113c0-.028-.028-.056-.056-.141a.307.307,0,0,1-.028-.141.076.076,0,0,1,.085-.085c.028,0,.056,0,.056.028l.085.085c.028.028.028.028.056.028a.09.09,0,0,0,.085-.085l.085-.141A.1.1,0,0,0,23,27.947q0-.042-.085-.085l-.113-.056a.7.7,0,0,1-.282-.592.1.1,0,0,1,.028-.085l.056-.141a.254.254,0,0,0,.028-.141.544.544,0,0,0-.085-.282c-.085-.113-.113-.169-.113-.2-.056-.141-.085-.169-.113-.169h-.056l-.056.028-.113.056-.113.141-.113.056c-.085.028-.141.2-.141.338,0,.225.028.31.338.845a1.3,1.3,0,0,1,.2.507c0,.366-.338.62-.986.789l-.423.113a.758.758,0,0,0-.563.648.682.682,0,0,1,.394-.085h.169a.208.208,0,0,0,.225-.113.687.687,0,0,1,.31-.254l.141-.056.113-.056h.028c.028,0,.056,0,.056.028a.256.256,0,0,1-.085.141.445.445,0,0,0-.141.338c-.085.085-.056.113.028.225" transform="translate(-15.145 -19.664)"/><path class="f" d="M20.6,34.013a1.211,1.211,0,0,1,.282.254c.085.113.113.141.2.141a.307.307,0,0,0,.141-.028l.085-.028c.141-.028.2-.056.2-.085s-.028-.056-.056-.085l-.113-.085-.113-.085a.513.513,0,0,0-.31-.113.685.685,0,0,0-.31.113" transform="translate(-15.36 -25.195)"/><path class="f" d="M31,34.992h.254a.4.4,0,0,0,.394-.338q0-.085-.169-.085c-.225-.056-.366.085-.479.423" transform="translate(-22.83 -25.667)"/><path class="c" d="M18.813,12.1c0,.085.056.141.085.141s.085-.113.169-.254a1.434,1.434,0,0,0,.254-.535.062.062,0,0,0-.056-.056h0l-.113.085a2.55,2.55,0,0,1-.31.169c-.113.028-.141.085-.141.141v.085l.056.141Z" transform="translate(-13.995 -9.034)"/><path class="c" d="M16.094,11.625l.141.085c.028.028.056.056.056.085v.056a.445.445,0,0,0,0,.2.155.155,0,0,1-.169.169c-.028,0-.028-.028-.085-.113l-.2-.225a.893.893,0,0,1-.141-.394v-.028c0-.056.028-.056.056-.056s.056.028.113.056Z" transform="translate(-11.841 -9.034)"/><path class="c" d="M16.963,15.379h-.169a.307.307,0,0,0-.113-.056.211.211,0,0,0-.141-.028.13.13,0,0,0-.141.113,1.062,1.062,0,0,0,.113.394l.113.282c.113.254.2.366.338.366s.141-.113.225-.31c.169-.451.282-.507.282-.676,0-.113-.028-.141-.113-.141l-.085-.028-.141.085Z" transform="translate(-12.343 -11.829)"/><path class="f" d="M17.8,16.5h-.113c-.028,0-.028,0-.056.028l-.028.056.056.225.028.2c.028.113.056.141.141.141s.141-.056.141-.169l.028-.2a.487.487,0,0,1,.028-.2c0-.028,0-.028-.028-.056a.1.1,0,0,0-.056-.028Z" transform="translate(-13.205 -12.697)"/><path class="c" d="M73.416,10.768l.028.141a1.748,1.748,0,0,0,.085.282c.113.507.2.648.451.648a.347.347,0,0,0,.31-.2l.056-.169c0-.028.056-.056.085-.056q.127,0,.169.338c0,.085.028.225.056.451a2.133,2.133,0,0,1,.028.423.462.462,0,0,1-.056.254l.028.113a1.76,1.76,0,0,1,.028.338,1.085,1.085,0,0,1-.113.648,1.841,1.841,0,0,1,.056.31,1.517,1.517,0,0,1-.028.31l-.028.282v.169a.214.214,0,0,1,.028.113.1.1,0,0,1-.028.056l-.169-.085-.2-.113a.476.476,0,0,1-.2-.169.8.8,0,0,1-.394.225c-.31.085-.423.113-.479.169l-.113.056c-.056,0-.113-.141-.113-.338a2.279,2.279,0,0,1,.056-.563,1.141,1.141,0,0,0-.338-.085.493.493,0,0,0-.141.028h-.028c-.028,0-.028-.028-.028-.085a1.209,1.209,0,0,1,.141-.423.845.845,0,0,1,.451-.394l.338-.056c.2-.028.31-.141.31-.282s-.085-.225-.282-.282l-.366-.141c-.141-.056-.254-.113-.366-.169a.906.906,0,0,1-.2-.113.1.1,0,0,0-.085-.028.132.132,0,0,0-.141.141.282.282,0,0,0,.254.282.1.1,0,0,0,.085-.028.1.1,0,0,1,.085-.028.09.09,0,0,1,.085.085,1.225,1.225,0,0,1-.2.563l-.113.141-.085.113a1.186,1.186,0,0,1-.479.7.389.389,0,0,0-.113.085.487.487,0,0,1-.085.113c-.028.028-.085.113-.169.225a1.409,1.409,0,0,1-.225.2q-.169.127-.169.169l-.085.141c-.028.028-.028.056-.085.056s-.141-.085-.2-.225-.056-.141-.141-.141a.5.5,0,0,0-.169.028l-.113.028h-.31a1.364,1.364,0,0,0-.507.085.138.138,0,0,1-.085.028c-.056,0-.056-.056-.056-.141a1.738,1.738,0,0,1,.507-1.014c-.056-.169-.141-.282-.254-.31a.907.907,0,0,1-.169-.056c-.028,0-.028-.028-.028-.056s.056-.113.2-.169a1.056,1.056,0,0,1,.479-.141.707.707,0,0,1,.479.2c.254.2.31.225.423.225a.372.372,0,0,0,.366-.366.845.845,0,0,0-.225-.479,1.127,1.127,0,0,1-.338-.761.845.845,0,0,1,.2-.535.138.138,0,0,0,.028-.085c0-.056-.085-.085-.169-.085a.758.758,0,0,0-.366.113c-.282.113-.423.254-.423.31s.028.056.056.085l.085.056.028.028-.028.056a1.051,1.051,0,0,0-.169.225,2.518,2.518,0,0,1-.366.394q-.085.042-.085.085l-.085.141a1.054,1.054,0,0,1-.394.394c-.056.056-.113.085-.113.113a.389.389,0,0,0-.085.113,2.071,2.071,0,0,1-.338.479l-.254.254a2.192,2.192,0,0,0-.254.563c-.085.225-.113.31-.169.31s-.028-.028-.056-.056c-.169-.2-.338-.338-.423-.338-.028,0-.056.028-.113.056a.535.535,0,0,1-.254.085l-.338.056a.648.648,0,0,0-.507.282c-.028.028-.056.056-.085.056s-.056-.056-.056-.113v-.085a1.86,1.86,0,0,0,.056-.254,3.18,3.18,0,0,1,.169-.592l.169-.282a.476.476,0,0,0,.056-.141c0-.2-.2-.366-.479-.423-.056,0-.085-.028-.085-.056s.085-.113.169-.2a.831.831,0,0,1,.986-.113l.2.085a.715.715,0,0,0,.2.056c.2,0,.423-.2.676-.62a.983.983,0,0,0,.169-.479c0-.225-.113-.366-.282-.366a.563.563,0,0,0-.394.169.527.527,0,0,0-.141.282v.141c0,.085-.028.113-.085.113s-.141-.056-.31-.254c-.056-.085-.141-.169-.254-.31a.955.955,0,0,1-.338-.789,1.356,1.356,0,0,1-.394-.845v-.2a.749.749,0,0,1-.254-.62.42.42,0,0,1,.056-.254.927.927,0,0,1-.169-.338l-.056-.2a1.22,1.22,0,0,0-.141-.338c-.085-.113-.085-.141-.085-.169,0-.085.085-.141.31-.225l.085-.028a1.589,1.589,0,0,0-.028-.2.792.792,0,0,1,.028-.225l.056-.338a1.383,1.383,0,0,0,.028-.31.611.611,0,0,0-.056-.282.673.673,0,0,0-.085-.2c-.028-.056-.056-.085-.056-.113s.028-.056.085-.056a.1.1,0,0,1,.085.028,3.006,3.006,0,0,1,.873.7,1.3,1.3,0,0,1,.31.93A.735.735,0,0,1,67.5,8.4a1.073,1.073,0,0,1-.169.535,1.247,1.247,0,0,0-.169.282.563.563,0,0,0-.085.31,1.163,1.163,0,0,0,.169.535c.141.225.254.338.394.338.225,0,.451-.423.451-.873V9.19l.028-.225.028-.254.028-.225V8.374c0-.085-.028-.113-.31-.423a1.31,1.31,0,0,1-.451-.873.445.445,0,0,1,.451-.451.563.563,0,0,1,.2.028v-.31l.056-.225c.056-.2.056-.225.141-.225h.056l.169.141.2.113.056.056c0-.113.028-.141.113-.254a.589.589,0,0,0,.113-.169l.085-.141.056-.085c.028-.056.056-.056.085-.056s.028.028.056.141a.152.152,0,0,0,.085.113l.113.113a.657.657,0,0,1,.2.366l.169-.169.141-.085a.349.349,0,0,0,.085-.056.1.1,0,0,1,.028.056c.028.056.056.085.085.141.113.2.113.225.113.338v.2a.49.49,0,0,1,.394.563,1.152,1.152,0,0,1-.338.761c-.141.2-.169.254-.169.394,0,.648.479,1.014,1.3,1.042h.592a2.9,2.9,0,0,1,.986.169,2.307,2.307,0,0,0,.676.169c.085,0,.169-.056.169-.113,0-.141-.225-.225-.958-.451-1.493-.423-2.113-1.014-2.113-2a1.409,1.409,0,0,1,1.465-1.352,3.175,3.175,0,0,1,.9.141l.366.141a.479.479,0,0,0,.2.028c.141,0,.169-.085.2-.31,0-.113.028-.141.113-.141a.8.8,0,0,1,.423.338,1.2,1.2,0,0,1,.225.592.513.513,0,0,1-.31.451.876.876,0,0,1-.789.451,2.817,2.817,0,0,1-1.24-.507.744.744,0,0,0-.423-.169c-.169,0-.254.085-.254.225s.085.225.366.31c.423.141.507.2.648.366a2.273,2.273,0,0,1,.958.366c.817.254,1.3.761,1.3,1.437a.947.947,0,0,1-.958,1.014c-.254.254-.338.254-.563.2" transform="translate(-47.611 -4.796)"/><path class="f" d="M76.042,16.464a.419.419,0,0,1-.028-.169v-.113a1.761,1.761,0,0,0,.028-.338.4.4,0,0,0-.056-.169l-.113-.141a.344.344,0,0,1-.113-.254c0-.056,0-.056.056-.056h.028a.349.349,0,0,0,.085.056.1.1,0,0,0,.085.028q.085,0,.085-.254a.563.563,0,0,0-.169-.451l-.113-.113a.1.1,0,0,1-.028-.085c0-.056.028-.085.056-.085a.214.214,0,0,1,.113.028l.113.028H76.1c.028,0,.056-.028.056-.085v-.028l-.028-.2c-.028-.2-.056-.282-.113-.282h-.028l-.225.056h-.028a.811.811,0,0,1-.7-.563l-.169-.592a1.409,1.409,0,0,0-.423-.563.375.375,0,0,0-.2-.085l-.169-.028a.062.062,0,0,1-.056-.056c0-.028.028-.056.085-.056a3.119,3.119,0,0,1,.789.141,2.724,2.724,0,0,0,.592.141c.451,0,.732-.225.732-.62a1.321,1.321,0,0,0-.169-.592,1.152,1.152,0,0,0-.423-.394.1.1,0,0,0-.085-.028.062.062,0,0,0-.056.056v.113h0c0,.056-.028.085-.056.085a.3.3,0,0,1-.169-.169.82.82,0,0,0-.7-.563c-.056,0-.085.028-.085.056s.028.056.056.113l.085.169a.1.1,0,0,1,.028.085.028.028,0,0,1-.028.028.192.192,0,0,1-.141-.085l-.141-.141-.113-.169a.8.8,0,0,0-.366-.31L73.619,9.7a.214.214,0,0,0-.113-.028c-.028,0-.028,0-.028.028a.214.214,0,0,0,.028.113.437.437,0,0,1,.085.169.062.062,0,0,1-.056.056q-.085,0-.338-.338a.91.91,0,0,1-.169-.507A.668.668,0,0,1,73.7,8.52a1.468,1.468,0,0,1,.676.225L74.8,9a1.341,1.341,0,0,0,.507.169.563.563,0,0,0,.254-.056.146.146,0,0,0,.113-.056c.028,0,.028-.028.028-.056s-.028-.056-.085-.056a2.535,2.535,0,0,1-.9-.366c-.169-.113-.254-.169-.31-.169a.126.126,0,0,1-.113-.085l.028-.028h.056l.394.141.366.141a2.907,2.907,0,0,0,.62.113.265.265,0,0,0,.282-.282.674.674,0,0,0-.056-.254c-.056-.113-.141-.2-.169-.2s-.056.028-.056.085V8.21c0,.113-.056.2-.169.2a.307.307,0,0,1-.141-.028l-.592-.2a2.679,2.679,0,0,0-.958-.2,1.158,1.158,0,0,0-1.24,1.127c0,.732.507,1.183,1.775,1.606s1.38.535,1.38.845a.358.358,0,0,1-.394.338.62.62,0,0,1-.225-.028c-.056,0-.254-.056-.62-.141a4.744,4.744,0,0,0-1.127-.141,2.321,2.321,0,0,0-1.8.563.282.282,0,0,1-.282.113h-.2a.282.282,0,0,0-.254.169l-.141.254a.146.146,0,0,1-.113.056c-.085,0-.141-.056-.225-.282a2.477,2.477,0,0,0-.169-.282l-.2-.169-.056-.056c0-.028.028-.056.056-.085s.056-.085.085-.113a.214.214,0,0,0,.056-.113v-.085a.062.062,0,0,1,.056-.056c.056,0,.056.028.085.254a.648.648,0,0,0,.085.254l.113.225c0,.028.056.056.085.056.085,0,.225-.225.254-.451s.056-.254.085-.254.056.028.141.169a.5.5,0,0,0,.113.141c.056.028.085.056.113.056h0c.085,0,.113-.056.113-.225v-.085l-.028-.141v-.085c0-.056.028-.085.056-.085s.056,0,.056.028l.085.085a.242.242,0,0,0,.169.085c.085,0,.113-.028.113-.085s0-.056-.085-.2l-.056-.113c-.085-.141-.113-.2-.2-.2h-.085L71.365,11c-.028,0-.056.028-.085.028A.028.028,0,0,1,71.252,11a1.02,1.02,0,0,1,.141-.366,1.927,1.927,0,0,0,.141-.7l.056-.423c.028-.254.056-.366.113-.366s.028,0,.028.028l.028.141v.113a.781.781,0,0,0,.028.225c.028,0,.085-.056.141-.113l.085-.169a.871.871,0,0,0,.056-.225c0-.2-.085-.31-.366-.366a.1.1,0,0,1-.056-.028V8.52l-.028-.113-.028-.085-.056-.113-.085.056c-.2.113-.225.141-.282.225s-.113.141-.141.141a.1.1,0,0,1-.056-.028L71,8.463V8.435a.676.676,0,0,0-.31-.535l-.056.085-.056.085-.113.141a.5.5,0,0,0-.113.282v.056c0,.085,0,.085-.056.085h-.028l-.085-.085L70.1,8.435l-.169-.113-.085-.056a.763.763,0,0,0-.085.451V8.8c0,.085-.028.141-.056.141s-.056-.028-.113-.056a.211.211,0,0,0-.141-.028.231.231,0,0,0-.225.254.71.71,0,0,0,.141.451c.085.113.169.225.2.225a.687.687,0,0,0,.028-.2l-.028-.141V9.393c0-.056.028-.085.056-.085s.085.056.113.2l.085.338.085.423a2.62,2.62,0,0,0,.113.366c.085.169.113.282.141.31.113.141.113.141.113.169a.028.028,0,0,1-.028.028.1.1,0,0,1-.085-.028c-.028-.028-.056-.028-.113-.028h-.056c-.141,0-.169.113-.169.732a4.316,4.316,0,0,0,.169,1.127l.2.479a.662.662,0,0,1,.056.225,3.323,3.323,0,0,1-1.831,2.169c-.366.169-.479.366-.507.845a.684.684,0,0,1,.31-.113c.254-.085.31-.113.366-.225l.028-.113c.028-.056.056-.085.225-.169a.614.614,0,0,0,.141-.113c.056-.085.085-.113.113-.113s.028.028.028.056V15.9L69,16.154v.056a.513.513,0,0,0,.31.451c0-.056.028-.085.028-.113a1.141,1.141,0,0,1,.085-.282l.169-.254c.056-.085.085-.141.085-.394v-.366c0-.056.028-.085.056-.085s.056,0,.056.028l.028.169c0,.028.056.056.085.056.085,0,.2-.113.31-.31a.338.338,0,0,0,.056-.225,1.056,1.056,0,0,0-.028-.282v-.056c0-.056.028-.085.056-.085s.028,0,.056.028l.056.2c.028.056.056.113.113.113.141,0,.282-.282.31-.592,0-.2.028-.254.085-.254s.028,0,.056.028L71,14.1c0,.056.028.085.056.085s.056-.028.113-.113c.028-.028.056-.085.085-.113a.1.1,0,0,0,.028-.085c0-.056,0-.056-.085-.113a.282.282,0,0,1-.113-.2A1.127,1.127,0,0,1,71.309,13c.141-.254.169-.282.2-.282s.056.028.056.085a.1.1,0,0,1-.028.085.214.214,0,0,0-.028.113c0,.028.028.056.085.056A.4.4,0,0,0,71.759,13a1.164,1.164,0,0,1,.254-.113,1.505,1.505,0,0,0,.31-.113.417.417,0,0,1,.2-.028.358.358,0,0,1,.169.028.744.744,0,0,0,.2.028.132.132,0,0,0,.141-.141.583.583,0,0,0-.056-.169.845.845,0,0,0-.085-.113c-.028-.028-.056-.056-.056-.085v-.028c0-.028.028-.028.056-.028.085,0,.2.141.338.366.7,1.155,1.042,1.521,1.578,1.69s.676.282.676.592a1.206,1.206,0,0,1-.282.648,1.837,1.837,0,0,0-.479,1.127v.085c.056-.028.085-.028.113-.056.085-.028.113-.056.141-.056l.225-.056a.211.211,0,0,0,.141-.2v-.028l-.028-.2v-.028c0-.113.056-.2.113-.2a.062.062,0,0,1,.056.056l.141.31c.169,0,.225.085.423.169" transform="translate(-49.335 -6.52)"/><path class="f" d="M70.5,15.366v.225c0,.141.028.2.085.2s.141-.113.2-.225a.823.823,0,0,0,.056-.254.24.24,0,0,0-.056-.169c-.028-.113-.085-.141-.141-.141s-.113.113-.141.366" transform="translate(-51.202 -11.619)"/><path class="f" d="M67.079,10.013l.141.113a1.369,1.369,0,0,1,.31.93V11.2l-.028.423v.366c0,1.183.338,1.972.845,1.972a.583.583,0,0,0,.394-.282c.028-.028.056-.056.085-.056s.056.028.056.085l.028.2.028.169c0,.085.028.141.028.2a.5.5,0,0,1,.028.169c0,.085-.028.113-.225.141a.507.507,0,0,0-.254.113c-.141.085-.225.141-.225.169l-.113.2a.062.062,0,0,1-.056.056c-.056,0-.113-.085-.225-.254a2.23,2.23,0,0,1-.141-.282c0-.028.028-.028.085-.028h.31a.062.062,0,0,0,.056-.056c0-.028-.028-.028-.028-.056l-.394-.169a.786.786,0,0,1-.31-.31.845.845,0,0,1-.169-.394c0-.056.028-.113.085-.113s.028,0,.056.028a.214.214,0,0,0,.113.028c.028,0,.028,0,.056-.028s.028-.028.028-.056-.028-.056-.085-.085a1.127,1.127,0,0,1-.535-.761c0-.056.028-.113.056-.113h.056a1.22,1.22,0,0,1,.141.028c.056,0,.085-.028.085-.056s-.028-.056-.085-.085c-.225-.113-.282-.169-.423-.507a3.437,3.437,0,0,0-.254-.479.544.544,0,0,1,.282-.085c.113,0,.2.085.282.31.056.141.113.225.141.225s.028-.028.028-.113a1.056,1.056,0,0,0-.028-.282.563.563,0,0,1-.028-.2l-.028-.113-.113-.056a.363.363,0,0,1-.141-.31.358.358,0,0,1,.028-.169s.028-.085.056-.2a2.625,2.625,0,0,0,.056-.394V9.9Z" transform="translate(-48.401 -7.956)"/><path class="f" d="M69.255,32.925a.845.845,0,0,1-.423-.141.974.974,0,0,0-.338-.085.746.746,0,0,0-.394.141l.085.056.169.113.169.141c.056.028.085.056.141.056a.811.811,0,0,0,.592-.282" transform="translate(-49.479 -24.333)"/><path class="f" d="M81.34,29.89a.679.679,0,0,1,.169-.225c.254-.225.366-.366.366-.507v-.2c0-.113.028-.141.085-.141s.056,0,.056.028l.056.113c0,.028.028.028.085.028s.113-.056.225-.225a.282.282,0,0,0,.056-.169.214.214,0,0,0-.028-.113c0-.028-.028-.056-.056-.141a.307.307,0,0,1-.028-.141.076.076,0,0,1,.085-.085c.028,0,.056,0,.056.028l.085.085c.028.028.028.028.056.028a.152.152,0,0,0,.113-.085l.085-.141a.1.1,0,0,0,.028-.085q0-.042-.085-.085l-.113-.056a.648.648,0,0,1-.282-.563.214.214,0,0,1,.028-.113l.056-.141a.307.307,0,0,0,.028-.141.631.631,0,0,0-.085-.282,2.185,2.185,0,0,1-.113-.2c-.056-.141-.085-.169-.141-.169s-.056,0-.113.056l-.085.056-.113.141-.141.056c-.085.028-.141.2-.141.338,0,.2.056.31.338.817a1.487,1.487,0,0,1,.2.507c0,.366-.366.676-.986.789-.732.141-.9.282-.986.732a.682.682,0,0,1,.394-.085h.169a.208.208,0,0,0,.225-.113.687.687,0,0,1,.31-.254l.141-.056.113-.056h.028c.028,0,.056,0,.056.028a.256.256,0,0,1-.085.141.594.594,0,0,0-.141.31.217.217,0,0,0,.028.282" transform="translate(-58.098 -19.664)"/><path class="f" d="M80.5,34.056a1.212,1.212,0,0,1,.282.254c.085.113.085.141.2.141a.307.307,0,0,0,.141-.028l.085-.028c.141-.028.2-.056.2-.085a.1.1,0,0,0-.028-.056l-.113-.085-.113-.085a.5.5,0,0,0-.282-.113.428.428,0,0,0-.366.085" transform="translate(-58.385 -25.239)"/><path class="f" d="M90.8,34.992h.282c.085,0,.141,0,.169-.028a.611.611,0,0,0,.169-.2.169.169,0,0,0,.028-.113c0-.056-.056-.085-.141-.085-.254-.056-.394.085-.507.423" transform="translate(-65.784 -25.667)"/><path class="c" d="M78.613,12.1c0,.085.056.141.085.141s.085-.141.2-.282a1.2,1.2,0,0,0,.225-.507.062.062,0,0,0-.056-.056h0l-.113.085a1.009,1.009,0,0,1-.31.169c-.113.028-.141.085-.141.141v.085l.085.169Z" transform="translate(-56.949 -9.034)"/><path class="c" d="M75.669,11.356a.214.214,0,0,0-.113-.056.062.062,0,0,0-.056.056v.028a1.219,1.219,0,0,0,.028.141,1.163,1.163,0,0,0,.113.254l.141.225a.282.282,0,0,0,.2.113h0a.1.1,0,0,0,.056-.028l.028-.169.056-.169v-.028a.147.147,0,0,0-.056-.113l-.141-.085Z" transform="translate(-54.794 -8.962)"/><path class="c" d="M76.763,15.379h-.169a.307.307,0,0,0-.113-.056.211.211,0,0,0-.141-.028.132.132,0,0,0-.141.141.969.969,0,0,0,.113.366,2.92,2.92,0,0,1,.113.282c.113.254.2.366.338.366s.2-.085.282-.282l.113-.394c.056-.113.169-.169.169-.282a.217.217,0,0,0-.225-.2h-.056l-.141.085Z" transform="translate(-55.296 -11.829)"/><path class="f" d="M77.6,16.5h-.113c-.028,0-.028,0-.056.028s-.028.028-.028.056l.056.225.028.2c.028.113.028.141.113.141a.163.163,0,0,0,.169-.169l.028-.2a.487.487,0,0,1,.028-.2c0-.028,0-.028-.028-.056a.1.1,0,0,0-.056-.028Z" transform="translate(-56.159 -12.697)"/><path class="c" d="M14.36,71.555a1.042,1.042,0,0,1,.113.423l.028.366c.028.366.141.563.366.563a.33.33,0,0,0,.2-.056l.113-.113h.028c.056,0,.085.028.085.113v.141a3.226,3.226,0,0,0,.028.423,1.606,1.606,0,0,1,.028.366.845.845,0,0,1-.085.451,1.82,1.82,0,0,1,.113.535.716.716,0,0,1-.113.451,2.513,2.513,0,0,1,.056.31,1.617,1.617,0,0,1-.028.338,1.186,1.186,0,0,0-.028.423v.028c0,.056-.028.085-.056.085a.152.152,0,0,1-.113-.085c-.056-.085-.085-.085-.141-.085s-.085.028-.169.31a1.375,1.375,0,0,1-.225.338,1.909,1.909,0,0,0-.169.254c-.028.113-.056.169-.056.2s-.028.028-.056.056h0q-.211,0-.507-.93c-.056-.169-.113-.254-.2-.254a.231.231,0,0,0-.169.113l-.056.113c0,.028-.028.028-.056.028-.085,0-.169-.141-.254-.31a1.127,1.127,0,0,1-.085-.423c0-.282.2-.507.845-.845a.8.8,0,0,0,.028-1.324.809.809,0,0,0-.394-.2.132.132,0,0,0-.141.141q0,.127.169.169c.141.056.2.113.2.169a1.2,1.2,0,0,1-.141.338,1.006,1.006,0,0,1-.282.31.944.944,0,0,1-.423.592,1.265,1.265,0,0,1-.169.338l-.2.254a2.606,2.606,0,0,0-.141.282c-.028.141-.028.169-.085.169a.971.971,0,0,1-.366-.31.423.423,0,0,1-.113-.31c-.085.085-.113.085-.31.113a1.793,1.793,0,0,0-.254.056.476.476,0,0,1-.2.085c-.028,0-.056-.028-.056-.085v-.2a1.431,1.431,0,0,1,.282-.817.755.755,0,0,0-.451-.225c-.056,0-.056,0-.056-.028a.31.31,0,0,1,.085-.169.479.479,0,0,1,.169-.169.89.89,0,0,1,.535-.2,1.749,1.749,0,0,1,.507.141.662.662,0,0,0,.225.056.149.149,0,0,0,.169-.169,2.755,2.755,0,0,0-.254-.845,1.938,1.938,0,0,1-.169-.592.845.845,0,0,1,.338-.732.282.282,0,0,0-.2-.056.631.631,0,0,0-.282.085c-.141.085-.2.141-.2.2s.028.056.085.085a.13.13,0,0,1,.085.141,1.051,1.051,0,0,1-.451.7.82.82,0,0,1-.479.648.808.808,0,0,1-.2.423,1.972,1.972,0,0,0-.338.62c-.028.084-.056.141-.085.141a.42.42,0,0,1-.2-.169,2.077,2.077,0,0,1-.141-.169,1.8,1.8,0,0,1-.113-.282.253.253,0,0,1-.141.028H9.43a1.228,1.228,0,0,0-.507.113.1.1,0,0,1-.085.028c-.056,0-.113-.113-.113-.282a1.409,1.409,0,0,1,.31-.9.485.485,0,0,1-.169-.169c-.028-.028-.056-.056-.085-.056l-.113-.056c-.028-.028-.056-.028-.056-.056a1.218,1.218,0,0,1,.282-.282.817.817,0,0,1,.451-.169c.141,0,.225.028.423.2.141.113.225.169.282.169s.085-.028.141-.085a.214.214,0,0,0,.056-.141,1.028,1.028,0,0,0-.423-.62,1,1,0,0,0-.535-.169.563.563,0,0,0-.563.338l-.113.2q-.042.085-.085.085c-.056,0-.085-.028-.282-.254l-.225-.282A.707.707,0,0,1,7.88,71.5c-.028-.056-.028-.113-.056-.113L7.74,71.3a1.378,1.378,0,0,1-.394-.761c0-.028-.028-.056-.028-.113a1.544,1.544,0,0,1-.366-.9.214.214,0,0,1,.028-.113c-.141-.141-.141-.169-.254-.507a2.045,2.045,0,0,0-.2-.479.087.087,0,0,1-.028-.056c0-.056.085-.085.2-.113a.6.6,0,0,1,.169-.028h.169v-.254a1.166,1.166,0,0,1,.056-.423.563.563,0,0,0,.028-.2.6.6,0,0,0-.028-.169,1.22,1.22,0,0,0-.028-.141c0-.028-.028-.056-.028-.085a.062.062,0,0,1,.056-.056.214.214,0,0,1,.113.028c.169.085.282.169.394.225a1.437,1.437,0,0,1,.563.845v.085a.564.564,0,0,1-.028.141.476.476,0,0,0,.056.141l.113.141a.662.662,0,0,1,.141.366c0,.085-.028.113-.169.338a.67.67,0,0,0-.141.394,1.166,1.166,0,0,0,.169.563c.113.2.225.282.338.282.2,0,.282-.169.31-.648a4.421,4.421,0,0,1,.085-.676V69.02c0-.056-.028-.085-.085-.169l-.282-.31c-.254-.31-.338-.451-.338-.676a.392.392,0,0,1,.394-.423h.113v-.056a1.428,1.428,0,0,1,.056-.254.665.665,0,0,1,.169-.338.35.35,0,0,0,.085.056c.028,0,.056.028.169.056a.927.927,0,0,1,.169.085,1.64,1.64,0,0,1,.141-.31,1.217,1.217,0,0,1,.282-.282c.028,0,.085.028.141.113l.169.169a1.667,1.667,0,0,1,.113.169l.028.084c.056-.028.085-.056.113-.056.056-.056.113-.056.141-.085l.169-.085a.349.349,0,0,0,.085-.056c.028,0,.056.056.113.366a1.1,1.1,0,0,1,.056.394.439.439,0,0,1,.423.507,1.313,1.313,0,0,1-.451.9.282.282,0,0,0-.113.225c0,.789.282,1.042,1.268,1.155a5.759,5.759,0,0,1,1.521.338,3.439,3.439,0,0,0,.761.169q.254,0,.254-.169c0-.169-.113-.225-.845-.366-1.662-.338-2.338-.93-2.338-2.028a1.347,1.347,0,0,1,1.38-1.38,2.327,2.327,0,0,1,1.155.394c.451.254.535.31.648.31s.169-.085.169-.282c0-.113.028-.2.113-.2s.169.085.282.2a.679.679,0,0,1,.2.507.634.634,0,0,1-.507.648l-.085.085a.778.778,0,0,1-.648.282,1.541,1.541,0,0,1-.789-.254l-.423-.31a.758.758,0,0,0-.451-.2.254.254,0,0,0-.282.282.414.414,0,0,0,.31.394l.394.141a4.133,4.133,0,0,1,.394.169.634.634,0,0,1,.2-.028,1.462,1.462,0,0,1,.761.2.459.459,0,0,1,.169.085l.225.056a1.375,1.375,0,0,1,.93,1.268.983.983,0,0,1-1.071,1.042Z" transform="translate(-5.232 -48.539)"/><path class="f" d="M19.032,77.511l.056-.113.141-.141a.662.662,0,0,0,.169-.479,1,1,0,0,0-.056-.282.5.5,0,0,1-.028-.169.127.127,0,0,1,.085-.113.062.062,0,0,1,.056.056l.141.141a.386.386,0,0,0,.225.141V76.3a1.155,1.155,0,0,0-.2-.62c-.085-.085-.113-.141-.113-.169a.062.062,0,0,1,.056-.056.028.028,0,0,1,.028.028.437.437,0,0,0,.169.085c.056,0,.085-.113.085-.225a.879.879,0,0,0-.2-.507c-.056-.056-.085-.113-.113-.141s-.028-.028-.028-.056.028-.056.085-.056.056,0,.113.056a.087.087,0,0,0,.056.028c.056,0,.085-.113.085-.366v-.282c0-.2-.028-.225-.113-.225h-.085c-.451,0-.648-.282-.761-1.042-.085-.535-.282-.93-.535-1.014-.141-.056-.2-.085-.2-.113s.028-.056.085-.056a.583.583,0,0,1,.169.056,2.749,2.749,0,0,0,.93.225.735.735,0,0,0,.761-.732,1.178,1.178,0,0,0-.423-.873.989.989,0,0,0-.225-.141h-.028l-.056.028.028.141.028.085v.028c0,.028-.028.028-.056.028s-.056,0-.056-.028l-.169-.254a.9.9,0,0,0-.62-.366c-.085,0-.113.028-.113.085a.214.214,0,0,0,.056.113.256.256,0,0,1,.085.141v.028a.028.028,0,0,1-.028.028h0c-.056,0-.056-.028-.254-.254a1.085,1.085,0,0,0-.676-.366c-.028,0-.056,0-.056.028l-.028.028c0,.028.028.056.056.113s.113.113.113.141-.028.028-.056.028a1.722,1.722,0,0,1-.394-.254.986.986,0,0,1-.479-.817.6.6,0,0,1,.563-.62.969.969,0,0,1,.592.225l.451.338a1.234,1.234,0,0,0,.7.225.358.358,0,0,0,.169-.028l.056-.056a.124.124,0,0,0-.085-.028.637.637,0,0,1-.366-.169l-.451-.338a2.979,2.979,0,0,0-.366-.254c-.225-.113-.282-.141-.282-.169a.1.1,0,0,1,.056-.028.1.1,0,0,1,.085.028l.225.113a2.141,2.141,0,0,1,.366.225,1.876,1.876,0,0,0,1.014.423.454.454,0,0,0,.479-.451.358.358,0,0,0-.028-.169l-.056-.085-.056-.056-.028.028-.028.2a.087.087,0,0,1-.028.056c-.028.028-.028.056-.056.085a.238.238,0,0,1-.169.056c-.141,0-.31-.085-.732-.338a2.161,2.161,0,0,0-1.127-.423,1.192,1.192,0,0,0-1.183,1.183c0,.9.563,1.324,2.282,1.69.648.141.958.338.958.62s-.225.423-.563.423a.625.625,0,0,1-.254-.028,8.651,8.651,0,0,1-.93-.254,4.488,4.488,0,0,0-1.211-.169,1.574,1.574,0,0,0-1.437.648.211.211,0,0,1-.085.085.1.1,0,0,1-.085-.028l-.113-.113a.69.69,0,0,0-.338-.113.3.3,0,0,0-.2.085.349.349,0,0,0-.085.056c-.056,0-.141-.113-.225-.254a1.313,1.313,0,0,1-.141-.62c0-.085.028-.141.056-.141s.056.028.056.085l.085.254c.028.141.113.254.2.254.028,0,.085-.028.141-.113A.617.617,0,0,0,14.665,71c.056-.169.056-.2.113-.2s.085.028.113.2a.476.476,0,0,0,.056.141c.028.056.085.113.113.169s.056.056.085.056c.085,0,.141-.141.141-.282v-.2c0-.056,0-.085.056-.085s.028,0,.056.056a.282.282,0,0,0,.141.113.477.477,0,0,0,.141.056c.028,0,.056-.028.085-.056a.1.1,0,0,0,.028-.085c0-.028-.028-.056-.141-.169a.879.879,0,0,1-.169-.366c-.028-.085-.056-.113-.085-.113a.087.087,0,0,0-.056.028l-.113.056-.085.028h-.028a.062.062,0,0,1-.056-.056.738.738,0,0,1,.169-.225.282.282,0,0,0,.113-.254c0-.141.028-.282.056-.282l.028-.31a2.459,2.459,0,0,1,.141-.62.1.1,0,0,1,.028-.056c.028,0,.056.056.056.141v.141c0,.113.028.169.056.169s.085-.056.113-.169l.085-.2a.358.358,0,0,0,.028-.169.282.282,0,0,0-.254-.31h-.056a.1.1,0,0,0-.056.028c-.056,0-.085-.056-.085-.113v-.31l-.028-.2v-.085l-.085.056-.113.085-.141.113L15,67.848a.087.087,0,0,1-.056.028c-.056,0-.085-.028-.085-.169v-.028c0-.113-.056-.2-.225-.423L14.58,67.2l-.028.056-.113.169-.113.254-.028.169a.124.124,0,0,1-.028.085c-.028,0-.056-.028-.085-.056a.547.547,0,0,0-.394-.254l-.028.056c-.028.113-.056.169-.056.2v.31c0,.056-.028.085-.056.085h0l-.056-.056c-.028-.028-.056-.028-.113-.028-.169,0-.282.085-.282.225s.028.2.2.451c.085.113.169.2.2.2s.028-.056.028-.141l-.028-.113a.307.307,0,0,1-.028-.141c0-.056.028-.085.056-.085.085,0,.169.225.2.563l.028.338a.918.918,0,0,0,.113.366,1.358,1.358,0,0,0,.225.338c.085.056.141.113.141.141a.062.062,0,0,1-.056.056.908.908,0,0,0-.169-.056h-.085c-.169,0-.254.113-.254.423A1.775,1.775,0,0,0,14.3,71.9l.423.338a1.026,1.026,0,0,1,.366.648c0,.254-.282.535-.789.7l-.31.113c-.225.085-.338.225-.423.676a1.045,1.045,0,0,1,.254-.056h.169a.189.189,0,0,0,.2-.169v-.085q0-.042.085-.085a.307.307,0,0,0,.113-.056l.113-.085c.028,0,.028-.028.056-.028a.062.062,0,0,1,.056.056.1.1,0,0,1-.028.085,1.012,1.012,0,0,0-.056.31.769.769,0,0,0,.141.507.282.282,0,0,1,.028-.113,1.233,1.233,0,0,1,.141-.254,1.127,1.127,0,0,0,.225-.563V73.82l-.028-.2a.214.214,0,0,1,.056-.113c.028-.028.028-.028.056-.028s.056.028.085.085a.349.349,0,0,0,.056.085c.028,0,.085-.085.141-.169a.716.716,0,0,0,.056-.2.169.169,0,0,0-.028-.113.214.214,0,0,1-.028-.113c0-.028,0-.028.028-.056s.028-.028.056-.028.028,0,.056.028l.085.056a.1.1,0,0,0,.085.028c.028,0,.085-.028.141-.113a.786.786,0,0,0,.141-.254c0-.028-.028-.028-.056-.085a.716.716,0,0,1-.31-.479.307.307,0,0,1,.028-.141l.085-.254c.056-.113.056-.2.085-.2h.028a.062.062,0,0,1,.056.056.214.214,0,0,1-.028.113.42.42,0,0,0-.028.169c0,.056.028.113.085.113a.254.254,0,0,0,.141-.028,1.862,1.862,0,0,1,.62-.169.6.6,0,0,1,.338.113.1.1,0,0,0,.085.028c.028,0,.028,0,.056-.028s.028-.028.028-.056a.214.214,0,0,0-.056-.113.155.155,0,0,1-.056-.141.062.062,0,0,1,.056-.056c.141,0,.366.451.563,1.155.169.563.225.62.761.93a.972.972,0,0,1,.62.93,5.437,5.437,0,0,1-.338,1.606,1.386,1.386,0,0,0-.113.479,2.1,2.1,0,0,0,.085.423c.028.113.056.2.056.2.169.113.2.169.225.225" transform="translate(-10.045 -49.114)"/><path class="f" d="M24.1,89.388c.056-.113.085-.141.169-.31a.921.921,0,0,0,.2-.451v-.141c0-.141.028-.2.085-.2s.028,0,.056.028l.056.084c0,.028.028.028.056.028a.152.152,0,0,0,.113-.085.845.845,0,0,0,.113-.31V87.81a.076.076,0,0,1,.085-.085c.028,0,.056,0,.085.085a.349.349,0,0,0,.056.085c.028,0,.056-.028.085-.056l.085-.113.056-.085v-.056c0-.028-.028-.056-.056-.085a.7.7,0,0,1-.254-.648,1.761,1.761,0,0,0-.056-.507,3.35,3.35,0,0,0-.169-.394,2.349,2.349,0,0,1-.113-.338c-.028-.085-.056-.113-.113-.113a.431.431,0,0,0-.423.479,1.893,1.893,0,0,0,.2.732,2.344,2.344,0,0,1,.225.761c0,.338-.141.479-.592.648a1.14,1.14,0,0,0-.845.93.1.1,0,0,1,.085-.028c.056-.028.113-.028.113-.056l.141-.028a.445.445,0,0,0,.254-.169l.028-.113a.062.062,0,0,1,.056-.056l.085-.028.085-.028.028.028-.028.113a1.59,1.59,0,0,0-.028.2.5.5,0,0,0,.085.507" transform="translate(-17.228 -62.259)"/><path class="f" d="M7.979,69.6c0,.056.028.085.028.113a.907.907,0,0,1-.028.225l-.028.2a1.316,1.316,0,0,0,.085.479.487.487,0,0,1,.056.2v.028a.1.1,0,0,1-.028.056c-.028,0-.056-.028-.085-.056a.586.586,0,0,0-.338-.141.307.307,0,0,0-.141.028l.056.113.141.338.2.282.2.141c.028,0,.028.028.056.056a.087.087,0,0,1,.028.056.028.028,0,0,1-.028.028H7.979a.1.1,0,0,0-.056.028,1.822,1.822,0,0,0,.085.282l.085.254.141.141.169.113a.152.152,0,0,1,.085.113.1.1,0,0,1-.028.056H8.373c-.028,0-.056.028-.056.085a.721.721,0,0,0,.169.338c.141.2.225.254.394.254h.141c.056,0,.113.028.113.085s-.028.056-.085.085c-.113.028-.169.056-.169.113s.028.056.056.085l.085.113a.332.332,0,0,0,.169.141.256.256,0,0,0,.141-.085.645.645,0,0,1,.282-.2c.31-.085.366-.113.366-.2a.214.214,0,0,0-.028-.113.71.71,0,0,1-.141-.451c0-.113-.028-.2-.056-.2s-.056.028-.085.085a.425.425,0,0,1-.31.2c-.31,0-.676-.479-.873-1.127a1.318,1.318,0,0,1-.056-.479,4.226,4.226,0,0,1,.056-.563,2.29,2.29,0,0,1,.113-.451v-.113a1.747,1.747,0,0,0-.62-.732" transform="translate(-5.951 -50.838)"/><path class="f" d="M11.141,74.1a1.826,1.826,0,0,0-.141.592c0,.113.028.2.085.2s.028-.028.056-.056l.113-.169c.028-.028.028-.056.056-.113a.476.476,0,0,0,.056-.141.358.358,0,0,0-.225-.31" transform="translate(-8.465 -54.07)"/><path class="f" d="M15.1,88.223l.056.056.085.085c.169.169.2.2.282.2a1.484,1.484,0,0,0,.338-.085l.056-.056a.487.487,0,0,0-.085-.113l-.113-.085a.78.78,0,0,0-.254-.141c-.113-.028-.2.028-.366.141" transform="translate(-11.41 -64.108)"/><path class="f" d="M22.5,93.754a.459.459,0,0,1,.169.085,1.463,1.463,0,0,0,.141.085,1.222,1.222,0,0,0,.141.028.169.169,0,0,0,.113-.028l.2-.085.169-.056a.35.35,0,0,0,.085-.056.307.307,0,0,0-.113-.056.477.477,0,0,1-.141-.056c-.225-.085-.254-.113-.338-.113a.747.747,0,0,0-.423.254" transform="translate(-16.725 -68.005)"/><path class="f" d="M30.456,98.43c.056-.141.113-.169.31-.169s.451-.423.451-.7c0-.028,0-.056-.028-.056a.087.087,0,0,0-.056.028c-.056.056-.113.056-.141.085l-.254.113a.648.648,0,0,0-.338.507c0,.028.028.085.056.2" transform="translate(-22.399 -70.878)"/><path class="c" d="M16.3,71.823l.085.141a.845.845,0,0,0,.2.141c.028,0,.028-.028.056-.085l.028-.141v-.141c0-.113-.056-.169-.31-.225-.056-.028-.085,0-.113-.056a.214.214,0,0,0-.113-.056c-.028,0-.028,0-.028.028v.028l.056.141Z" transform="translate(-12.128 -52.131)"/><path class="c" d="M19.41,71.751l-.113.2L19.241,72h0c-.056,0-.085-.113-.113-.225L19.1,71.61c0-.085.056-.113.169-.141s.141-.028.169-.056c.085-.056.141-.085.141-.113h.028c.028,0,.028.028.028.056h0l-.056.141Z" transform="translate(-14.283 -52.059)"/><path class="c" d="M17.532,74.738l.141-.085a.1.1,0,0,0,.056-.028.13.13,0,0,1,.113.141,1.127,1.127,0,0,1-.2.451c-.113.225-.2.366-.31.366s-.31-.2-.479-.563a.823.823,0,0,1-.056-.254c0-.113.056-.169.141-.169a.169.169,0,0,1,.113.028l.085.056a.375.375,0,0,0,.225.085.186.186,0,0,0,.169-.028" transform="translate(-12.631 -54.427)"/><path class="f" d="M18.024,75.756l-.113-.028h-.028a.076.076,0,0,0-.085.085,1.093,1.093,0,0,0,.169.394.087.087,0,0,0,.056.028c.056,0,.113-.113.141-.282l.028-.141v-.028c0-.056-.028-.085-.056-.085h-.028" transform="translate(-13.348 -55.219)"/><path class="c" d="M72.027,71.371a.811.811,0,0,0,.563.338c.056,0,.141-.028.254-.028.056,0,.085-.028.113-.028a.061.061,0,0,1,.056.056.583.583,0,0,1-.056.169.4.4,0,0,0-.056.169l-.028.2-.085.169-.113.113-.028.028v.113a.5.5,0,0,1-.254.479c-.028,0-.028.028-.056.056l-.028.085a.845.845,0,0,1-.085.31,1.911,1.911,0,0,1-.169.254,1.845,1.845,0,0,0-.225.366c-.028.085-.056.113-.113.113s-.169-.113-.2-.254c-.028.028-.028.056-.056.056l-.113.085-.169.113a.771.771,0,0,0-.141.113l-.113.113c-.028.028-.028.028-.056.028s-.085-.085-.141-.225l-.085-.31a.867.867,0,0,1-.028-.282.563.563,0,0,1,.056-.31c-.169.028-.225.028-.338.056-.028,0-.056.028-.085.028a.062.062,0,0,1-.056-.056,1.22,1.22,0,0,0,.028-.141l.113-.31a.789.789,0,0,1,.62-.451.871.871,0,0,1,.225.056.307.307,0,0,0,.141.028.189.189,0,0,0,.2-.169c0-.056-.028-.113-.085-.113a1.9,1.9,0,0,1-.338-.113.893.893,0,0,1-.394-.31c-.113-.141-.169-.2-.225-.2a.062.062,0,0,0-.056.056v.169a1.792,1.792,0,0,1-.254.817l-.254.451a1.259,1.259,0,0,0-.169.563c0,.169.085.338.169.366l.141.028c.028,0,.028,0,.056.028s.028.028.028.056-.028.056-.056.085a2.164,2.164,0,0,1-.169.2.845.845,0,0,1-.451.338.938.938,0,0,1-.592.535l-.028.056a.707.707,0,0,1-.507.366h-.028a.7.7,0,0,1-.31.451c-.113.085-.2.141-.2.141a.35.35,0,0,0-.056.085c-.028.085-.085.141-.141.141s-.169-.085-.225-.254c-.028.028-.056.028-.085.056a1.287,1.287,0,0,1-.169.113.845.845,0,0,1-.31.085c-.225.056-.423.141-.451.225l-.085.141-.028.028c-.056,0-.085-.056-.113-.141a2.081,2.081,0,0,1-.085-.507,1.127,1.127,0,0,1,.423-.845v-.085a.845.845,0,0,1,.93-.845h.085l.31.028h.028a.707.707,0,0,0,.479-.2.538.538,0,0,0,.282-.507,2.444,2.444,0,0,0-.085-.366,1.1,1.1,0,0,1-.056-.423,1.521,1.521,0,0,1,.648-1.1c.085-.056.169-.141.169-.2s0-.028-.028-.028-.056.028-.113.056-.113.085-.225.141l-.141.085-.169.056q-.085.042-.085.085a.1.1,0,0,0,.028.085.1.1,0,0,0,.028.056c0,.028-.028.056-.056.113l-.113.2a.91.91,0,0,1-.366.366c-.113.31-.254.451-.451.479a.752.752,0,0,1-.62.507.845.845,0,0,1-.282.423c-.056.056-.113.113-.113.141-.085.113-.085.141-.113.141a.366.366,0,0,1-.2-.141.389.389,0,0,1-.085-.113l-.085-.141c-.028-.056-.056-.056-.085-.056h-.056l-.2.028a.769.769,0,0,0-.366.2l-.113.169c0,.028-.028.028-.056.028-.085,0-.141-.169-.141-.479a.845.845,0,0,1,.141-.563l.254-.338c.028-.056.056-.085.056-.141a.214.214,0,0,0-.056-.113c-.056-.056-.113-.113-.141-.113l-.2-.028c-.028,0-.056,0-.056-.028s0-.028.028-.056a.761.761,0,0,1,.225-.2.966.966,0,0,1,.535-.2,1.144,1.144,0,0,1,.479.141l.254.169a.169.169,0,0,0,.113.028.394.394,0,0,0,.31-.225.865.865,0,0,0,.113-.423.578.578,0,0,0-.592-.592.825.825,0,0,0-.479.169c-.056.028-.085.056-.085.113l-.085.169-.056.056c-.056,0-.141-.141-.225-.31a.949.949,0,0,1-.113-.338,1.409,1.409,0,0,1-.085-.451v-.254a1.017,1.017,0,0,1-.169-.563.789.789,0,0,1,.056-.31.6.6,0,0,1-.113-.394V69.4l.028-.113.028-.113a1.324,1.324,0,0,1-.2-.592,1.914,1.914,0,0,0-.113-.366.087.087,0,0,1-.028-.056c0-.056.113-.113.282-.113h.141a.42.42,0,0,1-.028-.169,1.939,1.939,0,0,1,.056-.366.485.485,0,0,0,.056-.225c0-.113-.028-.225-.028-.282l-.085-.169a.1.1,0,0,1-.028-.084c0-.028,0-.028.056-.028a1.651,1.651,0,0,1,.789.451.992.992,0,0,1,.338.817l-.028.2c.254.225.366.394.366.592a.547.547,0,0,1-.169.366.772.772,0,0,0-.31.676c0,.479.141.732.394.732s.423-.254.451-.62l.028-.338a2.08,2.08,0,0,1,.056-.338.792.792,0,0,0,.028-.225c0-.113-.085-.282-.31-.563a1.09,1.09,0,0,1-.338-.676.454.454,0,0,1,.451-.479.239.239,0,0,1,.169.056.563.563,0,0,1,.113-.394.665.665,0,0,1,.169-.31.087.087,0,0,1,.056.028c.028.028.085.085.113.085a.35.35,0,0,1,.085.056l.085.085a.775.775,0,0,1,.282-.451c.113-.113.169-.169.2-.169s.028.028.056.056l.113.141.141.169a.442.442,0,0,1,.113.282l.085-.056.141-.085c.028-.028.056-.028.113-.085a.087.087,0,0,1,.056-.028c.028,0,.028.028.056.056l.056.2.113.225a.437.437,0,0,1,.056.225v.056h.056a.417.417,0,0,1,.338.451,1.33,1.33,0,0,1-.592.958.78.78,0,0,0-.028.254c0,.7.2.873,1.3,1.042a4.226,4.226,0,0,1,.732.141c.028,0,.282.085.7.225a1.637,1.637,0,0,0,.535.113c.141,0,.2-.028.2-.113s-.169-.225-.732-.451l-.789-.31a1.565,1.565,0,0,1-1.183-1.521,1.409,1.409,0,0,1,1.465-1.465A2.91,2.91,0,0,1,72.506,67a5.165,5.165,0,0,0,.648.225c.113,0,.169-.085.2-.225s.056-.2.113-.2c.113,0,.225.113.31.282a.927.927,0,0,1,.113.479.53.53,0,0,1-.451.563.845.845,0,0,1-.732.366c-.366,0-.535-.085-1.155-.451a.761.761,0,0,0-.479-.169.33.33,0,0,0-.366.31c0,.169.141.282.423.366a.792.792,0,0,1,.31.141.377.377,0,0,1,.141-.028,1.69,1.69,0,0,1,.958.423,1.5,1.5,0,0,1,1.042,1.268A1.054,1.054,0,0,1,72.563,71.4c.028.056-.282.028-.535-.028" transform="translate(-47.18 -48.468)"/><path class="f" d="M72.91,74.927l.028-.113.028-.141c0-.028.028-.085.113-.141a.78.78,0,0,0,.141-.451.4.4,0,0,0-.056-.169.1.1,0,0,1-.028-.085,147.111,147.111,0,0,1,.056-.056h0c.028,0,.056.028.085.056a.211.211,0,0,0,.085.085c.028,0,.085-.056.113-.169a.124.124,0,0,1,.028-.085.535.535,0,0,0-.085-.254.1.1,0,0,1-.028-.085.062.062,0,0,1,.056-.056c.028,0,.056.028.113.085a.087.087,0,0,0,.056.028c.056,0,.085-.056.141-.2a.377.377,0,0,0,.028-.141c0-.028,0-.028-.028-.028h-.141a.738.738,0,0,1-.507-.254l-.254-.31c-.085-.113-.225-.31-.225-.31l-.2-.141c-.028-.028-.056-.056-.056-.085s.028-.056.085-.056a2.383,2.383,0,0,1,.479.169,2.744,2.744,0,0,0,.9.2.783.783,0,0,0,.789-.761,1.127,1.127,0,0,0-.366-.732.428.428,0,0,0-.169-.113.062.062,0,0,0-.056.056.214.214,0,0,0,.028.113c0,.028.028.056.028.085a.062.062,0,0,1-.056.056q-.085,0-.169-.254c-.056-.2-.169-.31-.451-.451a1.382,1.382,0,0,0-.282-.113.028.028,0,0,0-.028.028.169.169,0,0,0,.028.113l.085.169h0a.062.062,0,0,1-.056.056c-.056,0-.085-.028-.2-.225a.885.885,0,0,0-.394-.31.307.307,0,0,0-.141-.028h0a.1.1,0,0,0-.056.028.124.124,0,0,1,.028.085v.056a.062.062,0,0,1-.056.056,1.127,1.127,0,0,1-.366-.282.887.887,0,0,1-.225-.535.707.707,0,0,1,.7-.648.529.529,0,0,1,.225.056l.31.169.366.254a1.555,1.555,0,0,0,.676.254.755.755,0,0,0,.282-.056c.085-.028.141-.056.141-.085h0l-.028-.028-.2-.028a1.338,1.338,0,0,1-.563-.254l-.423-.282-.366-.141a.062.062,0,0,1-.056-.056c0-.028.028-.028.056-.028a.445.445,0,0,1,.113.028l.338.113a2.389,2.389,0,0,1,.423.2,1.885,1.885,0,0,0,.789.282.349.349,0,0,0,.366-.338c0-.056-.028-.169-.028-.254a.214.214,0,0,0-.056-.113c-.028-.028-.028-.028-.056-.028s-.028.028-.028.085v.113c0,.169-.056.225-.254.225a2.479,2.479,0,0,1-.817-.254,2.535,2.535,0,0,0-.958-.225,1.268,1.268,0,0,0-1.268,1.183q0,.8,1.1,1.268l.761.31c.648.254.873.451.873.7,0,.2-.2.338-.479.338a1.668,1.668,0,0,1-.592-.141,5.378,5.378,0,0,0-1.606-.31,1.933,1.933,0,0,0-1.521.592c-.056.056-.085.056-.113.056s-.056,0-.141-.056a.521.521,0,0,0-.2-.056.428.428,0,0,0-.225.113l-.085.113c-.028.028-.056.056-.085.056a.669.669,0,0,1-.254-.254.451.451,0,0,1-.085-.225c0-.056-.028-.141-.028-.254v-.169l.028-.169a.341.341,0,0,1,.028-.141c0-.028.028-.028.056-.028s.056.056.056.141v.085c0,.254.113.479.225.479s.169-.169.225-.479c0-.056.028-.113.056-.113s.056.056.085.169a1.316,1.316,0,0,0,.141.282.152.152,0,0,0,.113.085c.085,0,.113-.113.169-.366q.042-.169.085-.169c.028,0,.028,0,.028.028a.307.307,0,0,1,.056.113.388.388,0,0,0,.113.085.214.214,0,0,0,.113.028.1.1,0,0,0,.085-.028c.028-.028.056-.056.056-.085a.349.349,0,0,1-.056-.085.746.746,0,0,1-.169-.31.434.434,0,0,0-.085-.2c-.028-.028-.028-.056-.056-.056h-.085s-.085.028-.2.056h-.056c-.028,0-.028-.028-.028-.056s.028-.056.085-.113a1.313,1.313,0,0,0,.423-.93.927.927,0,0,1,.169-.535l.056-.056c.028,0,.056.028.056.085a.307.307,0,0,1-.028.141c0,.028-.028.085-.028.113v.028l.028.056.113-.028.113-.113a.8.8,0,0,0,.113-.366.256.256,0,0,0-.085-.2c-.056-.056-.085-.085-.141-.085h-.113c-.056,0-.084-.028-.084-.056l.028-.056v-.113l-.056-.225-.056-.113-.028-.085-.056.056-.141.085c-.028.028-.085.056-.113.113-.141.169-.141.169-.2.169s-.056,0-.056-.028v-.028a.563.563,0,0,0,.028-.2.865.865,0,0,0-.254-.535.732.732,0,0,0-.282.563v.113c0,.028,0,.056-.028.056h0a.062.062,0,0,1-.056-.056l-.113-.141a1.016,1.016,0,0,0-.141-.113c-.028,0-.028-.028-.085-.056l-.028.085a.865.865,0,0,0-.113.423c0,.113-.028.169-.056.169a.087.087,0,0,1-.056-.028c-.141-.085-.141-.085-.2-.085a.265.265,0,0,0-.282.282.684.684,0,0,0,.113.31c.085.141.2.282.254.282s.028,0,.028-.056v-.169l-.028-.113v-.028c0-.028,0-.056.028-.056.085,0,.141.225.225.7a1.49,1.49,0,0,0,.338.873l.085.085a.028.028,0,0,1-.028.028c-.028,0-.056-.028-.113-.056a.1.1,0,0,0-.085-.028.242.242,0,0,0-.2.225l-.085.507-.056.732a2.022,2.022,0,0,0,.056.535c.028.2.056.338.056.423a1.164,1.164,0,0,1-.9,1.127l-.592.169a.8.8,0,0,0-.592.789c.085-.085.113-.085.254-.113l.169-.028a.166.166,0,0,0,.141-.056c.028,0,.056-.056.113-.113l.141-.169c.056-.056.113-.113.141-.113s.028.028.028.056a.477.477,0,0,1-.056.141.3.3,0,0,0-.056.225.6.6,0,0,0,.141.366.214.214,0,0,0,.028-.113c.028-.028.056-.085.141-.2a1.544,1.544,0,0,0,.225-.394c0-.141.028-.2.056-.2s.028,0,.056.085c0,.028,0,.028.028.056s.028.028.056.028a.217.217,0,0,0,.085-.028.615.615,0,0,0,.141-.113l.085-.169a1.108,1.108,0,0,0,.056-.169v-.113c0-.028,0-.056.028-.056s.056.056.085.113.028.056.056.056h0c.028,0,.056-.028.085-.028a.544.544,0,0,0,.169-.338v-.169l-.028-.141h0a.062.062,0,0,1,.056-.056c.028,0,.085.056.141.2q.042.085.085.085c.056,0,.085-.028.169-.141l.085-.113a.141.141,0,0,0,0-.169l-.085-.113c0-.028-.028-.056-.028-.085a1.054,1.054,0,0,1,.141-.423,1.532,1.532,0,0,0,.113-.225c.028-.028.028-.056.056-.056s.028.028.028.056v.282c0,.028.028.056.085.056a.1.1,0,0,0,.085-.028l.225-.085a1.617,1.617,0,0,0,.2-.113,1.155,1.155,0,0,1,.648-.225.809.809,0,0,1,.423.141.138.138,0,0,0,.085.028c.028,0,.056-.028.085-.056a.087.087,0,0,0,.028-.056.169.169,0,0,0-.028-.113.477.477,0,0,1-.056-.141.028.028,0,0,1,.028-.028.062.062,0,0,1,.056.056c.028.056.085.169.2.366a1.127,1.127,0,0,0,.592.563l.394.085c.113.028.141.085.141.225a.792.792,0,0,1-.366.676l-.338.2a.637.637,0,0,0-.225.451,3.6,3.6,0,0,0,.056.479l.056-.056.141-.085.141-.141.085-.2.085-.169c.028-.085.085-.141.113-.141s.056.056.056.141v.056c.085-.056.113,0,.2.2" transform="translate(-48.401 -49.545)"/><path class="f" d="M70.1,90.017c0-.423.169-.62.789-.93,1.24-.62,1.887-1.183,1.887-1.634a1.715,1.715,0,0,0-.113-.479,1.409,1.409,0,0,1-.085-.394,1.226,1.226,0,0,1,.366-.7l.169-.141a.5.5,0,0,0,.169-.282v-.085c0-.085.028-.113.141-.141h.085a.1.1,0,0,0,.056-.028c.028,0,.056.028.085.056l.056.085.056.085c.028.028.028.028.056.028a.087.087,0,0,0,.056-.028.214.214,0,0,1,.113-.028.076.076,0,0,1,.085.085,1.363,1.363,0,0,1-.338.732,1.759,1.759,0,0,0-.451,1.014.961.961,0,0,0,.2.62.087.087,0,0,1,.028.056c0,.028-.028.056-.056.113a.217.217,0,0,1-.056.085c-.085.113-.113.141-.169.141s-.056-.028-.085-.085l-.028-.085a.062.062,0,0,0-.056-.056l-.028.028C73,88.074,73,88.1,73,88.158V88.3a.4.4,0,0,1-.056.169c-.028.056-.085.085-.113.141s-.056.056-.085.056-.056-.028-.056-.085l-.056-.169a.062.062,0,0,0-.056-.056c-.028,0-.056.056-.056.141-.028.2-.056.338-.113.366l-.141.113a.214.214,0,0,1-.113.056c-.028,0-.056,0-.056-.028l-.056-.141a.028.028,0,0,0-.028-.028c-.028,0-.056.085-.085.2a.665.665,0,0,1-.282.592.611.611,0,0,0-.225.254.563.563,0,0,1-.113-.366c0-.085,0-.141.028-.169A.476.476,0,0,0,71.4,89.2a.028.028,0,0,0-.028-.028.087.087,0,0,0-.056.028.389.389,0,0,1-.113.085.33.33,0,0,0-.225.31.428.428,0,0,1-.423.394c-.31.056-.338.056-.423.169Z" transform="translate(-50.915 -62.043)"/><path class="f" d="M66.851,69.2v.225a.254.254,0,0,1-.028.141.744.744,0,0,0-.028.2.794.794,0,0,0,.113.423.735.735,0,0,1,.085.31.1.1,0,0,1-.028.056c-.028,0-.028,0-.056-.028l-.085-.113c-.056-.085-.113-.113-.254-.113H66.4c.056.141.085.225.113.31.085.282.085.31.254.451s.169.169.169.225-.028.085-.056.085h-.085c-.056,0-.085.085-.085.2a.871.871,0,0,0,.056.225c.028.056.056.085.056.113l.085.085a.1.1,0,0,1,.028.085c0,.056-.028.085-.056.085a.1.1,0,0,1-.085-.028.1.1,0,0,1-.056-.028c-.028,0-.056.028-.056.085l.028.141.056.225c0,.056.056.113.113.169a.5.5,0,0,0,.141.113l.169.085c.028,0,.028.028.028.085a.062.062,0,0,1-.056.056.217.217,0,0,1-.085-.028h-.085c-.085,0-.085,0-.085.085a.254.254,0,0,0,.028.141l.028.141c.028.141.085.225.141.225a.087.087,0,0,0,.056-.028,1.048,1.048,0,0,1,.563-.2,1.372,1.372,0,0,1,.423.056.138.138,0,0,0,.085.028c.028,0,.028-.028.028-.113l.028-.169.028-.282.028-.2v-.113c-.028.028-.056.056-.085.056a.544.544,0,0,1-.423.2c-.423,0-.648-.479-.648-1.268a9.577,9.577,0,0,1,.141-1.352.969.969,0,0,0,.028-.254.98.98,0,0,0-.507-.789" transform="translate(-48.257 -50.55)"/><path class="f" d="M70.2,74.532l.085-.085.085-.085a.5.5,0,0,0,.113-.282.254.254,0,0,0-.028-.141c-.028-.056-.085-.141-.141-.141s-.056.085-.056.2l-.028.141-.028.141Z" transform="translate(-50.987 -53.855)"/><path class="f" d="M67.3,89.212c.085.028.113.056.2.169a.386.386,0,0,0,.366.169A.253.253,0,0,0,68,89.522l.113-.028.085-.028c.056,0,.084-.028.084-.056s-.084-.085-.169-.141a.845.845,0,0,0-.225-.113.715.715,0,0,0-.2-.056.7.7,0,0,0-.394.113" transform="translate(-48.904 -64.844)"/><path class="f" d="M71.7,97.13a.6.6,0,0,1,.648-.535c.169,0,.282.028.282.085s-.085.113-.254.2a1.279,1.279,0,0,0-.254.141,1.293,1.293,0,0,1-.394.2Z" transform="translate(-52.064 -70.226)"/><path class="f" d="M84.7,89.579c.141-.028.169-.056.225-.056h.169c.028,0,.056-.028.113-.085s.085-.056.113-.085c.169-.113.2-.141.2-.169s-.085-.085-.225-.085c-.282,0-.451.141-.592.479" transform="translate(-61.402 -64.844)"/><path class="c" d="M74.856,71.2l.141.085a1.669,1.669,0,0,1,.169.113c.141.056.2.085.2.141a.214.214,0,0,1-.028.113,1.22,1.22,0,0,0-.028.141.132.132,0,0,1-.141.141c-.056,0-.113-.085-.225-.282a1.408,1.408,0,0,1-.141-.366v-.028a.062.062,0,0,1,.056-.056" transform="translate(-54.291 -51.987)"/><path class="c" d="M78.321,71.754l-.2.2a.265.265,0,0,0-.085.2.1.1,0,0,1-.056.028h0a.076.076,0,0,1-.085-.085V71.81h0c0-.056.028-.085.085-.113l.2-.056.2-.113a.217.217,0,0,1,.085-.028.062.062,0,0,1,.056.056.087.087,0,0,1-.028.056Z" transform="translate(-56.516 -52.203)"/><path class="c" d="M75.525,74.428l.141.113a.169.169,0,0,0,.113.028A.87.87,0,0,0,76,74.513l.113-.056a.1.1,0,0,0,.056-.028.158.158,0,0,1,.141.169.9.9,0,0,1-.225.479l-.113.2c-.085.113-.141.141-.2.141-.113,0-.169-.056-.31-.366a1.209,1.209,0,0,1-.169-.479c0-.085.056-.169.113-.169a.214.214,0,0,0,.113.028" transform="translate(-54.65 -54.286)"/><path class="f" d="M76.5,75.8v.169a.132.132,0,0,0,.141.141c.085,0,.141-.113.169-.31a.446.446,0,0,0,.028-.113c0-.056-.028-.085-.113-.085h-.141q-.085,0-.085.169" transform="translate(-55.511 -55.148)"/><path class="c" d="M40.5,49.015h.873v1.8h1.042v-1.8h2.62v1.8h1.042v-1.8h.873V44.338H45.937l-.028-.056A.58.58,0,0,0,45.43,44a.532.532,0,0,0-.479.338h-.732a.53.53,0,0,0-.986,0h-.789A.563.563,0,0,0,41.937,44a.5.5,0,0,0-.479.338H40.5Z" transform="translate(-29.654 -32.45)"/><rect class="e" width="5.747" height="3.944" transform="translate(11.212 12.283)"/><path class="f" d="M43.182,49.8a.282.282,0,1,0,.282.282.282.282,0,0,0-.282-.282" transform="translate(-31.378 -36.616)"/><path class="g" d="M43.11,50.32a.31.31,0,1,1,.31-.31A.31.31,0,0,1,43.11,50.32Zm0-.563a.225.225,0,1,0,.225.225C43.363,49.869,43.251,49.756,43.11,49.756Z" transform="translate(-31.306 -36.544)"/><path class="f" d="M59.182,49.8a.282.282,0,1,0,.282.282.282.282,0,0,0-.282-.282" transform="translate(-42.87 -36.616)"/><path class="g" d="M59.11,50.32a.31.31,0,1,1,.31-.31A.31.31,0,0,1,59.11,50.32Zm0-.563a.225.225,0,1,0,.225.225C59.363,49.869,59.251,49.756,59.11,49.756Z" transform="translate(-42.799 -36.544)"/><path class="f" d="M43.182,57.4a.282.282,0,0,0,0,.563.259.259,0,0,0,.254-.282.245.245,0,0,0-.254-.282" transform="translate(-31.378 -42.074)"/><path class="g" d="M43.11,57.92a.31.31,0,1,1,.31-.31A.31.31,0,0,1,43.11,57.92Zm0-.563a.223.223,0,0,0-.225.225.231.231,0,0,0,.254.225.242.242,0,0,0,.225-.225A.248.248,0,0,0,43.11,57.356Z" transform="translate(-31.306 -42.003)"/><path class="f" d="M59.182,57.4a.282.282,0,1,0,.282.282.282.282,0,0,0-.282-.282" transform="translate(-42.87 -42.075)"/><path class="g" d="M59.11,57.92a.31.31,0,1,1,.31-.31A.31.31,0,0,1,59.11,57.92Zm0-.563a.225.225,0,1,0,.225.225C59.363,57.469,59.251,57.356,59.11,57.356Z" transform="translate(-42.799 -42.003)"/><path class="f" d="M47,52.907a1.775,1.775,0,0,0,1.409.7,1.585,1.585,0,0,0,1.324-.7,1.735,1.735,0,0,0-1.352-.62,1.578,1.578,0,0,0-1.38.62" transform="translate(-34.323 -38.399)"/><path class="c" d="M47.9,53.423a1.64,1.64,0,0,1,2.2,0A1.409,1.409,0,0,1,49,53.9a1.69,1.69,0,0,1-1.1-.479" transform="translate(-34.969 -38.914)"/><path class="f" d="M49.6,53.669a1.127,1.127,0,0,0,.62.2,1.04,1.04,0,0,0,.648-.2,1.389,1.389,0,0,0-.648-.169,2,2,0,0,0-.62.169" transform="translate(-36.19 -39.273)"/><rect class="c" width="5.916" height="0.197" transform="translate(11.128 12.48)"/><path class="g" d="M47.416,47.525H41.5V47.3h5.916ZM41.528,47.5h5.888v-.169H41.528Z" transform="translate(-30.372 -34.82)"/><path class="f" d="M44.7,45.536V46.1a.231.231,0,0,0,.254.225c.169,0,.254-.085.254-.225v-.563c0-.225-.085-.338-.225-.338a.169.169,0,0,0-.113.028.1.1,0,0,0-.056.028c-.028.028-.028.056-.056.085a.214.214,0,0,0-.028.113" transform="translate(-32.671 -33.309)"/><path class="f" d="M51,46.089V46.2a.231.231,0,0,0,.254.225c.169,0,.254-.085.254-.225v-.563c0-.225-.085-.338-.225-.338s-.254.141-.254.338" transform="translate(-37.196 -33.383)"/><path class="f" d="M57.1,45.536V46.1a.231.231,0,0,0,.254.225c.169,0,.254-.085.254-.225v-.563c0-.225-.085-.338-.225-.338a.169.169,0,0,0-.113.028.1.1,0,0,0-.056.028c-.028.028-.028.056-.056.085a.214.214,0,0,0-.028.113" transform="translate(-41.577 -33.309)"/><rect class="f" width="0.535" height="0.704" transform="translate(11.917 16.987)"/><rect class="f" width="0.535" height="0.225" transform="translate(11.917 17.832)"/><rect class="f" width="0.535" height="0.704" transform="translate(15.579 16.987)"/><rect class="f" width="0.535" height="0.225" transform="translate(15.579 17.832)"/></g><path class="h" d="M132.263,3.628v.423h-.282c-.394,0-1.071,0-1.071,1.268v5.155c0,3.155-1.38,4.676-4.2,4.676-3.183,0-4.676-1.268-4.676-4V5.29c0-1.268-.676-1.268-1.3-1.268H120.6V3.6h4.761v.423h-.141c-.592,0-1.324,0-1.324,1.268v5.578c0,2.395,1.014,3.578,3.071,3.578,2,0,3.071-1.268,3.071-3.634V5.29c0-1.268-.7-1.268-1.211-1.268h-.254V3.6c.169.028,3.578.028,3.691.028" transform="translate(-87.189 -3.036)"/><path class="h" d="M170.029,14.5v.423H166V14.5h.169c1.324,0,1.493-1.014,1.493-2.141V5.572a1.358,1.358,0,0,0-1.493-1.521h-.141V3.628h3.155l6.846,8.4V5.628c0-1.437-1.014-1.606-1.437-1.606h-.282V3.6h4.057v.423H178.2c-.7,0-1.465.169-1.465,2.141v8.79h-.592l-7.8-9.381v6.789c0,1.127.169,2.141,1.521,2.141" transform="translate(-119.799 -3.036)"/><path class="h" d="M240.236,12.6l2.479-6.93c.451-1.183.169-1.549-.873-1.549h-.2V3.7h3.212v.423h-.085c-.338,0-.761.113-1.071.873l-3.747,10.029h-.7L235.165,5.08a1.245,1.245,0,0,0-1.38-.958H233.7V3.7h4.648v.423h-.31c-.789,0-.958.507-.732,1.1" transform="translate(-168.426 -3.108)"/><path class="h" d="M317.115,3.7c2.507,0,3.747.93,3.747,2.817a3.092,3.092,0,0,1-2.226,2.817l-.084.028,2.761,4.2a1.749,1.749,0,0,0,1.578.986v.423h-2.874l-3.352-5.3h-1.24v3.521c0,1.268.563,1.38,1.352,1.38H317V15h-4.9v-.423h.225c.535,0,1.183-.254,1.183-.958v-8.2c0-1.3-.761-1.3-1.183-1.3H312.1V3.7h5.015m-1.747.535V9.222h.958c1.747,0,2.535-.789,2.535-2.62a2.278,2.278,0,0,0-2.395-2.451C316.129,4.179,315.678,4.179,315.368,4.235Z" transform="translate(-224.74 -3.108)"/><path class="h" d="M358.068,12.64c0-1.38-1.183-1.916-2.282-2.479-1.3-.676-2.761-1.352-2.761-3.437,0-2.028,1.521-3.324,3.719-3.324a11.269,11.269,0,0,1,2.366.282l.141,2.2-.423.056c-.2-1.155-.789-2.028-2.085-2.028a1.974,1.974,0,0,0-2.113,2.085c0,1.268,1.183,1.8,2.254,2.338,1.352.676,2.873,1.38,2.873,3.465,0,2.338-2.085,3.381-4,3.381a5.417,5.417,0,0,1-2.676-.648l-.282-2.451.423-.085a2.779,2.779,0,0,0,2.7,2.564,1.931,1.931,0,0,0,2.141-1.916" transform="translate(-253.974 -2.893)"/><path class="h" d="M388,3.7v.423h-.169c-.648,0-1.24.113-1.24.986V13.56c0,.873.592.986,1.24.986H388v.423h-4.7v-.423h.169c.648,0,1.24-.113,1.24-.986V5.109c0-.873-.592-.986-1.24-.986H383.3V3.7H388" transform="translate(-275.882 -3.108)"/><path class="h" d="M219.3,3.7v.423h-.169c-.648,0-1.24.113-1.24.986V13.56c0,.873.592.986,1.24.986h.169v.423h-4.7v-.423h.169c.648,0,1.24-.113,1.24-.986V5.109c0-.873-.592-.986-1.24-.986H214.6V3.7h4.7" transform="translate(-154.707 -3.108)"/><path class="h" d="M539.216,61.5l.028,2.986-.479.113c-.113-1.3-.394-2.366-2.507-2.366h-2.817v5.522h2.423c1.183,0,1.493-.676,1.634-1.8h.479v4.62H537.5c-.084-1.1-.338-1.972-1.634-1.972h-2.423v4.846c0,1.409,1.211,1.409,2.507,1.409,2.31,0,3.381-.141,4.029-2.479.084.028.479.113.479.113l-.648,3.127H529.3v-.507h.2c.817,0,1.549-.141,1.549-1.24V63.247c0-1.1-.732-1.24-1.549-1.24h-.2V61.5h9.916" transform="translate(-380.751 -44.625)"/><path class="h" d="M345.31,61.428c3.127,0,4.676,1.155,4.676,3.521a3.88,3.88,0,0,1-2.817,3.521l-.085.028,3.465,5.268a2.224,2.224,0,0,0,1.972,1.24v.535h-3.634l-4.2-6.648h-1.549v4.395c0,1.606.7,1.718,1.718,1.718h.282v.507H339v-.507h.282c.676,0,1.493-.31,1.493-1.183V63.541c0-1.634-.958-1.634-1.493-1.634H339V61.4c.141.028,6.31.028,6.31.028m-2.169.676v6.254h1.211c2.2,0,3.183-.986,3.183-3.268a2.869,2.869,0,0,0-3.014-3.071,10.684,10.684,0,0,0-1.38.085Z" transform="translate(-244.062 -44.553)"/><path class="h" d="M395.916,61.5v.507h-.2c-.817,0-1.549.141-1.549,1.24V73.867c0,1.1.732,1.24,1.549,1.24h.2v.507H390v-.507h.2c.817,0,1.549-.141,1.549-1.24V63.247c0-1.1-.733-1.24-1.549-1.24H390V61.5h5.916" transform="translate(-280.694 -44.625)"/><path class="h" d="M404.75,2.192h7.465c.366,0,.845-.085.93-.592h.366l-.282,2.93h-.394c-.028-.676-.113-1.662-1.211-1.662h-2.282v8.705c0,1.352.648,1.465,1.38,1.465h.225v.423H405.82v-.423h.225c.845,0,1.38-.056,1.38-1.437V2.868h-2.31c-1.183,0-1.3.507-1.521,1.662H403.2l.254-2.9h.338c.141.479.563.563.958.563" transform="translate(-290.176 -1.6)"/><path class="h" d="M452.974,3.7v.423a1.705,1.705,0,0,0-1.324.9l-2.874,4.423v3.606c0,1.437.507,1.549,1.38,1.549h.225v.423h-5.127V14.6h.225c.9,0,1.38-.225,1.38-1.409V9.729l-3.1-4.451c-.479-.676-.845-1.127-1.578-1.127H442.1V3.728h4.648v.423h-.141c-.9,0-.958.479-.592,1.014l2.395,3.719L450.552,5.5c.479-.732.62-1.38-.592-1.38h-.2V3.7" transform="translate(-318.117 -3.108)"/><path class="h" d="M492.8,8.772A5.811,5.811,0,0,1,498.575,2.8c3.55,0,6,2.282,6,5.578a5.865,5.865,0,0,1-5.916,6.2,5.639,5.639,0,0,1-5.86-5.8m2.113-.563c0,2.789,1.24,5.775,3.944,5.775,2.479,0,3.662-1.718,3.662-5.24,0-2.592-1.38-5.353-3.944-5.353C495.166,3.392,494.913,7.082,494.913,8.209Z" transform="translate(-354.534 -2.462)"/><path class="h" d="M539.3,14.969v-.423h.169c.648,0,1.24-.113,1.24-.986V5.109c0-.873-.592-.986-1.24-.986H539.3V3.7h7.888l.028,2.395a1.408,1.408,0,0,1-.366.085c-.084-.958-.31-1.887-1.662-1.887h-2.564V8.715h2.254c.93,0,1.07-.732,1.07-1.324h.366V11h-.366c0-.7-.169-1.606-1.324-1.606h-2V13.56c0,.986.845.986,1.578.986h.141v.423" transform="translate(-387.934 -3.108)"/><path class="h" d="M123.8,67.706a7.456,7.456,0,0,1,2.31-5.493,7.677,7.677,0,0,1,5.184-1.916,11.049,11.049,0,0,1,4.789,1.014l.141,3.268-.451.056C135.238,62.748,134.364,61,131.35,61c-3.071,0-4.986,2.451-4.986,6.367,0,3.493,1.549,6.789,5.3,6.789a5.566,5.566,0,0,0,4.733-2.254l.366.7a6.7,6.7,0,0,1-5.493,2.535c-4.536,0-7.465-2.676-7.465-7.437" transform="translate(-89.487 -43.76)"/><path class="h" d="M223.624,64.161l-.479,8.733c-.085,1.944.507,2.113,1.8,2.141h.113v.507H220.3v-.507h.169c1.606-.056,1.718-.958,1.775-2.254l.563-8.93a1.611,1.611,0,0,0-1.718-1.916h-.169v-.507h4c.056.113,4.789,10.705,4.789,10.705s4.507-10.593,4.536-10.733h3.916v.507h-.085c-1.578,0-1.859.507-1.747,2.507l.535,9.381c.085,1.1.648,1.183,1.747,1.24v.507h-5.86v-.507h.028c.958-.056,1.634-.085,1.634-1.071l-.028-1.014-.423-9.043s-4.846,11.635-4.9,11.748h-.423c.056-.085-5.015-11.494-5.015-11.494" transform="translate(-158.801 -44.553)"/><path class="h" d="M418.9,75.714v-.507h.2c.817,0,1.549-.141,1.549-1.24V63.347c0-1.1-.732-1.24-1.549-1.24h-.2V61.6h6.31a8.2,8.2,0,0,1,5.691,1.859,6.748,6.748,0,0,1,2.085,5.155,7.484,7.484,0,0,1-2.168,5.267,7.268,7.268,0,0,1-5.3,1.832m-2.451-13.466v11.1c0,1.493.648,1.747,2.141,1.747,3.578,0,5.212-3.071,5.212-6.085,0-4.676-1.944-6.818-5.916-6.818C424.14,62.192,423.408,62.22,423.069,62.248Z" transform="translate(-301.453 -44.697)"/><path class="h" d="M485.411,73.9V70.439c0-.761-.563-1.155-1.606-1.155h-.169v-.507h5.437v.507H488.9a1.029,1.029,0,0,0-1.155,1.155V74.3a16.379,16.379,0,0,1-4.958.761c-4.677,0-7.691-3.014-7.691-7.719,0-4.986,3.972-7.24,7.719-7.24a15.28,15.28,0,0,1,4.507.7l.225,3.381h-.479c-.592-2.423-1.662-3.381-4.113-3.381-3.3,0-5.268,2.423-5.268,6.31,0,3.578,1.69,7.127,5.437,7.127a5.071,5.071,0,0,0,2.282-.338" transform="translate(-341.82 -43.62)"/><path class="h" d="M296.582,68.461v4.986c0,1.38.451,1.775,1.887,1.775a3.107,3.107,0,0,0,3.014-3.352c0-2.169-1.324-3.409-3.55-3.409m-1.352-6.282V67.87h1.071c1.944,0,3.014-.958,3.014-2.761,0-2-.93-2.93-2.817-2.93Zm2.874,5.916a4.921,4.921,0,0,1,3.521,1.352,3.251,3.251,0,0,1,.93,2.366c0,2.226-2.028,4-4.676,4H292.3v-.507h.282c.676,0,1.493-.338,1.493-1.211V63.841c0-1.634-.958-1.634-1.493-1.634H292.3V61.7h6.282c2.958,0,4.564,1.071,4.564,3.1.028,2.169-1.944,3.014-3.69,3.3" transform="translate(-210.518 -44.769)"/><path class="h" d="M175.939,61.5l-4.479,12.2a1.9,1.9,0,0,1-1.8,1.409H169.6v.535h4.31v-.535h-.2c-1.042,0-1.747-.338-1.3-1.662l1.014-2.845h4.451l1.127,3.1c.31.986-.085,1.437-1.155,1.437h-.113v.535h5.465v-.535h-.056c-.732,0-1.24-.394-1.578-1.352L176.981,61.5m-1.3,2.874,1.972,5.522h-3.944Z" transform="translate(-122.384 -44.625)"/><path class="h" d="M283.816,3.7l.028,2.395a2.2,2.2,0,0,1-.394.085c-.084-1.042-.31-1.887-2-1.887H279.2V8.686h1.916c.93,0,1.211-.535,1.3-1.437h.394v3.69h-.394c-.056-.873-.254-1.578-1.3-1.578H279.2V13.25c0,1.127.958,1.127,2,1.127,1.831,0,2.7-.113,3.212-1.972.084.028.366.085.366.085l-.507,2.479H275.9v-.423h.169c.648,0,1.24-.113,1.24-.986V5.109c0-.873-.592-.986-1.24-.986H275.9V3.7h7.916" transform="translate(-198.738 -3.108)"/></svg>