<svg xmlns="http://www.w3.org/2000/svg" xmlns:xlink="http://www.w3.org/1999/xlink" width="176.365" height="38.233" viewBox="0 0 176.365 38.233"><defs><style>.a{fill:#fff;}.b{mix-blend-mode:luminosity;isolation:isolate;clip-path:url(#a);}.c{fill:#ed1c26;}.d{fill:#4c64a3;}.e{fill:#012169;stroke:#707070;stroke-width:0.5px;}</style><clipPath id="a"><rect class="a" width="176.365" height="38.233" transform="translate(0)"/></clipPath></defs><g class="b"><path class="c" d="M135.569,23.438h-.7V42.675h.7Z" transform="translate(-44.683 -7.844)"/><path class="d" d="M89.665,42.316a7.836,7.836,0,0,0,3.5-.7A5.016,5.016,0,0,0,95.33,39.7a5.119,5.119,0,0,0,.717-2.663,4.2,4.2,0,0,0-.785-2.693,4.753,4.753,0,0,0-1.879-1.454,22.226,22.226,0,0,0-2.813-.918,11.139,11.139,0,0,1-2.461-.842,1.393,1.393,0,0,1-.811-1.3A1.669,1.669,0,0,1,88,28.42a3.584,3.584,0,0,1,2.164-.536,7.679,7.679,0,0,1,4.164,1.331L95.4,26.232a7.748,7.748,0,0,0-2.407-1.117,10.249,10.249,0,0,0-2.812-.383,7.734,7.734,0,0,0-3.488.7,4.938,4.938,0,0,0-2.136,1.913,5.157,5.157,0,0,0-.7,2.678,4.351,4.351,0,0,0,.785,2.724,4.692,4.692,0,0,0,1.879,1.484,22.246,22.246,0,0,0,2.812.918,18.481,18.481,0,0,1,1.772.536,3.22,3.22,0,0,1,1.068.643,1.3,1.3,0,0,1,.419,1.01,1.554,1.554,0,0,1-.7,1.331,3.807,3.807,0,0,1-2.191.505,7.791,7.791,0,0,1-2.664-.49,7.613,7.613,0,0,1-2.3-1.285l-1.176,2.969A7.847,7.847,0,0,0,86.23,41.8,11.791,11.791,0,0,0,89.665,42.316Zm-12.156-.291h3.475v-17H77.509Zm-9.033-2.969H64.42V34.848h4.057c1.853,0,2.772.7,2.772,2.112a1.792,1.792,0,0,1-.7,1.576A3.434,3.434,0,0,1,68.476,39.057Zm-.608-11.065a3.167,3.167,0,0,1,1.947.505,1.744,1.744,0,0,1,.663,1.5,1.762,1.762,0,0,1-.663,1.5A3.194,3.194,0,0,1,67.868,32H64.406v-4.01Zm4.124,5.188a3.877,3.877,0,0,0,1.474-1.53,4.517,4.517,0,0,0,.527-2.2,3.917,3.917,0,0,0-1.474-3.229A6.52,6.52,0,0,0,68.3,25.023H60.958v17h7.775a7.091,7.091,0,0,0,4.476-1.209,4.094,4.094,0,0,0,1.542-3.443,4.643,4.643,0,0,0-.73-2.663A4.164,4.164,0,0,0,71.992,33.18ZM50.776,38.965a4.357,4.357,0,0,1-2.407-.689,4.791,4.791,0,0,1-1.69-1.928,6.82,6.82,0,0,1,0-5.632,4.692,4.692,0,0,1,1.69-1.928,4.55,4.55,0,0,1,4.814,0,4.79,4.79,0,0,1,1.69,1.928,6.82,6.82,0,0,1,0,5.632,4.692,4.692,0,0,1-1.69,1.928A4.357,4.357,0,0,1,50.776,38.965Zm0,3.352a7.911,7.911,0,0,0,7.14-4.3,10.01,10.01,0,0,0,0-9,8.155,8.155,0,0,0-2.934-3.153,7.875,7.875,0,0,0-4.205-1.148,7.956,7.956,0,0,0-4.219,1.148,7.858,7.858,0,0,0-2.934,3.153,9.492,9.492,0,0,0-1.068,4.5,9.337,9.337,0,0,0,1.068,4.5,8.055,8.055,0,0,0,2.934,3.153A7.956,7.956,0,0,0,50.776,42.316Zm-15.428,0a7.926,7.926,0,0,0,3.543-.78,7.13,7.13,0,0,0,2.664-2.265l-2.231-2.326a4.637,4.637,0,0,1-6.261,1.331,4.628,4.628,0,0,1-1.7-1.928,6.82,6.82,0,0,1,0-5.632,4.627,4.627,0,0,1,1.7-1.928,4.664,4.664,0,0,1,6.261,1.3l2.231-2.326a7.292,7.292,0,0,0-2.65-2.234,8.317,8.317,0,0,0-7.707.352,7.781,7.781,0,0,0-2.921,3.137,9.573,9.573,0,0,0-1.068,4.53,9.416,9.416,0,0,0,1.068,4.53A7.88,7.88,0,0,0,31.2,41.215,7.966,7.966,0,0,0,35.348,42.316Z" transform="translate(-9.15 -8.266)"/><path class="c" d="M12.271,15.166S17.517,9.182,11.608,0c0,0,2.353,5.249-.446,9.749C9.5,12.427,12.271,15.166,12.271,15.166Z" transform="translate(-3.678 -0.108)"/><path class="e" d="M1.03,50.279s1.068.8,1.812.6c0,0-1.041,1.148-1.19,1.1A3.872,3.872,0,0,1,1.03,50.279Z" transform="translate(-0.509 -16.703)"/><path class="e" d="M3.8,52.746a7.034,7.034,0,0,0,1.055,2.816,5.2,5.2,0,0,1-2.028-1.714Z" transform="translate(-1.102 -17.517)"/><path class="c" d="M2.119,52.879a6.2,6.2,0,0,0,1.041-.75,3.4,3.4,0,0,1-.636,1.194C2.525,53.338,2.268,53.262,2.119,52.879Z" transform="translate(-0.869 -17.314)"/><path class="e" d="M13.959,54.459a6.467,6.467,0,0,0,.608-.413c.081-.077.162-.153.243-.245a8.439,8.439,0,0,1-4.881-3.535c-.284-.383.825,3.428,2.988,4.714A8.5,8.5,0,0,0,13.959,54.459Z" transform="translate(-3.432 -16.69)"/><path class="c" d="M16.616,53.615a6.277,6.277,0,0,0,.676-.934,6.557,6.557,0,0,0-1.42-.107A6.713,6.713,0,0,1,12.9,51.9,5.893,5.893,0,0,0,16.616,53.615Z" transform="translate(-4.427 -17.238)"/><path class="c" d="M16.817,35.432s-1.514-2.709,1.771-8.019a25.448,25.448,0,0,0-3.975,7.882A2.195,2.195,0,0,1,16.817,35.432Z" transform="translate(-4.993 -9.156)"/><path class="e" d="M1.051,43.465a1.594,1.594,0,0,0,.757-.077A4.694,4.694,0,0,1,1,40.113,5.47,5.47,0,0,0,.321,42.7C.321,42.715.632,43.419,1.051,43.465Z" transform="translate(-0.274 -13.348)"/><path class="c" d="M2.121,40c-.3,0-.581-2.035.838-4.775a12.846,12.846,0,0,0-.879,4.346C2.107,39.862,2.121,40,2.121,40Z" transform="translate(-0.79 -11.734)"/><path class="e" d="M4.908,30.215A11.843,11.843,0,0,0,2.65,37.851a2.691,2.691,0,0,0,.325.995c.189-.077.176-.52.176-.52-.257-4.683,2.191-8.035,4.435-11.233l-.027.031Z" transform="translate(-1.034 -9.05)"/><path class="c" d="M10.266,4.18c4.692,10.9-2.475,13.177-5.923,20.2A14.153,14.153,0,0,0,3.113,31.8a3.11,3.11,0,0,1-1.677.413C.247,32.141.125,30.9.03,31.391c-.176,2.77.744,3.6,3.2,3.9,0,0,.419,3.306,1.569,4.515a6.7,6.7,0,0,0,3.84.275,7.12,7.12,0,0,1-2.015-2.877,6.641,6.641,0,0,1-.541-2.663c4.395-1.683,6.72-1.561,7.991-.964a7.044,7.044,0,0,0-.433-2.831c-1.285-1.286-3.448-1.178-4.665-1.01a11.519,11.519,0,0,0-3.313,1.025s-.933-4.239,4.246-10.453C16.081,12.9,12.146,6.43,10.266,4.18Z" transform="translate(-0.173 -1.488)"/><path class="e" d="M17.072,50.7a7.046,7.046,0,0,0,.527-1.882c-1.92-.857-5.612-.046-6.68.4a.57.57,0,0,0,.257.23A8.432,8.432,0,0,0,17.072,50.7Z" transform="translate(-3.774 -16.095)"/><path class="e" d="M16.449,33.634a5.178,5.178,0,0,0-.365-.551,1.351,1.351,0,0,0-.149-.184,3.357,3.357,0,0,0-1.623-.689,7.217,7.217,0,0,0-2.191.306,22.17,22.17,0,0,1,3.664-7.438A10.183,10.183,0,0,0,17.1,16.4a11.728,11.728,0,0,1-3.178,8.341c-3.975,4.453-3.732,7.759-3.678,8.8C13.176,32.746,15.218,32.93,16.449,33.634Z" transform="translate(-3.543 -5.522)"/><path class="d" d="M221.785,47.258a2.067,2.067,0,0,0,1.325-.383,1.234,1.234,0,0,0,.487-1.01,1.147,1.147,0,0,0-.216-.75,1.18,1.18,0,0,0-.527-.367,5.246,5.246,0,0,0-.785-.2,2.775,2.775,0,0,1-.7-.2.376.376,0,0,1-.23-.367.409.409,0,0,1,.216-.367,1.176,1.176,0,0,1,.622-.138,2.013,2.013,0,0,1,1.15.337l.364-.811a2.267,2.267,0,0,0-.676-.291,3.049,3.049,0,0,0-.825-.107,1.948,1.948,0,0,0-1.284.383,1.269,1.269,0,0,0-.474,1.025,1.2,1.2,0,0,0,.23.765,1.255,1.255,0,0,0,.541.383,4.862,4.862,0,0,0,.811.2,3.961,3.961,0,0,1,.689.184.326.326,0,0,1,.216.337c0,.337-.284.505-.838.505a2.591,2.591,0,0,1-.744-.122,1.932,1.932,0,0,1-.649-.321l-.365.811a2.116,2.116,0,0,0,.744.367A2.933,2.933,0,0,0,221.785,47.258Zm-3.515-.046h.933v-6.29h-.933Zm-3.083-.857a1.085,1.085,0,0,1-.852-.383A1.547,1.547,0,0,1,214,44.947a1.48,1.48,0,0,1,.338-1.025,1.048,1.048,0,0,1,.852-.383,1.066,1.066,0,0,1,.852.383,1.723,1.723,0,0,1,0,2.051A1.085,1.085,0,0,1,215.186,46.355Zm0,.9a2.05,2.05,0,0,0,1.1-.291,2,2,0,0,0,.757-.826,2.768,2.768,0,0,0,0-2.387,2.005,2.005,0,0,0-.757-.826,2.209,2.209,0,0,0-2.191,0,2.005,2.005,0,0,0-.757.826,2.768,2.768,0,0,0,0,2.387,2,2,0,0,0,.757.826A2.047,2.047,0,0,0,215.186,47.258Zm-4.936-.9a1.085,1.085,0,0,1-.852-.383,1.547,1.547,0,0,1-.338-1.025,1.48,1.48,0,0,1,.338-1.025,1.048,1.048,0,0,1,.852-.383,1.066,1.066,0,0,1,.852.383,1.723,1.723,0,0,1,0,2.051A1.047,1.047,0,0,1,210.251,46.355Zm0,.9a2.05,2.05,0,0,0,1.1-.291,2,2,0,0,0,.757-.826,2.768,2.768,0,0,0,0-2.387,2,2,0,0,0-.757-.826,2.209,2.209,0,0,0-2.191,0,2.005,2.005,0,0,0-.757.826,2.768,2.768,0,0,0,0,2.387,2,2,0,0,0,.757.826A2.047,2.047,0,0,0,210.251,47.258Zm-4.706-4.637a1.738,1.738,0,0,0-.757.153,1.4,1.4,0,0,0-.568.429v-2.3h-.933V47.2h.933V44.9a1.48,1.48,0,0,1,.3-1.01,1.035,1.035,0,0,1,.811-.352.855.855,0,0,1,.7.306,1.4,1.4,0,0,1,.243.888V47.2h.933V44.61a2.1,2.1,0,0,0-.46-1.484A1.531,1.531,0,0,0,205.545,42.621ZM200.7,47.258a1.9,1.9,0,0,0,1.028-.275,1.711,1.711,0,0,0,.676-.781l-.716-.474a1.151,1.151,0,0,1-.433.474,1.066,1.066,0,0,1-.568.153,1.12,1.12,0,0,1-.879-.383,1.726,1.726,0,0,1,0-2.051,1.093,1.093,0,0,1,.866-.383,1.066,1.066,0,0,1,.568.153,1.248,1.248,0,0,1,.433.474l.716-.474a1.711,1.711,0,0,0-.676-.78,1.952,1.952,0,0,0-1.041-.275,2.108,2.108,0,0,0-1.122.291,2.132,2.132,0,0,0-.771.826,2.478,2.478,0,0,0-.27,1.194,2.642,2.642,0,0,0,.27,1.194,2.131,2.131,0,0,0,.771.826A2.347,2.347,0,0,0,200.7,47.258Zm-4.949.031a2.638,2.638,0,0,0,1.163-.23,1.59,1.59,0,0,0,.717-.643,1.659,1.659,0,0,0,.23-.888,1.471,1.471,0,0,0-.271-.918,1.616,1.616,0,0,0-.635-.505,7.179,7.179,0,0,0-.961-.321c-.283-.077-.513-.153-.676-.214a1.149,1.149,0,0,1-.405-.26.555.555,0,0,1-.162-.413.684.684,0,0,1,.283-.582,1.34,1.34,0,0,1,.852-.214,2.586,2.586,0,0,1,.73.122,2.864,2.864,0,0,1,.717.352l.311-.857a2.235,2.235,0,0,0-.8-.383,3.3,3.3,0,0,0-.947-.138,2.437,2.437,0,0,0-1.163.245,1.655,1.655,0,0,0-.716.643,1.689,1.689,0,0,0-.23.888,1.523,1.523,0,0,0,.27.934,1.623,1.623,0,0,0,.636.505,6.823,6.823,0,0,0,.973.321c.284.077.514.153.676.214a1.158,1.158,0,0,1,.406.26.558.558,0,0,1,.162.413.694.694,0,0,1-.284.566,1.507,1.507,0,0,1-.879.214,2.535,2.535,0,0,1-.933-.184,2.326,2.326,0,0,1-.784-.474l-.338.857a2.423,2.423,0,0,0,.892.52A4.138,4.138,0,0,0,195.755,47.288Zm-6.18-.077h.933v-6.29h-.933Zm-3.15-.719a.894.894,0,0,1-.568-.168.551.551,0,0,1-.2-.459q0-.6.811-.6h.96v.52a.967.967,0,0,1-.392.52A1.008,1.008,0,0,1,186.426,46.493Zm.121-3.872a3.145,3.145,0,0,0-.933.138,2.1,2.1,0,0,0-.758.413l.365.765a1.9,1.9,0,0,1,.555-.337,1.963,1.963,0,0,1,.663-.122,1.006,1.006,0,0,1,.744.26,1.023,1.023,0,0,1,.257.735v.061h-1.028a1.808,1.808,0,0,0-1.257.367,1.251,1.251,0,0,0-.405.979,1.4,1.4,0,0,0,.189.7,1.415,1.415,0,0,0,.514.49,1.625,1.625,0,0,0,.784.168,1.717,1.717,0,0,0,.77-.153,1.084,1.084,0,0,0,.487-.459v.551h.879V44.534A1.963,1.963,0,0,0,187.9,43.1,1.849,1.849,0,0,0,186.547,42.621Zm-4.408,0a1.928,1.928,0,0,0-.8.168,1.419,1.419,0,0,0-.581.474v-.582h-.892v4.53h.933v-2.3a1.484,1.484,0,0,1,.3-1.01,1.036,1.036,0,0,1,.811-.352.853.853,0,0,1,.7.306,1.4,1.4,0,0,1,.243.888v2.464h.933V44.625a2.107,2.107,0,0,0-.46-1.484A1.45,1.45,0,0,0,182.139,42.621Zm-5.354,3.734a1.085,1.085,0,0,1-.852-.383,1.547,1.547,0,0,1-.338-1.025,1.48,1.48,0,0,1,.338-1.025,1.048,1.048,0,0,1,.852-.383,1.066,1.066,0,0,1,.852.383,1.723,1.723,0,0,1,0,2.051A1.085,1.085,0,0,1,176.785,46.355Zm0,.9a2.05,2.05,0,0,0,1.1-.291,2,2,0,0,0,.757-.826,2.768,2.768,0,0,0,0-2.387,2.005,2.005,0,0,0-.757-.826,2.209,2.209,0,0,0-2.191,0,2,2,0,0,0-.757.826,2.768,2.768,0,0,0,0,2.387,2,2,0,0,0,.757.826A2.047,2.047,0,0,0,176.785,47.258Zm-3.529-5.326a.556.556,0,0,0,.433-.184.71.71,0,0,0,.162-.474.61.61,0,0,0-.176-.444.545.545,0,0,0-.433-.168.574.574,0,0,0-.433.184.677.677,0,0,0-.176.459.619.619,0,0,0,.176.459A.683.683,0,0,0,173.255,41.932Zm-.474,5.28h.933v-4.53h-.933Zm-1.028-1.01a.754.754,0,0,1-.527.184.517.517,0,0,1-.405-.168.809.809,0,0,1-.149-.505V43.554h1.068v-.842h-1.068V41.672h-.933v1.041h-.663v.842h.663v2.173a1.608,1.608,0,0,0,.365,1.132,1.316,1.316,0,0,0,1.014.383,1.815,1.815,0,0,0,.5-.077.918.918,0,0,0,.405-.23Zm-5.273.291a.9.9,0,0,1-.568-.168.552.552,0,0,1-.2-.459q0-.6.811-.6h.961v.52a.968.968,0,0,1-.393.52A1.008,1.008,0,0,1,166.481,46.493Zm.122-3.872a3.146,3.146,0,0,0-.933.138,2.1,2.1,0,0,0-.757.413l.365.765a1.9,1.9,0,0,1,.554-.337,1.963,1.963,0,0,1,.663-.122,1,1,0,0,1,.744.26,1.023,1.023,0,0,1,.257.735v.061h-1.028a1.806,1.806,0,0,0-1.258.367,1.249,1.249,0,0,0-.406.979,1.39,1.39,0,0,0,.19.7,1.41,1.41,0,0,0,.514.49,1.622,1.622,0,0,0,.784.168,1.722,1.722,0,0,0,.771-.153,1.082,1.082,0,0,0,.486-.459v.551h.879V44.534a1.963,1.963,0,0,0-.473-1.439A1.846,1.846,0,0,0,166.6,42.621Zm-4.408,0a1.931,1.931,0,0,0-.8.168,1.423,1.423,0,0,0-.582.474v-.582h-.892v4.53h.933v-2.3a1.481,1.481,0,0,1,.3-1.01,1.034,1.034,0,0,1,.811-.352.853.853,0,0,1,.7.306,1.4,1.4,0,0,1,.244.888v2.464h.933V44.625a2.107,2.107,0,0,0-.46-1.484A1.449,1.449,0,0,0,162.194,42.621Zm-4.5.719v-.658H156.8v4.53h.933V45.023a1.574,1.574,0,0,1,.311-1.041,1.046,1.046,0,0,1,.852-.367,1.2,1.2,0,0,1,.216.031v-1.01A1.462,1.462,0,0,0,157.692,43.34Zm-3.854.138a1.031,1.031,0,0,1,.758.306,1.327,1.327,0,0,1,.365.8h-2.272a1.292,1.292,0,0,1,.379-.8A1.043,1.043,0,0,1,153.838,43.478Zm2.015,1.484a2.715,2.715,0,0,0-.257-1.224,2.005,2.005,0,0,0-.716-.826,1.866,1.866,0,0,0-1.042-.291,1.986,1.986,0,0,0-1.068.291,2.169,2.169,0,0,0-.744.826,2.768,2.768,0,0,0,0,2.387,2.036,2.036,0,0,0,.77.826,2.225,2.225,0,0,0,1.163.291,2.333,2.333,0,0,0,.933-.184,1.674,1.674,0,0,0,.676-.551l-.5-.658a1.394,1.394,0,0,1-1.082.49,1.244,1.244,0,0,1-1.3-1.087h3.137A1.16,1.16,0,0,0,155.853,44.962Zm-4.706,1.24a.755.755,0,0,1-.527.184.517.517,0,0,1-.406-.168.809.809,0,0,1-.149-.505V43.554h1.069v-.842h-1.069V41.672h-.933v1.041h-.663v.842h.663v2.173a1.608,1.608,0,0,0,.364,1.132,1.317,1.317,0,0,0,1.014.383,1.808,1.808,0,0,0,.5-.077.925.925,0,0,0,.406-.23Zm-4.99-3.581a1.933,1.933,0,0,0-.8.168,1.423,1.423,0,0,0-.582.474v-.582h-.892v4.53h.933v-2.3a1.481,1.481,0,0,1,.3-1.01,1.035,1.035,0,0,1,.811-.352.855.855,0,0,1,.7.306,1.4,1.4,0,0,1,.243.888v2.464h.933V44.625a2.1,2.1,0,0,0-.46-1.484A1.414,1.414,0,0,0,146.157,42.621Zm-4.57,4.591h.973V41.274h-.973Z" transform="translate(-46.901 -13.529)"/><path class="d" d="M205.623,26.813a1.741,1.741,0,0,0-.758.153,1.4,1.4,0,0,0-.567.428V25.1h-.933v6.29h.933v-2.3a1.481,1.481,0,0,1,.3-1.01,1.034,1.034,0,0,1,.811-.352.853.853,0,0,1,.7.306,1.4,1.4,0,0,1,.243.888v2.464h.933V28.8a2.107,2.107,0,0,0-.46-1.484A1.493,1.493,0,0,0,205.623,26.813Zm-4.976,4.637a2.067,2.067,0,0,0,1.325-.383,1.236,1.236,0,0,0,.487-1.01,1.147,1.147,0,0,0-.216-.75,1.183,1.183,0,0,0-.527-.367,5.239,5.239,0,0,0-.785-.2,2.774,2.774,0,0,1-.7-.2.376.376,0,0,1-.23-.367.41.41,0,0,1,.216-.367,1.174,1.174,0,0,1,.622-.138,2.011,2.011,0,0,1,1.149.337l.365-.811a2.266,2.266,0,0,0-.676-.291,3.056,3.056,0,0,0-.825-.107,1.95,1.95,0,0,0-1.285.383,1.271,1.271,0,0,0-.473,1.025,1.2,1.2,0,0,0,.23.765,1.257,1.257,0,0,0,.541.383,4.9,4.9,0,0,0,.811.2,3.957,3.957,0,0,1,.69.184.326.326,0,0,1,.216.337c0,.337-.284.505-.839.505a2.6,2.6,0,0,1-.744-.122,1.946,1.946,0,0,1-.649-.321l-.365.811a2.119,2.119,0,0,0,.744.367A2.928,2.928,0,0,0,200.646,31.45Zm-3.029-5.326a.556.556,0,0,0,.433-.184.71.71,0,0,0,.162-.474.61.61,0,0,0-.176-.444.545.545,0,0,0-.433-.168.575.575,0,0,0-.433.184.686.686,0,0,0,0,.918A.684.684,0,0,0,197.617,26.124Zm-.474,5.265h.933V26.874h-.933Zm-1.041-.995a.754.754,0,0,1-.527.184.517.517,0,0,1-.405-.168.8.8,0,0,1-.149-.505V27.746h1.068V26.9h-1.068V25.864h-.933V26.9h-.663v.842h.663v2.189a1.608,1.608,0,0,0,.365,1.132,1.317,1.317,0,0,0,1.014.383,1.816,1.816,0,0,0,.5-.077.919.919,0,0,0,.405-.23Zm-3.867-4.27a.556.556,0,0,0,.433-.184.71.71,0,0,0,.162-.474.61.61,0,0,0-.176-.444.545.545,0,0,0-.433-.168.574.574,0,0,0-.433.184.677.677,0,0,0-.176.459.619.619,0,0,0,.176.459A.711.711,0,0,0,192.236,26.124Zm-.474,5.265h.933V26.874h-.933Zm-2.218-3.857v-.658h-.892V31.4h.933V29.216a1.57,1.57,0,0,1,.311-1.041,1.046,1.046,0,0,1,.852-.367,1.2,1.2,0,0,1,.216.031v-1.01A1.464,1.464,0,0,0,189.545,27.532Zm-4.057,3H183.92V28.818h1.568c.758,0,1.136.291,1.136.857S186.246,30.532,185.488,30.532Zm-.189-4.209a1.3,1.3,0,0,1,.784.214.727.727,0,0,1,.271.612.747.747,0,0,1-.271.612,1.272,1.272,0,0,1-.784.214H183.92V26.338H185.3Zm1.365,1.989a1.343,1.343,0,0,0,.5-.52,1.635,1.635,0,0,0,.176-.781,1.384,1.384,0,0,0-.5-1.132,2.206,2.206,0,0,0-1.434-.413h-2.461V31.4h2.609a2.445,2.445,0,0,0,1.528-.413,1.426,1.426,0,0,0,.527-1.194,1.582,1.582,0,0,0-.257-.934A1.344,1.344,0,0,0,186.665,28.313Zm-7.234-2.418a.82.82,0,0,1,.514.184l.257-.8a1.3,1.3,0,0,0-.852-.245,1.332,1.332,0,0,0-1.055.413,1.677,1.677,0,0,0-.379,1.148v.291h-.663v.842h.663v3.642h.933V27.731h1.069v-.842h-1.1v-.275C178.836,26.139,179.039,25.895,179.43,25.895Zm-4.692,4.652a1.084,1.084,0,0,1-.851-.383,1.547,1.547,0,0,1-.338-1.025,1.48,1.48,0,0,1,.338-1.025,1.048,1.048,0,0,1,.851-.383,1.066,1.066,0,0,1,.852.383,1.723,1.723,0,0,1,0,2.051A1.085,1.085,0,0,1,174.738,30.547Zm0,.9a2.047,2.047,0,0,0,1.1-.291,2.007,2.007,0,0,0,.758-.826,2.774,2.774,0,0,0,0-2.387,2.007,2.007,0,0,0-.758-.826,2.207,2.207,0,0,0-2.19,0,2.007,2.007,0,0,0-.758.826,2.774,2.774,0,0,0,0,2.387,2.007,2.007,0,0,0,.758.826A2.046,2.046,0,0,0,174.738,31.45Zm-6.26-.061h.933V25.1h-.933Zm-1.69-5.265a.554.554,0,0,0,.432-.184.707.707,0,0,0,.163-.474.608.608,0,0,0-.176-.444.543.543,0,0,0-.433-.168.574.574,0,0,0-.432.184.677.677,0,0,0-.176.459.619.619,0,0,0,.176.459A.681.681,0,0,0,166.788,26.124Zm-.474,5.265h.933V26.874h-.933Zm-2.556.061a1.9,1.9,0,0,0,1.028-.275,1.712,1.712,0,0,0,.677-.78l-.717-.474a1.151,1.151,0,0,1-.433.474,1.064,1.064,0,0,1-.568.153,1.121,1.121,0,0,1-.879-.383,1.726,1.726,0,0,1,0-2.051,1.093,1.093,0,0,1,.866-.383,1.066,1.066,0,0,1,.568.153,1.248,1.248,0,0,1,.433.474l.716-.474a1.711,1.711,0,0,0-.676-.78,1.953,1.953,0,0,0-1.041-.275,2.109,2.109,0,0,0-1.122.291,2.132,2.132,0,0,0-.771.826,2.477,2.477,0,0,0-.27,1.194,2.641,2.641,0,0,0,.27,1.194,2.132,2.132,0,0,0,.771.826A2.312,2.312,0,0,0,163.758,31.45Zm-4.746-4.637a1.933,1.933,0,0,0-.8.168,1.424,1.424,0,0,0-.582.474v-.582h-.892V31.4h.933v-2.3a1.481,1.481,0,0,1,.3-1.01,1.035,1.035,0,0,1,.811-.352.855.855,0,0,1,.7.306,1.4,1.4,0,0,1,.243.888V31.4h.933V28.818a2.106,2.106,0,0,0-.46-1.484A1.449,1.449,0,0,0,159.013,26.813Zm-4.448.061v2.3a1.484,1.484,0,0,1-.3,1.01,1.008,1.008,0,0,1-.8.352.846.846,0,0,1-.69-.306,1.438,1.438,0,0,1-.243-.918V26.874H151.6V29.46a2.148,2.148,0,0,0,.46,1.5,1.628,1.628,0,0,0,1.257.505,1.716,1.716,0,0,0,.73-.168,1.475,1.475,0,0,0,.567-.474V31.4h.893v-4.53Zm-6,3.673a1.084,1.084,0,0,1-.852-.383,1.547,1.547,0,0,1-.338-1.025,1.48,1.48,0,0,1,.338-1.025,1.047,1.047,0,0,1,.852-.383,1.066,1.066,0,0,1,.852.383,1.726,1.726,0,0,1,0,2.051A1.066,1.066,0,0,1,148.56,30.547Zm0,.9a2.047,2.047,0,0,0,1.1-.291,2,2,0,0,0,.757-.826,2.768,2.768,0,0,0,0-2.387,2,2,0,0,0-.757-.826,2.209,2.209,0,0,0-2.191,0,2.01,2.01,0,0,0-.757.826,2.768,2.768,0,0,0,0,2.387,2.01,2.01,0,0,0,.757.826A2.083,2.083,0,0,0,148.56,31.45Zm-4.732.031A2.693,2.693,0,0,0,145,31.22a2.455,2.455,0,0,0,.906-.735l-.635-.673a1.733,1.733,0,0,1-1.406.7,1.827,1.827,0,0,1-.96-.26,1.923,1.923,0,0,1-.663-.735A2.321,2.321,0,0,1,142,28.45a2.277,2.277,0,0,1,.244-1.071,1.757,1.757,0,0,1,1.623-.995,1.78,1.78,0,0,1,1.406.689l.635-.673a2.415,2.415,0,0,0-.892-.735,2.693,2.693,0,0,0-1.176-.26,2.7,2.7,0,0,0-2.434,1.484,3.52,3.52,0,0,0,0,3.122,2.8,2.8,0,0,0,1,1.087A2.771,2.771,0,0,0,143.828,31.481Z" transform="translate(-46.721 -8.311)"/></g></svg>