<svg xmlns="http://www.w3.org/2000/svg" width="33.454" height="33.454" viewBox="0 0 33.454 33.454"><defs><style>.a{fill:none;stroke:#fff;}.b{fill:#fff;}</style></defs><g transform="translate(0.5 0.5)"><path class="a" d="M16.227,0h0A16.227,16.227,0,0,1,32.454,16.227h0A16.227,16.227,0,0,1,16.227,32.454h0A16.227,16.227,0,0,1,0,16.227H0A16.227,16.227,0,0,1,16.227,0Z"/><path class="b" d="M386.731,155.65h3.95v-9.892h2.756l.294-3.312h-3.05V140.56c0-.781.157-1.09.912-1.09h2.138v-3.437H391c-2.939,0-4.264,1.294-4.264,3.772v2.641h-2.055V145.8h2.055Z" transform="translate(-372.977 -129.614)"/></g></svg>