<svg xmlns="http://www.w3.org/2000/svg" width="33.454" height="33.454" viewBox="0 0 33.454 33.454"><defs><style>.a{fill:none;stroke:#fff;}.b{fill:#fff;}</style></defs><g transform="translate(0.5 0.5)"><path class="a" d="M218.352,160.959h0a16.226,16.226,0,0,1-16.226-16.226h0a16.227,16.227,0,0,1,16.226-16.227h0a16.227,16.227,0,0,1,16.227,16.227h0A16.227,16.227,0,0,1,218.352,160.959Z" transform="translate(-202.126 -128.505)"/><g transform="translate(7.33 7.33)"><path class="b" d="M219.619,138.7c2.376,0,2.657.009,3.6.052a4.929,4.929,0,0,1,1.652.307,2.941,2.941,0,0,1,1.688,1.688,4.929,4.929,0,0,1,.307,1.652c.043.939.052,1.22.052,3.6s-.009,2.657-.052,3.595a4.93,4.93,0,0,1-.307,1.652,2.941,2.941,0,0,1-1.688,1.688,4.912,4.912,0,0,1-1.652.306c-.939.043-1.219.052-3.6.052s-2.657-.009-3.595-.052a4.919,4.919,0,0,1-1.652-.306,2.947,2.947,0,0,1-1.688-1.688,4.914,4.914,0,0,1-.306-1.652c-.043-.938-.052-1.219-.052-3.595s.009-2.657.052-3.6a4.913,4.913,0,0,1,.306-1.652,2.947,2.947,0,0,1,1.688-1.688,4.936,4.936,0,0,1,1.652-.307c.938-.043,1.219-.052,3.595-.052m0-1.6c-2.416,0-2.719.011-3.668.054a6.542,6.542,0,0,0-2.16.414,4.55,4.55,0,0,0-2.6,2.6,6.514,6.514,0,0,0-.414,2.16c-.043.949-.054,1.252-.054,3.668s.01,2.719.054,3.668a6.514,6.514,0,0,0,.414,2.16,4.55,4.55,0,0,0,2.6,2.6,6.564,6.564,0,0,0,2.16.414c.949.043,1.252.053,3.668.053s2.719-.01,3.668-.053a6.559,6.559,0,0,0,2.16-.414,4.555,4.555,0,0,0,2.6-2.6,6.537,6.537,0,0,0,.414-2.16c.043-.949.054-1.252.054-3.668s-.01-2.719-.054-3.668a6.537,6.537,0,0,0-.414-2.16,4.554,4.554,0,0,0-2.6-2.6,6.537,6.537,0,0,0-2.16-.414c-.949-.043-1.252-.054-3.668-.054" transform="translate(-210.722 -137.101)"/><path class="b" d="M220.367,142.178a4.569,4.569,0,1,0,4.569,4.569,4.569,4.569,0,0,0-4.569-4.569m0,7.534a2.966,2.966,0,1,1,2.966-2.966,2.965,2.965,0,0,1-2.966,2.966" transform="translate(-211.47 -137.849)"/><path class="b" d="M227.609,141.782a1.068,1.068,0,1,1-1.068-1.068,1.068,1.068,0,0,1,1.068,1.068" transform="translate(-212.895 -137.633)"/></g></g></svg>