<svg xmlns="http://www.w3.org/2000/svg" width="33.454" height="33.454" viewBox="0 0 33.454 33.454"><defs><style>.a{fill:none;stroke:#fff;stroke-miterlimit:10;}.b{fill:#fff;}</style></defs><g transform="translate(0.5 0.5)"><rect class="a" width="32.454" height="32.454" rx="16.227"/><g transform="translate(8.546 7.186)"><rect class="b" width="3.358" height="10.849" transform="translate(0.322 5.424)"/><path class="b" d="M327.86,194.86a2,2,0,1,0-1.986-2A1.995,1.995,0,0,0,327.86,194.86Z" transform="translate(-325.874 -190.857)"/><path class="b" d="M335.93,202.315c0-1.525.7-2.434,2.046-2.434,1.236,0,1.829.872,1.829,2.434v5.7h3.342v-6.869c0-2.906-1.647-4.311-3.948-4.311a3.782,3.782,0,0,0-3.269,1.792v-1.461h-3.221V208.01h3.221Z" transform="translate(-326.881 -191.737)"/></g></g></svg>