<svg xmlns="http://www.w3.org/2000/svg" width="33.455" height="33.454" viewBox="0 0 33.455 33.454"><defs><style>.a{fill:none;stroke:#fff;}.b{fill:#fff;}</style></defs><g transform="translate(0.5 0.5)"><path class="a" d="M51.779,160.959h0a16.227,16.227,0,0,1-16.227-16.226h0a16.227,16.227,0,0,1,16.227-16.227h0a16.227,16.227,0,0,1,16.227,16.227h0A16.227,16.227,0,0,1,51.779,160.959Z" transform="translate(-35.552 -128.505)"/><path class="b" d="M44.444,151.754A10.09,10.09,0,0,0,59.965,142.8a7.191,7.191,0,0,0,1.769-1.837,7.075,7.075,0,0,1-2.037.559,3.553,3.553,0,0,0,1.56-1.963,7.117,7.117,0,0,1-2.252.861,3.55,3.55,0,0,0-6.045,3.236,10.068,10.068,0,0,1-7.312-3.707,3.552,3.552,0,0,0,1.1,4.737,3.536,3.536,0,0,1-1.607-.444,3.552,3.552,0,0,0,2.845,3.524,3.551,3.551,0,0,1-1.6.06,3.549,3.549,0,0,0,3.314,2.464A7.133,7.133,0,0,1,44.444,151.754Z" transform="translate(-36.862 -130.095)"/></g></svg>